<?xml version="1.0" standalone="no"?>
<!DOCTYPE svg PUBLIC "-//W3C//DTD SVG 1.1//EN" "http://www.w3.org/Graphics/SVG/1.1/DTD/svg11.dtd" >
<svg xmlns="http://www.w3.org/2000/svg" xmlns:xlink="http://www.w3.org/1999/xlink" version="1.1">
<metadata>
Created by FontForge 20170731 at Wed Aug  5 09:12:41 2020
 By Aleksey,,,
(c) 1989, 1999, 2000 Adobe Systems Incorporated. All rights reserved.
</metadata>
<defs>
<font id="TrajanPro-Regular" horiz-adv-x="1095" >
  <font-face 
    font-family="Trajan Pro"
    font-weight="400"
    font-stretch="normal"
    units-per-em="2048"
    panose-1="2 2 5 2 5 5 6 2 3 1"
    ascent="1536"
    descent="-512"
    x-height="1311"
    cap-height="1542"
    bbox="-512.533 -524 3107 2044"
    underline-thickness="102"
    underline-position="-307"
    unicode-range="U+0020-FB02"
  />
<missing-glyph horiz-adv-x="1024" 
d="M0 0v1434h1024v-1434h-1024zM512 809l348 522h-696zM573 717l349 -522v1044zM164 102h696l-348 523zM102 1239v-1044l349 522z" />
    <glyph glyph-name=".notdef" horiz-adv-x="1024" 
d="M0 0v1434h1024v-1434h-1024zM512 809l348 522h-696zM573 717l349 -522v1044zM164 102h696l-348 523zM102 1239v-1044l349 522z" />
    <glyph glyph-name=".null" horiz-adv-x="0" 
 />
    <glyph glyph-name="nonmarkingreturn" horiz-adv-x="682" 
 />
    <glyph glyph-name="space" unicode=" " horiz-adv-x="665" 
 />
    <glyph glyph-name="exclam" unicode="!" horiz-adv-x="655" 
d="M293 422l-33 545q0 3 -2.5 44.5t-5 88t-6 99t-8.5 95t-9 60.5q-8 32 -8 39q0 11 10 28q22 37 66 78t86 62q20 10 31 10q12 0 12 -21q0 -4 -5.5 -39t-13.5 -99.5t-12 -131.5q0 -3 -11.5 -227t-22.5 -437t-13 -235q-1 -16 -2 -23.5t-3.5 -19.5t-7 -17.5t-11.5 -5.5
q-15 0 -21.5 23t-9.5 84zM328 -35q-50 0 -76.5 32.5t-26.5 72.5q0 38 27 71t78 33q45 0 74.5 -27t29.5 -71q0 -47 -30 -79t-76 -32z" />
    <glyph glyph-name="quotedbl" unicode="&#x22;" horiz-adv-x="665" 
d="M205 1546q26 0 36 -0.5t25 -2.5t20 -8.5t5 -16.5t-12 -53.5t-28 -126.5t-24 -181q-3 -40 -6.5 -60.5t-6.5 -26t-9 -5.5t-9.5 5.5t-7 26.5t-6.5 60q-8 98 -24 181t-27.5 126.5t-11.5 53.5t5 16.5t20 8.5t25 2.5t36 0.5zM461 1546q26 0 36 -0.5t25 -2.5t20 -8.5t5 -16.5
t-12 -53.5t-28 -126.5t-24 -181q-3 -40 -6.5 -60.5t-6.5 -26t-9 -5.5t-9.5 5.5t-7 26.5t-6.5 60q-8 98 -24 181t-27.5 126.5t-11.5 53.5t5 16.5t20 8.5t25 2.5t36 0.5z" />
    <glyph glyph-name="numbersign" unicode="#" horiz-adv-x="1169" 
d="M1104 942h-246l-49 -336h233v-114h-251l-74 -492h-72l76 492h-334l-78 -492h-71l77 492h-249v114h268l51 336h-254v115h270l68 487h74l-68 -487h328l65 487h72l-66 -487h230v-115zM786 942h-327l-51 -336h329z" />
    <glyph glyph-name="dollar" unicode="$" horiz-adv-x="1169" 
d="M573 0l-14 -166q-3 -12 -20 -16l-39 -13q-18 -3 -15 21l17 174q-51 0 -133 13t-136 36q-38 17 -47.5 29.5t-9.5 44.5q0 146 23 242q6 38 22 38q13 0 10 -45q-2 -62 8.5 -105.5t45.5 -84.5q38 -45 97.5 -67.5t125.5 -22.5l59 655q-75 53 -124 91.5t-95 83.5t-71.5 86
t-40.5 89t-15 103q0 90 41 163t105.5 116t136.5 66t141 23l14 164q0 16 13 19l47 14q16 3 16 -10l-18 -187q155 0 229 -28q17 -8 17 -31q0 -161 -9 -240q-2 -20 -16 -20q-16 0 -16 31q0 106 -60 161q-26 25 -71 42.5t-82 17.5l-60 -610q51 -33 82 -54t74 -54t68 -58.5
t54 -61.5t44.5 -70.5t26 -78.5t10.5 -92q0 -87 -31.5 -159t-80 -117t-109 -76t-114.5 -43.5t-100 -12.5zM584 928l53 559q-26 0 -57 -5.5t-72 -22.5t-73 -43t-54.5 -72t-22.5 -105q0 -88 54.5 -159t171.5 -152zM635 686l-53 -608q130 6 204 82.5t74 201.5q0 98 -57 175
t-168 149z" />
    <glyph glyph-name="percent" unicode="%" horiz-adv-x="1781" 
d="M1325 0q-85 0 -153 33.5t-107 87t-59.5 115t-20.5 124.5q0 73 21 141t62 125t111 91.5t160 34.5q67 0 124.5 -22t96.5 -58.5t66.5 -83.5t40 -97t12.5 -100q0 -72 -21.5 -140t-63 -125t-111.5 -91.5t-158 -34.5zM1333 57q76 0 126.5 43t71.5 109.5t21 152.5
q0 83 -24.5 157t-77 124.5t-121.5 50.5q-110 0 -163.5 -85t-53.5 -220q0 -84 23 -157.5t75 -124t123 -50.5zM614 -8l-94 -17q-16 -3 -21.5 5t-0.5 18q91 205 253.5 582t265 618.5t128.5 304.5q-53 -2 -169 -11t-207.5 -16t-106.5 -6v-4q58 -40 95.5 -118.5t37.5 -173.5
q0 -72 -21.5 -140t-63.5 -125.5t-111.5 -92t-156.5 -34.5q-69 0 -126.5 22.5t-96 58.5t-66 83.5t-39.5 97t-12 99.5q0 73 23 142t66 125.5t115 91t161 34.5q153 0 334.5 12t305.5 23.5t138 11.5q15 0 15 -8q0 -4 -3 -11.5t-9 -21.5t-11 -26l-602 -1500q-6 -14 -10 -18.5
t-11 -5.5zM451 840q111 0 164 85.5t53 219.5q0 83 -24.5 157.5t-76.5 125.5t-121 51q-110 0 -163.5 -86.5t-53.5 -221.5q0 -62 14 -119.5t40.5 -105.5t70 -77t97.5 -29z" />
    <glyph glyph-name="ampersand" unicode="&#x26;" horiz-adv-x="1587" 
d="M600 -35q-103 0 -189 30t-141.5 78t-94.5 109t-56 120.5t-17 115.5q0 86 26 164t72 138.5t99 106.5t117 84q-101 141 -101 283q0 62 31 127.5t86 121.5t140.5 92t183.5 36q158 0 248 -51q17 -10 21.5 -20.5t4.5 -31.5q0 -47 -5 -129.5t-9 -105.5q-7 -35 -21 -35
q-7 0 -9.5 7.5t-2.5 31.5q0 109 -63 174q-86 90 -205 90q-48 0 -92.5 -15t-83 -46t-61.5 -84.5t-23 -122.5q0 -47 14 -94.5t37 -91t67 -101.5t88.5 -108.5t116.5 -128.5q50 -55 192.5 -189t194.5 -178q45 61 75 155t30 185q0 61 -39 100q-33 33 -101 33q-24 0 -24 14
q0 15 33 15q101 0 245 -15q37 -5 37 -41q0 -115 -62 -251t-140 -232q146 -124 282 -203q54 -32 123 -55.5t121 -23.5q29 0 29 -15q0 -14 -35 -14h-201q-83 0 -131.5 11.5t-114 50.5t-180.5 130q-29 -29 -43.5 -43t-68.5 -53.5t-103.5 -62t-130 -42.5t-166.5 -20zM672 74
q130 0 227.5 43.5t159.5 107.5q-79 65 -201.5 180.5t-169.5 165.5q-175 188 -242 287q-184 -122 -184 -344q0 -190 118.5 -315t291.5 -125z" />
    <glyph glyph-name="quotesingle" unicode="'" horiz-adv-x="409" 
d="M205 1546q26 0 36 -0.5t25 -2.5t20 -8.5t5 -16.5t-12 -53.5t-28 -126.5t-24 -181q-3 -40 -6.5 -60.5t-6.5 -26t-9 -5.5t-9.5 5.5t-7 26.5t-6.5 60q-8 98 -24 181t-27.5 126.5t-11.5 53.5t5 16.5t20 8.5t25 2.5t36 0.5z" />
    <glyph glyph-name="parenleft" unicode="(" horiz-adv-x="737" 
d="M281 653q0 -296 74.5 -498t215.5 -370q15 -19 15 -25q0 -14 -15 -14q-5 0 -18 10q-52 39 -106 94.5t-112.5 139t-103.5 177t-74.5 215t-29.5 245.5t32 250t80.5 224t107.5 184.5t110.5 141.5t93.5 84q17 13 22 13q6 0 10.5 -5.5t4.5 -11.5q0 -7 -15 -22
q-41 -41 -87.5 -115t-94.5 -179.5t-79 -248t-31 -289.5z" />
    <glyph glyph-name="parenright" unicode=")" horiz-adv-x="737" 
d="M457 616q0 203 -39 368.5t-99.5 278t-152.5 222.5q-14 17 -14 24q0 15 14 15q3 0 18 -11q52 -39 106 -94t112.5 -138.5t103.5 -176.5t74.5 -213.5t29.5 -243.5q0 -125 -32 -252t-80.5 -225.5t-107.5 -185.5t-110.5 -142t-93.5 -84q-16 -12 -22 -12t-10 5t-4 11q0 9 14 23
q32 32 68 83.5t77 132t73 171t53.5 208t21.5 236.5z" />
    <glyph glyph-name="asterisk" unicode="*" horiz-adv-x="716" 
d="M424 1632q0 -36 -17.5 -117t-37.5 -143q-3 -7 0 -14q3 -2 10 0q60 16 116.5 53t75.5 59q19 15 21 15q11 0 34 -50t23 -79q0 -14 -24 -19q-1 0 -236 -8q-4 0 -12 -4q-4 -4 2 -14q17 -29 84 -83t88 -61q22 -7 22 -18q0 -24 -40 -63t-64 -39q-13 0 -29 28q-17 30 -46.5 101
t-41.5 110q-6 12 -8 12q-6 0 -8 -6q-8 -13 -39.5 -81t-38.5 -89q-12 -42 -12 -47q0 -10 -25 -10q-48 0 -88.5 8.5t-40.5 18.5q0 13 14 32q25 34 205 187q6 6 6 12t-8 6q-55 14 -194 14q-7 0 -15.5 -3t-9.5 -3q-10 0 -16 50t-6 88q0 16 20 16q27 0 83.5 -32t89 -55.5
t58.5 -43.5q8 -5 17 -2q2 4 2 14q1 18 -21 98.5t-32 102.5q-9 18 -9 22q0 15 51.5 37.5t80.5 22.5q16 0 16 -23z" />
    <glyph glyph-name="plus" unicode="+" horiz-adv-x="1044" 
d="M958 498h-380v-383h-107v383h-385v104h383v383h106v-383h383v-104z" />
    <glyph glyph-name="comma" unicode="," horiz-adv-x="512" 
d="M227 -4q0 32 -11 58.5t-23.5 40t-23.5 26t-11 20.5q0 41 42.5 76t84.5 35q8 0 15 -7.5t22 -31.5q34 -52 34 -88q0 -26 -20 -80q-60 -140 -131 -219q-15 -19 -27 -19q-5 0 -9.5 4.5t-4.5 10.5q0 4 2.5 8.5t6.5 10.5t5 9q49 83 49 146z" />
    <glyph glyph-name="hyphen" unicode="-" horiz-adv-x="798" 
d="M150 635h516q61 0 61 -21q0 -5 -2 -9.5t-7 -7.5t-9 -5t-12 -4t-13 -3t-15 -2.5t-14 -2.5q-441 -64 -487 -76q-17 -4 -36 -12t-31.5 -13.5t-16.5 -5.5q-17 0 -10 31l30 114q3 10 12 13.5t34 3.5z" />
    <glyph glyph-name="period" unicode="." horiz-adv-x="512" 
d="M254 0q-54 0 -82.5 34.5t-28.5 78.5q0 41 29 76.5t84 35.5q49 0 81 -29t32 -77q0 -51 -32 -85t-83 -34z" />
    <glyph glyph-name="slash" unicode="/" horiz-adv-x="1130" 
d="M113 -31l-66 43q-13 7 2 31l944 1513q12 19 29 9l61 -37q12 -9 4 -21l-950 -1527q-10 -18 -24 -11z" />
    <glyph glyph-name="zero" unicode="0" horiz-adv-x="1169" 
d="M86 721q0 244 59 434.5t177 303t278 112.5q78 0 145 -28t115 -75t87 -110.5t64 -132t41.5 -143.5t23.5 -140.5t7 -126.5q0 -178 -34 -332t-98 -269.5t-163 -182t-221 -66.5q-93 0 -172.5 43.5t-135 117t-95.5 171t-59 205t-19 219.5zM252 805q0 -140 21 -271.5t62 -244
t112 -180.5t161 -68q91 0 161.5 87t109.5 243.5t39 355.5t-40.5 371.5t-124 284.5t-194.5 112q-94 0 -163.5 -85.5t-106.5 -241.5t-37 -363z" />
    <glyph glyph-name="one" unicode="1" horiz-adv-x="1169" 
d="M698 995l-2 -379q-3 -342 11 -471q7 -53 21 -75.5t60 -32.5q62 -12 136 -12q6 0 12 -5.5t6 -11.5q0 -14 -35 -14q-68 0 -138.5 1.5t-113.5 2.5l-43 2q-1 0 -52.5 -1.5t-127 -3t-133.5 -1.5q-35 0 -35 14q0 6 5.5 11.5t11.5 5.5q95 0 163 14q49 9 66 32.5t20 73.5
q7 105 7 471v359v311q0 34 -7 49t-30 15q-32 0 -234 -99q-13 -8 -24 -8q-5 0 -10 6.5t-5 12.5q0 9 15 20l395 264q37 25 49 25q11 0 17 -13t6 -30l-3 -69q-2 -69 -4.5 -197.5t-3.5 -266.5z" />
    <glyph glyph-name="two" unicode="2" horiz-adv-x="1169" 
d="M877 0h-777q-11 0 -19.5 8.5t-8.5 20.5q0 17 37 49q82 73 133 119.5t121.5 113t114 113t97.5 108.5t86.5 111.5t67 110.5t52.5 117t30 119t12 128q0 84 -21 151.5t-54 109t-77 69t-86.5 38.5t-86.5 11q-73 0 -123.5 -18t-95.5 -60q-72 -69 -72 -198q0 -13 -5.5 -22
t-13.5 -9q-13 0 -16 27q-2 18 -7 113.5t-5 137.5q0 18 20 31q156 72 361 72q112 0 202 -34t146 -92t85.5 -131.5t29.5 -156.5q0 -85 -27 -175.5t-62.5 -163t-104 -161t-115 -143t-135 -138t-125.5 -115.5t-122 -105q-15 -13 -22 -19t-5.5 -10t9.5 -4h149q258 0 351 10
q107 10 163 60t76 137q8 30 25 30q12 0 12 -30q0 -56 -61 -269q-11 -39 -37.5 -50t-95.5 -11z" />
    <glyph glyph-name="three" unicode="3" horiz-adv-x="1169" 
d="M860 416q0 78 -27 143.5t-67.5 107t-94.5 73.5t-99 48t-91 25q-31 6 -42 11.5t-11 15.5q0 17 47 24q34 6 72.5 20.5t85 44t83 68t61 97.5t24.5 127q0 29 -7 62t-27.5 72t-51.5 70t-85.5 51.5t-123.5 20.5q-116 0 -187 -63.5t-71 -178.5q0 -24 -15 -24q-12 0 -14 22
q-14 115 -14 205q0 12 0.5 17t6.5 12t19 14q51 29 138 49.5t194 20.5q95 0 170 -22.5t118 -56t71 -77t37.5 -80t9.5 -71.5q0 -58 -23 -114t-55.5 -96t-73 -75t-70.5 -54t-53 -30v-10q41 -10 84.5 -29.5t90 -54t82 -77t58.5 -103.5t23 -129q0 -143 -76 -263t-217 -192
t-319 -72q-63 0 -140.5 15t-109.5 34q-20 13 -26.5 25t-6.5 33q0 144 15 256q3 30 16 30q5 0 7.5 -2.5t4 -8t2.5 -17.5q25 -277 307 -277q163 0 267 93.5t104 269.5z" />
    <glyph glyph-name="four" unicode="4" horiz-adv-x="1169" 
d="M852 1229v-658h156q24 0 43 5.5t29 11.5t12 6q10 0 10 -25q0 -23 -19 -82q-8 -15 -16.5 -20.5t-26.5 -5.5h-188l-1 -81q-1 -82 0 -138.5t5 -96.5q5 -49 23 -75t65 -37q39 -8 90 -8q7 0 13 -5.5t6 -11.5q0 -14 -33 -14q-50 0 -111 1.5t-102.5 3t-44.5 1.5t-39.5 -1.5
t-92.5 -3t-106 -1.5q-32 0 -32 14q0 6 4.5 11.5t11.5 5.5q46 0 96 6q47 7 65 34.5t23 79.5q4 40 5 96.5t0 138.5l-1 81h-624q-43 0 -43 24q0 21 18 43q8 9 342 461t402 545q26 37 43 37q20 0 20 -35q0 -5 -1 -122.5t-1 -184.5zM696 571v725h-4q-21 -35 -250.5 -354
t-269.5 -371h524z" />
    <glyph glyph-name="five" unicode="5" horiz-adv-x="1169" 
d="M389 1407l-29 -315q84 -13 167 -38t170 -72t152.5 -107.5t107.5 -150t42 -194.5q0 -81 -23.5 -160.5t-74 -152.5t-121 -129t-173 -89.5t-222.5 -33.5q-123 0 -188 37q-39 20 -39 57q0 205 8 258q7 37 18 37q17 0 17 -35q0 -79 22 -133t63 -81.5t87.5 -38.5t107.5 -11
q67 0 129.5 23t115 69t84.5 125t32 181q0 94 -39 177t-98.5 139t-131.5 97.5t-136.5 61t-114.5 22.5q-30 1 -43 10t-11 27l47 522q3 27 39 27h482q81 0 118 6q15 1 28 4.5t15 3.5q15 0 15 -20q0 -56 -27 -258q-5 -23 -16 -23q-13 0 -13 27q0 33 -5.5 54t-23.5 40t-55 28
t-96 9h-387z" />
    <glyph glyph-name="six" unicode="6" horiz-adv-x="1169" 
d="M913 399q0 102 -30.5 186.5t-77.5 136t-99.5 79.5t-101.5 28q-100 0 -153 -26q-24 -8 -27 -8q-8 0 -8 16q0 13 18 25q100 71 238 71q102 0 183.5 -39t129.5 -101t73 -133t25 -142q0 -119 -39 -221t-108 -169q-73 -70 -157.5 -103.5t-196.5 -33.5q-218 0 -350 157
t-132 433q0 195 94 395t256.5 360.5t358.5 245.5q34 15 43 15q16 0 16 -19q0 -4 -1.5 -7.5t-4 -6t-7 -6t-7.5 -5.5t-9.5 -5.5t-9.5 -5.5q-82 -45 -158 -108.5t-148.5 -153t-125.5 -193t-85.5 -235t-32.5 -271.5q0 -93 21 -181.5t61 -164t107.5 -121t152.5 -45.5
q127 0 209.5 96t82.5 260z" />
    <glyph glyph-name="seven" unicode="7" horiz-adv-x="1169" 
d="M414 1536h663q37 0 37 -20t-12 -39q-129 -191 -320.5 -656t-214.5 -659q-2 -16 -2 -28t1 -24t1 -20q0 -29 -83 -77t-117 -48q-19 0 -19 21q0 33 12 69q70 233 234 607.5t377 744.5h-504q-130 0 -191 -51q-31 -25 -51.5 -69t-25.5 -89q-3 -29 -19 -29q-12 0 -12 33
q0 39 15.5 180.5t15.5 145.5q0 28 20 28q2 0 23.5 -5t67 -10t104.5 -5z" />
    <glyph glyph-name="eight" unicode="8" horiz-adv-x="1169" 
d="M109 362q0 83 30 157t82.5 130.5t115.5 98.5t136 71q-66 39 -113.5 75.5t-89 83t-63 103.5t-21.5 123q0 61 27 123.5t78.5 118t138 90.5t193.5 35q165 0 269.5 -83.5t104.5 -230.5q0 -62 -20 -118.5t-49.5 -97t-70.5 -77.5t-77 -60t-75 -42q36 -19 62.5 -34t66.5 -41
t68.5 -51t60.5 -61t52 -73t33 -85.5t13 -100.5q0 -119 -60 -221.5t-173 -166t-255 -63.5q-198 0 -331 108t-133 289zM590 43q139 0 226 93.5t87 232.5q0 47 -11 89t-27.5 74.5t-46 64.5t-55.5 54.5t-68.5 49.5t-72.5 43.5t-79 41.5q-277 -135 -277 -403q0 -140 92 -240
t232 -100zM598 1501q-66 0 -118.5 -24t-84 -63t-47.5 -83t-16 -88q0 -62 22 -113t68.5 -93.5t92.5 -72t120 -69.5q34 20 54.5 33.5t56 45t55.5 64t36.5 84t16.5 111.5q0 119 -69.5 193.5t-186.5 74.5z" />
    <glyph glyph-name="nine" unicode="9" horiz-adv-x="1169" 
d="M590 1571q141 0 249 -74.5t164 -200.5t56 -282q0 -164 -50.5 -318t-126.5 -266.5t-175.5 -210.5t-186 -158t-170.5 -102q-16 -8 -33 -8q-6 0 -11 5.5t-5 14.5q0 19 21 29q76 42 151 103.5t149.5 151.5t130.5 193t91 235t35 271q0 257 -97.5 399t-240.5 142
q-131 0 -206 -92t-75 -221q0 -96 27 -172.5t65 -119t83.5 -70.5t78 -37t53.5 -9q102 0 164 37q18 12 27 12q10 0 10 -14q0 -8 -8 -16q-42 -45 -111 -70t-135 -25q-84 0 -154.5 25t-117.5 65t-80 92.5t-47.5 106.5t-14.5 107q0 211 138 344t352 133z" />
    <glyph glyph-name="colon" unicode=":" horiz-adv-x="512" 
d="M254 61q-54 0 -82.5 34.5t-28.5 78.5q0 42 29 77.5t84 35.5q48 0 80.5 -29.5t32.5 -77.5q0 -51 -32 -85t-83 -34zM254 754q-54 0 -82.5 34t-28.5 78q0 42 29 77.5t84 35.5q48 0 80.5 -29.5t32.5 -77.5q0 -51 -31.5 -84.5t-83.5 -33.5z" />
    <glyph glyph-name="semicolon" unicode=";" horiz-adv-x="512" 
d="M238 -4q0 41 -17.5 71.5t-35 47.5t-17.5 26q0 41 42.5 76t84.5 35q8 0 15 -7.5t22 -31.5q35 -53 35 -88q0 -23 -21 -80q-60 -140 -131 -219q-15 -19 -27 -19q-5 0 -9.5 4.5t-4.5 10.5q0 4 2.5 8.5t6.5 10.5t5 9q50 84 50 146zM254 754q-54 0 -82.5 34t-28.5 78
q0 42 29 77.5t84 35.5q48 0 80.5 -29.5t32.5 -77.5q0 -51 -31.5 -84.5t-83.5 -33.5z" />
    <glyph glyph-name="less" unicode="&#x3c;" horiz-adv-x="1044" 
d="M51 485v109l873 401v-108l-760 -348l760 -351v-108z" />
    <glyph glyph-name="equal" unicode="=" horiz-adv-x="1044" 
d="M958 674h-872v104h872v-104zM958 313h-872v105h872v-105z" />
    <glyph glyph-name="greater" unicode="&#x3e;" horiz-adv-x="1044" 
d="M958 485l-872 -405v108l762 351l-762 348v108l872 -401v-109z" />
    <glyph glyph-name="question" unicode="?" horiz-adv-x="999" 
d="M457 1501q-70 0 -121.5 -23t-79.5 -57q-62 -75 -72 -190q-4 -35 -16 -35q-13 0 -16 21q-9 43 -9 239q0 19 23 33q55 33 143.5 57.5t196.5 24.5q97 0 171.5 -29t116 -76.5t62.5 -102t21 -112.5q0 -69 -16 -127t-53.5 -115.5t-72 -99t-101 -116t-110.5 -129.5
q-52 -66 -68 -100t-16 -64q0 -53 39 -105q19 -24 19 -35q0 -6 -8.5 -12t-14.5 -6q-13 0 -39 23t-47 49q-59 73 -59 121q0 45 45 102q25 33 73 88.5t68 81.5q103 131 141.5 227.5t38.5 202.5q0 42 -12 84.5t-37.5 84.5t-74.5 68.5t-115 26.5zM459 -35q-50 0 -76.5 32.5
t-26.5 72.5q0 38 27 71t78 33q45 0 74.5 -27t29.5 -71q0 -47 -30 -79t-76 -32z" />
    <glyph glyph-name="at" unicode="@" horiz-adv-x="1855" 
d="M1720 801q0 -159 -73 -295t-201 -221q-130 -86 -256 -86q-49 0 -89.5 28t-53.5 76q-12 45 -14.5 85t1.5 120l-6 2q-96 -144 -199.5 -223.5t-173.5 -79.5q-44 0 -76 57.5t-32 136.5q0 82 20.5 158t47.5 126t65.5 96.5t61.5 67t49 40.5q67 51 140.5 83t123.5 32
q58 0 114 -25q16 20 54 50t65 38q9 3 14.5 -5.5t2.5 -17.5q-53 -86 -76 -163q-16 -54 -32 -151t-21 -163q-7 -54 -4.5 -105t12.5 -90.5t40.5 -63t80.5 -23.5q129 0 225 142t96 368q0 112 -37.5 208.5t-109.5 169.5t-184 114.5t-253 41.5q-234 0 -410.5 -115t-268 -310
t-91.5 -439q0 -142 43.5 -257.5t121 -192.5t185.5 -118.5t236 -41.5q130 0 231.5 25t166 61.5t141.5 99.5q15 13 27.5 18t19 3t8.5 -7q7 -15 -33 -55q-90 -89 -253 -155t-353 -66q-140 0 -261 41t-215 121t-148 210.5t-54 297.5q0 182 75 354t199.5 298t295 202.5
t352.5 76.5q165 0 292.5 -42.5t208 -120.5t121.5 -183t41 -233zM1116 895q-19 11 -57.5 24t-67.5 13q-151 0 -233 -189q-62 -146 -62 -294q0 -45 13 -85t36 -40q52 0 144.5 94.5t152.5 193.5q16 77 22.5 105.5t19.5 76t32 101.5z" />
    <glyph glyph-name="A" unicode="A" horiz-adv-x="1433" 
d="M195 219l464 1272q18 49 27.5 64.5t18.5 15.5t18 -14t27 -60q9 -23 104 -271t206.5 -537.5t166.5 -426.5q26 -65 51.5 -110t48.5 -68t40 -33.5t36 -15.5q37 -12 82 -12q20 0 20 -13q0 -16 -41 -16q-180 0 -321 4h-10q-48 3 -51 11q-1 1 -1 3q0 11 15 15q11 4 15 17t-3 38
l-190 504q-6 12 -19 12h-440q-15 0 -21 -16l-123 -363q-28 -79 -28 -137q0 -28 24 -43.5t54 -15.5h20q21 0 21 -13q0 -16 -31 -16q-28 0 -90 3t-70 3q-2 0 -88 -3t-143 -3q-39 0 -39 16q0 13 18 13q28 0 60 4q65 8 102.5 55.5t69.5 136.5zM481 672h391q12 0 9 14l-195 553
q-16 48 -31 0l-180 -553q-6 -14 6 -14z" />
    <glyph glyph-name="B" unicode="B" horiz-adv-x="1406" 
d="M365 588v360q0 360 -5 443q-3 55 -21 80.5t-67 35.5q-24 6 -69 6q-17 0 -17 13q0 16 33 16q41 0 96 -1.5t94.5 -3t41.5 -1.5q19 0 94.5 3t128.5 3q96 0 171 -22.5t118.5 -56t71.5 -77t38 -80t10 -71.5q0 -60 -14.5 -112t-47.5 -100.5t-58 -78t-72 -78.5q61 -19 120 -54.5
t113 -88t87.5 -128t33.5 -161.5q0 -84 -33 -162.5t-96 -142.5t-165 -102.5t-228 -38.5q-10 0 -33.5 1t-57 2.5t-57.5 2.5q-89 6 -124 6q-39 0 -82 -2q-22 0 -63.5 -2t-55.5 -2q-33 0 -33 16q0 13 16 13q26 0 62 8q28 5 40 32.5t19 79.5q11 95 11 445zM528 1452v-549
q0 -16 15 -22q54 -9 125 -9q89 0 122 9t64 45q74 84 74 207q0 53 -9.5 102t-30.5 95t-52.5 80t-79 54.5t-105.5 20.5q-57 0 -98 -10q-25 -6 -25 -23zM528 803v-117q0 -411 2 -442q2 -38 3.5 -53t5.5 -36.5t11 -30.5t19 -20t31 -20q63 -31 180 -31q36 0 73 8t76.5 28.5t70 52
t50 84t19.5 118.5q0 112 -46 224t-153 186q-33 22 -66 35t-52 16.5t-52 7.5q-27 4 -159 4q-13 0 -13 -14z" />
    <glyph glyph-name="C" unicode="C" horiz-adv-x="1648" 
d="M1055 -35q-226 0 -389 55t-287 166q-248 222 -248 607q0 57 11 121t35 140t71 154.5t112 143.5q219 219 625 219q158 0 297 -25q146 -26 209 -30q27 -2 27 -23q0 -6 -2 -19t-4.5 -38.5t-4.5 -57.5q-2 -38 -3.5 -118.5t-2.5 -92.5q-3 -43 -18 -43q-17 0 -17 43
q0 61 -23.5 118.5t-62.5 90.5q-58 49 -169.5 83t-239.5 34q-317 0 -471 -150q-105 -100 -145 -230t-40 -304q0 -146 55 -282t150 -239.5t235 -166t300 -62.5q127 0 212.5 22t143.5 81q29 30 49.5 82.5t26.5 89.5q5 31 20 31t15 -31q0 -16 -16 -116t-29 -146
q-9 -29 -17.5 -38.5t-36.5 -21.5q-117 -47 -368 -47z" />
    <glyph glyph-name="D" unicode="D" horiz-adv-x="1878" 
d="M365 588v360q0 360 -5 443q-3 55 -21 80.5t-67 35.5q-24 6 -69 6q-17 0 -17 13q0 16 33 16q41 0 96 -1.5t94.5 -3t41.5 -1.5l101 3q101 3 175 3h40q63 1 98.5 0.5t106.5 -4.5t119.5 -12.5t117.5 -25.5t122 -41t111.5 -62.5t105.5 -87.5q199 -207 199 -521
q0 -180 -62.5 -328t-158.5 -249q-226 -236 -621 -236q-93 0 -284 13q-37 2 -79.5 5.5t-64.5 5t-26 1.5q-39 0 -82 -2q-22 0 -63.5 -2t-55.5 -2q-33 0 -33 16q0 13 16 13q26 0 62 8q28 5 40 32.5t19 79.5q11 95 11 445zM537 981v-254q0 -366 4 -444q5 -132 22 -156
q57 -82 348 -82q142 0 269.5 50t218.5 141q77 76 120.5 210t43.5 279q0 92 -18 176t-49.5 148t-62.5 109t-67 83q-70 73 -149.5 121.5t-168.5 71.5t-169 31t-183 8q-33 0 -77.5 -4.5t-55.5 -10.5q-24 -11 -24 -41q-2 -70 -2 -436z" />
    <glyph glyph-name="E" unicode="E" horiz-adv-x="1249" 
d="M365 588v360q0 360 -5 443q-3 55 -21 80.5t-67 35.5q-24 6 -69 6q-17 0 -17 13q0 16 33 16q103 0 148 -2l84 -4q422 0 469 2q60 3 88 10q4 1 13.5 6t14.5 5q8 0 8 -19q0 -5 -2.5 -17t-6.5 -33.5t-7 -45.5q0 -4 -4 -62t-6 -73q-5 -23 -14 -23q-17 0 -17 27q0 43 -12 73
q-12 29 -41 45.5t-105 24.5q-52 6 -280 6q-12 0 -12 -20v-565q0 -21 12 -21q278 0 325 4q77 6 97 29q23 26 30 26q11 0 11 -16q0 -4 -3 -18.5t-7 -41t-7 -55.5q-8 -82 -8 -131q0 -39 -14 -39q-15 0 -15 19q0 40 -8 67q-17 63 -106 72q-92 10 -293 10q-14 0 -14 -14v-180
q0 -18 -0.5 -105.5t-0.5 -156.5t1 -88q3 -75 21 -108t65 -46.5t151 -13.5q146 0 197 22q40 17 60.5 51t31.5 97q5 30 18 30t13 -30q0 -14 -10 -92t-17 -107q-10 -38 -28.5 -45.5t-82.5 -7.5q-106 0 -346 6q-120 6 -159 6t-82 -2q-22 0 -63.5 -2t-55.5 -2q-33 0 -33 16
q0 13 16 13q26 0 62 8q28 5 40 32.5t19 79.5q11 95 11 445z" />
    <glyph glyph-name="F" unicode="F" horiz-adv-x="1212" 
d="M365 588v360q0 360 -5 443q-3 55 -21 80.5t-67 35.5q-24 6 -69 6q-17 0 -17 13q0 16 33 16q103 0 148 -2l84 -2q8 0 88.5 -0.5t162 -0.5h159t93.5 1q78 4 90 8q5 2 15 7.5t14 5.5q12 0 12 -19q0 -5 -2.5 -17t-6.5 -33.5t-7 -45.5q0 -4 -4 -62t-6 -73q-5 -23 -17 -23
q-14 0 -14 25q0 37 -18 78q-10 24 -47.5 44t-92.5 21l-315 6q-18 0 -18 -22v-566q0 -18 14 -18l262 2q63 0 92 2q40 3 60.5 10.5t33.5 26.5q16 20 23 20q10 0 10 -16q0 -4 -2.5 -18.5t-6.5 -41t-7 -55.5q-8 -82 -8 -137q0 -39 -15 -39q-14 0 -14 19q-5 52 -12 73
q-9 25 -36.5 46.5t-70.5 27.5q-51 6 -309 6q-14 0 -14 -18v-174q0 -359 10 -445q5 -51 21.5 -78.5t58.5 -33.5q58 -8 92 -8q16 0 16 -13q0 -16 -33 -16q-50 0 -110 1.5t-100 3t-41 1.5q-3 0 -41 -1.5t-85.5 -3t-74.5 -1.5q-33 0 -33 16q0 13 16 13q26 0 62 8q28 5 40 32.5
t19 79.5q11 95 11 445z" />
    <glyph glyph-name="G" unicode="G" horiz-adv-x="1765" 
d="M1337 168v348q0 124 -15 159t-77 52q-24 6 -69 6q-17 0 -17 12q0 17 33 17q41 0 96 -1.5t94 -3t41 -1.5q3 0 41 1.5t85.5 3t74.5 1.5q33 0 33 -17q0 -12 -17 -12q-14 0 -51 -6q-40 -7 -56.5 -34t-19.5 -83q-4 -66 -4 -213v-229q0 -69 -3.5 -85t-22.5 -26
q-90 -48 -209.5 -70t-224.5 -22q-424 0 -674 219q-102 89 -173 246t-71 338q0 232 96.5 406t245.5 268q124 77 259 103t286 26q142 0 313 -35q70 -16 166 -20q25 -2 25 -19q0 -7 -4 -38.5t-7.5 -97t-3.5 -155.5q0 -25 -4 -34t-14 -9q-11 0 -14 31q-5 75 -43 135
q-43 66 -170.5 116t-311.5 50q-79 0 -138.5 -7t-143 -38.5t-156.5 -89.5q-92 -73 -147.5 -209t-55.5 -311q0 -102 23 -199t59 -169t70 -121t65 -79q225 -219 537 -219q159 0 233 43q41 21 41 72z" />
    <glyph glyph-name="H" unicode="H" horiz-adv-x="1966" 
d="M1602 948v-360q0 -359 10 -445q5 -51 21.5 -78.5t58.5 -33.5q58 -8 92 -8q16 0 16 -13q0 -16 -33 -16q-50 0 -110 1.5t-100 3t-41 1.5q-3 0 -41 -1.5t-85.5 -3t-74.5 -1.5q-33 0 -33 16q0 13 16 13q26 0 62 8q28 5 40 32.5t19 79.5q11 95 11 445v215q0 12 -13 12h-868
q-12 0 -12 -12v-215q0 -359 10 -445q5 -51 21.5 -78.5t58.5 -33.5q58 -8 92 -8q16 0 16 -13q0 -16 -33 -16q-50 0 -110 1.5t-100 3t-41 1.5q-3 0 -41 -1.5t-85.5 -3t-74.5 -1.5q-33 0 -33 16q0 13 16 13q26 0 62 8q28 5 40 32.5t19 79.5q11 95 11 445v360q0 360 -5 443
q-3 55 -21 80.5t-67 35.5q-24 6 -69 6q-17 0 -17 13q0 16 33 16q41 0 96 -1.5t94.5 -3t41.5 -1.5q3 0 40.5 1.5t85 3t74.5 1.5q33 0 33 -16q0 -13 -16 -13q-14 0 -52 -6q-40 -7 -56 -33.5t-19 -82.5q-4 -66 -4 -443v-43q0 -12 12 -12h868q13 0 13 12v43q0 360 -5 443
q-3 55 -21 80.5t-67 35.5q-24 6 -69 6q-17 0 -17 13q0 16 33 16q41 0 96 -1.5t94.5 -3t41.5 -1.5q3 0 40.5 1.5t85 3t74.5 1.5q33 0 33 -16q0 -13 -16 -13q-15 0 -52 -6q-40 -7 -56 -33.5t-19 -82.5q-4 -66 -4 -443z" />
    <glyph glyph-name="I" unicode="I" horiz-adv-x="901" 
d="M537 948v-360q0 -359 10 -445q5 -51 21.5 -78.5t58.5 -33.5q58 -8 92 -8q16 0 16 -13q0 -16 -33 -16q-50 0 -110 1.5t-100 3t-41 1.5q-3 0 -41 -1.5t-85.5 -3t-74.5 -1.5q-33 0 -33 16q0 13 16 13q26 0 62 8q28 5 40 32.5t19 79.5q11 95 11 445v360q0 360 -5 443
q-3 53 -19 80t-50 34q-31 8 -64 8q-16 0 -16 13q0 16 33 16q30 0 79 -1.5t87 -3t41 -1.5t40.5 1.5t85 3t74.5 1.5q33 0 33 -16q0 -13 -16 -13q-14 0 -52 -6q-40 -7 -56 -33.5t-19 -82.5q-4 -66 -4 -443z" />
    <glyph glyph-name="J" unicode="J" horiz-adv-x="847" 
d="M537 948v-491q0 -278 -9.5 -390.5t-52.5 -213.5q-33 -77 -104.5 -153t-194.5 -161q-66 -44 -80 -51q-8 -4 -14 -4q-14 0 -14 12t28 31q34 19 72 57q57 58 88 105t59 131.5t39 212.5t11 323v592q0 360 -5 443q-3 55 -21 80.5t-67 35.5q-24 6 -69 6q-17 0 -17 13
q0 16 33 16q41 0 96 -1.5t94.5 -3t41.5 -1.5q3 0 40.5 1.5t85 3t74.5 1.5q33 0 33 -16q0 -13 -16 -13q-14 0 -52 -6q-40 -7 -56 -33.5t-19 -82.5q-4 -66 -4 -443z" />
    <glyph glyph-name="K" unicode="K" horiz-adv-x="1540" 
d="M365 588v360q0 360 -5 443q-3 55 -21 80.5t-67 35.5q-24 6 -69 6q-17 0 -17 13q0 16 33 16q41 0 94 -1.5t90.5 -3t40.5 -1.5q4 0 83.5 3t115.5 3q33 0 33 -16q0 -13 -17 -13q-13 0 -51 -6q-40 -7 -56.5 -33.5t-19.5 -82.5q-4 -66 -4 -443v-123h9q16 18 228 236t251 260
q32 33 43 44.5t31.5 36t28 39t7.5 27.5q0 33 -26 43q-19 8 -19 17q0 14 25 14q20 0 74 -3t80 -3q3 0 41.5 1.5t85.5 3t69 1.5q31 0 31 -14q0 -15 -21 -15q-50 0 -114 -28q-18 -8 -33.5 -16t-32 -20t-27.5 -20.5t-30 -26t-28.5 -26t-34.5 -32.5t-36 -35q-68 -65 -245 -240.5
t-205 -208.5q45 -51 275 -287t288 -290q139 -129 187 -167t118 -67q60 -26 127 -26q27 0 27 -13q0 -16 -45 -16h-105q-96 0 -141 4q-39 4 -69.5 12t-65.5 30t-50 33.5t-63 49.5q-66 54 -306 311t-318 354h-11v-200q0 -350 11 -445q5 -52 21 -79t58 -33q58 -8 80 -8
q17 0 17 -13q0 -16 -33 -16q-44 0 -99 1.5t-94 3t-43 1.5q-2 0 -81 -3t-115 -3q-33 0 -33 16q0 13 16 13q26 0 62 8q28 5 40 32.5t19 79.5q11 95 11 445z" />
    <glyph glyph-name="L" unicode="L" horiz-adv-x="1212" 
d="M537 948v-364q0 -236 9 -339t36 -130q26 -26 77.5 -36.5t167.5 -10.5q68 0 105 2.5t78.5 16.5t64.5 42q42 51 53 123q3 27 19 27q12 0 12 -31q0 -21 -10 -93t-21 -112q-8 -26 -16.5 -36t-32.5 -14.5t-80 -4.5q-82 0 -340 6q-129 6 -208 6q-2 0 -15 -0.5t-32 -1t-37 -0.5
q-82 -4 -117 -4q-33 0 -33 16q0 13 16 13q26 0 62 8q28 5 40 32.5t19 79.5q11 95 11 445v360q0 360 -5 443q-3 55 -21 80.5t-67 35.5q-24 6 -69 6q-17 0 -17 13q0 16 33 16q41 0 96 -1.5t94.5 -3t41.5 -1.5q3 0 46 1.5t95.5 3t79.5 1.5q33 0 33 -16q0 -13 -17 -13
q-30 0 -67 -6q-43 -7 -60 -33.5t-20 -82.5q-4 -66 -4 -443z" />
    <glyph glyph-name="M" unicode="M" horiz-adv-x="2150" 
d="M1751 1516l137 -1260q4 -37 9 -62.5t16 -61t33 -59.5t53 -34q62 -19 133 -19q16 0 16 -10q0 -18 -43 -18q-241 0 -342 8q-57 5 -57 20q0 12 14 15q7 1 9.5 23.5t-0.5 50.5l-99 1062h-6l-502 -1065q-44 -92 -52 -101q-7 -7 -15 -7q-10 0 -21.5 17t-42.5 77
q-26 50 -239 475q-19 39 -137.5 293.5t-133.5 290.5h-8l-82 -950q-2 -33 -2 -105q0 -23 15 -40.5t38 -22.5q44 -10 78 -10q17 0 17 -11q0 -18 -37 -18q-46 0 -118 3t-73 3q-4 0 -72 -3t-100 -3q-35 0 -35 18q0 11 21 11q30 0 61 6q31 5 49 34t22.5 52.5t9.5 76.5q1 5 1 7
l148 1335q3 37 22 37q18 0 31 -31l627 -1288l602 1286q15 33 30 33q19 0 25 -55z" />
    <glyph glyph-name="N" unicode="N" horiz-adv-x="1939" 
d="M393 1253l27 -981q3 -124 20.5 -174.5t59.5 -62.5q47 -12 102 -12q16 0 16 -13q0 -16 -36 -16q-52 0 -101.5 1.5t-80 3t-35.5 1.5t-36 -1.5t-76 -3t-85 -1.5q-33 0 -33 16q0 13 17 13q47 0 84 12q37 10 49 63.5t12 196.5l2 1173q0 58 5.5 80.5t17.5 22.5q7 0 19.5 -11
t29.5 -30.5t22 -24.5q62 -70 651 -702q108 -115 285 -309.5t207 -225.5l-23 1041q-2 102 -17.5 142t-61.5 52q-46 10 -101 10q-16 0 -16 15q0 14 41 14q55 0 132.5 -3t80.5 -3q4 0 64 3t110 3q37 0 37 -14q0 -15 -23 -15q-24 0 -49 -6q-49 -10 -62.5 -47t-13.5 -135
l-4 -1200q0 -51 -0.5 -79.5t-3 -43.5t-5.5 -18.5t-9 -3.5q-12 0 -40 24.5t-110 106.5q-21 18 -203.5 207t-330.5 348q-282 303 -535 587z" />
    <glyph glyph-name="O" unicode="O" horiz-adv-x="1873" 
d="M131 770q0 103 29 211t93.5 214.5t156 189.5t228.5 134.5t300 51.5q231 0 412.5 -91.5t287 -267.5t105.5 -409q0 -171 -59 -324.5t-163.5 -267t-259 -180t-335.5 -66.5q-162 0 -297.5 48.5t-225.5 128.5t-153 185.5t-91 217t-28 225.5zM326 827q0 -233 87 -413
t235.5 -275.5t332.5 -95.5q44 0 89.5 7.5t102.5 28t108 53t100.5 87.5t85 126t57.5 174t22 226q0 179 -51.5 325t-138.5 238.5t-198 142.5t-234 50q-130 0 -238 -43t-189 -125t-126 -211.5t-45 -294.5z" />
    <glyph glyph-name="P" unicode="P" horiz-adv-x="1314" 
d="M365 588v360q0 360 -5 443q-3 55 -21 80.5t-67 35.5q-24 6 -69 6q-17 0 -17 13q0 16 33 16q40 0 94.5 -1.5t93.5 -3t44 -1.5q16 0 110.5 3t147.5 3q256 0 381 -117q40 -38 71 -103t31 -140q0 -217 -142 -352.5t-362 -135.5q-33 0 -43 2q-22 0 -22 15q0 12 10.5 15t44.5 3
q149 0 251.5 96.5t102.5 237.5q0 199 -114 315q-103 105 -272 103h-9q-59 0 -88 -13q-17 -6 -17 -38v-842q0 -350 11 -445q5 -51 21.5 -78.5t58.5 -33.5q58 -8 92 -8q16 0 16 -13q0 -16 -33 -16q-50 0 -110 1.5t-100.5 3t-41.5 1.5t-37.5 -1.5t-84 -3t-74.5 -1.5
q-33 0 -33 16q0 13 16 13q26 0 62 8q28 5 40 32.5t19 79.5q11 95 11 445z" />
    <glyph glyph-name="Q" unicode="Q" horiz-adv-x="1884" 
d="M1597 -156l-344 191q-56 -30 -148 -50t-173 -20q-164 0 -300.5 48.5t-227.5 128.5t-154 185.5t-91 217t-28 225.5q0 103 29 211t93.5 214.5t156 189.5t228.5 134.5t300 51.5q231 0 412.5 -92t287 -267.5t105.5 -408.5q0 -103 -25 -201t-63.5 -171.5t-89 -138.5
t-96 -106.5t-89.5 -70.5l420 -217q470 -242 862 -242q85 0 195 20t209 60q24 8 29 8q12 0 12 -12t-17 -21q-311 -141 -649 -141q-184 0 -387.5 67t-456.5 207zM326 827q0 -233 87 -413t235.5 -275.5t332.5 -95.5q44 0 89.5 7.5t102.5 28t108 53t100.5 87.5t85 126t57.5 174
t22 226q0 179 -51.5 325t-138.5 238.5t-198 142.5t-234 50q-130 0 -238 -43t-189 -125t-126 -211.5t-45 -294.5z" />
    <glyph glyph-name="R" unicode="R" horiz-adv-x="1544" 
d="M365 588v360q0 360 -5 443q-3 55 -21 80.5t-67 35.5q-24 6 -69 6q-17 0 -17 13q0 16 33 16q41 0 96 -1.5t94.5 -3t41.5 -1.5q7 0 106 3t135 3q116 0 208.5 -18.5t166.5 -71.5q51 -37 96 -110.5t45 -167.5q0 -120 -57.5 -236t-189.5 -238q19 -24 93.5 -119.5t98.5 -126.5
t76 -95.5t87.5 -105t69.5 -77.5q120 -127 250 -147q39 -6 80 -6q7 0 13 -4t6 -9q0 -16 -49 -16h-146q-85 0 -132 8.5t-87 30.5q-39 21 -83.5 64.5t-73 79.5t-97.5 127q-5 6 -8 10t-7 9.5t-8 10.5q-47 62 -126 171t-97 132q-12 12 -26 12l-252 4q-15 0 -15 -16v-49
q0 -350 11 -445q5 -52 21 -79t58 -33q58 -8 93 -8q16 0 16 -13q0 -16 -33 -16q-50 0 -110 1.5t-100.5 3t-41.5 1.5h-14q-15 -1 -37 -2t-47 -2t-51 -1.5t-43 -0.5q-33 0 -33 16q0 13 16 13q26 0 62 8q28 5 40 32.5t19 79.5q11 95 11 445zM528 1440v-670q0 -16 15 -25
q23 -14 85.5 -23t129.5 -9q97 0 153 39q56 38 90.5 120t34.5 195q0 192 -94.5 301t-259.5 109q-94 0 -137 -13q-17 -7 -17 -24z" />
    <glyph glyph-name="S" unicode="S" horiz-adv-x="1167" 
d="M508 -35q-162 0 -275 55q-21 10 -25.5 22.5t-4.5 55.5q0 52 10 217q3 33 16 33q15 0 15 -22q0 -47 6 -76q22 -107 106 -158t197 -51q94 0 162.5 41.5t99.5 102t31 128.5q0 104 -50.5 181t-185.5 188l-92 76q-153 126 -209.5 228t-56.5 216q0 166 115 267.5t309 101.5
q101 0 190 -21q49 -10 72 -10q20 0 20 -14q0 -1 -2 -27t-4 -77t-2 -113q0 -47 -14 -47q-13 0 -16 26q-2 20 -10 53.5t-17 49.5q-5 10 -13 20.5t-28.5 27t-46.5 29t-70.5 22t-97.5 9.5q-109 0 -180.5 -64t-71.5 -173q0 -88 51 -158.5t199 -185.5l57 -46q173 -136 236 -243.5
t63 -237.5q0 -82 -40 -177.5t-134 -162.5q-124 -86 -309 -86z" />
    <glyph glyph-name="T" unicode="T" horiz-adv-x="1415" 
d="M801 1454v-866q0 -359 10 -445q5 -51 21.5 -78.5t58.5 -33.5q58 -8 92 -8q16 0 16 -13q0 -16 -32 -16q-50 0 -110 1.5t-100.5 3t-41.5 1.5q-3 0 -41 -1.5t-85.5 -3t-74.5 -1.5q-33 0 -33 16q0 13 17 13q25 0 61 8q28 5 40 32.5t19 79.5q11 95 11 445v866l-303 -4
q-96 -2 -140 -15.5t-69 -50.5q-23 -35 -35 -63q-8 -21 -21 -21q-10 0 -10 19q0 33 45 213q13 39 21 39q3 0 30.5 -11.5t59.5 -13.5q98 -10 162 -10h768q90 0 145 10q13 2 26 4.5t20.5 4t10.5 1.5q11 0 11 -24q0 -35 -3.5 -126.5t-3.5 -98.5q0 -27 -14 -27t-16 35l-2 22
q-5 52 -60 81t-192 32z" />
    <glyph glyph-name="U" unicode="U" horiz-adv-x="1699" 
d="M246 649v299q0 377 -4 443q-3 55 -21 80.5t-67 35.5q-24 6 -70 6q-16 0 -16 13q0 16 32 16q40 0 95 -1.5t95.5 -3t45.5 -1.5q4 0 85.5 3t117.5 3q32 0 32 -16q0 -13 -16 -13q-13 0 -51 -6q-40 -6 -56.5 -33t-19.5 -83q-4 -66 -4 -443v-286q0 -206 40 -320.5t114 -185.5
q70 -66 141.5 -89.5t167.5 -23.5q93 0 179 40t142 107q66 83 92.5 206.5t26.5 295.5v256q0 377 -4 443q-3 55 -21 80.5t-67 35.5q-24 6 -70 6q-16 0 -16 13q0 16 33 16q41 0 92 -1.5t86.5 -3t38.5 -1.5q1 0 68.5 3t103.5 3q33 0 33 -16q0 -13 -17 -13q-13 0 -51 -6
q-40 -9 -56.5 -35t-19.5 -81q-4 -66 -4 -443v-219q0 -94 -7 -170.5t-25.5 -161.5t-57.5 -156.5t-98 -123.5q-171 -152 -422 -152q-38 0 -78 4t-102.5 17t-126.5 45t-115 80q-84 81 -131 205.5t-47 332.5z" />
    <glyph glyph-name="V" unicode="V" horiz-adv-x="1519" 
d="M416 1292l393 -1048q87 200 245 611t193 525q19 59 19 78q0 34 -27 47q-25 8 -78 8q-22 0 -22 13q0 16 45 16q48 0 121.5 -3t78.5 -3l62 3q63 3 98 3t35 -14q0 -15 -25 -15q-61 0 -98 -24q-50 -33 -113 -193q-2 -5 -229 -555q-221 -528 -264 -620q-8 -18 -17 -37.5
t-14.5 -32t-11.5 -25.5t-9.5 -21t-8 -15.5t-7 -11.5t-6 -7.5t-6.5 -4.5t-6 -1q-17 0 -29 22t-45 105l-502 1256q-32 83 -61 112t-86 45q-31 8 -78 8q-16 0 -16 15q0 14 53 14q58 0 147.5 -3t92.5 -3t73.5 3t116.5 3q55 0 55 -14q0 -15 -20 -15q-55 0 -78 -10
q-27 -12 -27 -41q0 -25 56 -170z" />
    <glyph glyph-name="W" unicode="W" horiz-adv-x="2252" 
d="M1227 1440l407 -1164h8q14 47 144 469.5t172 575.5q22 84 22 131q0 30 -25 45.5t-91 15.5q-8 0 -13.5 4.5t-5.5 10.5q0 14 35 14q46 0 94 -1.5t79 -3t36 -1.5q1 0 64.5 3t101.5 3q29 0 29 -12q0 -17 -19 -17q-41 0 -70 -10q-42 -16 -70 -68t-63 -153
q-45 -130 -190.5 -578t-185.5 -563t-55 -145.5t-32 -30.5q-14 0 -26 21.5t-35 85.5l-401 1140h-4q-413 -1100 -428 -1138q-26 -69 -38 -89t-30 -20q-15 0 -28.5 29.5t-43.5 132.5l-364 1214q-24 79 -48 111.5t-65 48.5q-32 12 -92 12q-19 0 -19 15q0 14 33 14q63 0 152 -3
t90 -3q5 0 37 1.5t80.5 3t93.5 1.5q37 0 37 -14q0 -15 -21 -15q-55 0 -80 -12q-26 -13 -26 -49q0 -10 3.5 -29.5t8 -39t13.5 -57t14 -62.5q40 -170 274 -992h4l434 1170q22 59 32 76.5t20 17.5t20.5 -20.5t30.5 -75.5z" />
    <glyph glyph-name="X" unicode="X" horiz-adv-x="1421" 
d="M254 199l371 585l-328 551q-40 68 -75.5 107.5t-84.5 56.5q-46 14 -86 14q-18 0 -18 15q0 14 35 14q34 0 135 -3t104 -3t77 3t116 3q35 0 35 -14q0 -15 -19 -15q-39 0 -55 -6q-25 -8 -25 -34q0 -28 21 -68q142 -268 276 -490q47 68 166.5 259t134.5 223q21 47 21 73
q0 11 -10 22t-25 15q-20 6 -62 6q-18 0 -18 15q0 14 35 14q47 0 114 -3t68 -3q3 0 67 3t105 3q33 0 33 -14q0 -15 -23 -15q-38 0 -67 -10q-28 -9 -56 -34.5t-46.5 -50.5t-55.5 -81l-330 -495q10 -16 114 -191.5t202 -337.5t117 -186q29 -38 54 -59t66 -33q43 -12 72 -12
q16 0 16 -13q0 -16 -28 -16q-224 0 -328 4q-63 2 -63 16t12 17q11 4 15.5 17.5t-5.5 39.5q-138 249 -352 610l-320 -542q-26 -48 -26 -90q0 -15 9 -25.5t23 -13.5q24 -4 39 -4q17 0 17 -15q0 -14 -25 -14q-28 0 -109.5 3t-86.5 3q-3 0 -75 -3t-112 -3q-20 0 -20 14
q0 15 16 15q39 0 78 10q45 12 82 49t88 117z" />
    <glyph glyph-name="Y" unicode="Y" horiz-adv-x="1339" 
d="M592 348v176q0 52 -7 93t-15 63t-25 59q-11 25 -159.5 268.5t-201.5 321.5q-71 106 -139 152q-50 32 -88 32q-20 0 -20 15q0 14 26 14q23 0 112.5 -3t90.5 -3q4 0 31 1.5t66.5 3t74.5 1.5q27 0 27 -14q0 -2 -1.5 -4t-4.5 -4t-6 -3t-9 -3.5t-10 -4.5q-27 -13 -27 -36
q0 -28 27 -80q30 -53 191 -330.5t186 -317.5q25 56 158 289t182 314q34 54 34 104q0 49 -32 57q-31 10 -31 21q0 12 33 12q31 0 81.5 -3t53.5 -3t89.5 3t109.5 3q26 0 26 -12q0 -17 -26 -17q-49 0 -95 -28q-29 -18 -50 -39t-58 -66q-50 -60 -206 -321.5t-185 -329.5
q-15 -35 -22 -73.5t-8 -62.5t-1 -69v-176q0 -119 6 -205q7 -102 84 -112q58 -8 92 -8q17 0 17 -13q0 -16 -33 -16q-50 0 -110 1.5t-100.5 3t-41.5 1.5q-3 0 -41 -1.5t-85.5 -3t-74.5 -1.5q-33 0 -33 16q0 13 17 13q25 0 61 8q57 11 64 112q6 86 6 205z" />
    <glyph glyph-name="Z" unicode="Z" horiz-adv-x="1417" 
d="M377 82h557q150 0 218.5 24.5t104.5 75.5q32 49 41 111q7 33 19 33q9 0 12.5 -9t3.5 -38q0 -62 -41 -236q-9 -37 -17.5 -45t-43.5 -8q-169 0 -516.5 5t-528.5 5q-20 0 -28 3t-8 13q0 17 28 58q33 50 175.5 265t198.5 300t165.5 252.5t193.5 300.5t166 266h-444
q-218 0 -295 -41q-51 -27 -81.5 -74t-35.5 -88q-5 -36 -22 -36q-13 0 -13 26q0 23 41 273q5 38 21 38q5 0 29.5 -6.5t56.5 -7.5q146 -6 356 -6h572q41 0 41 -16q0 -12 -9 -25q-339 -538 -917 -1413z" />
    <glyph glyph-name="bracketleft" unicode="[" horiz-adv-x="737" 
d="M199 -221v1718q0 18 5.5 22.5t28.5 4.5h349q24 0 24 -15q0 -13 -35 -16q-165 -16 -223 -43q-14 -60 -14 -190v-1250q0 -130 14 -190q56 -27 221 -43q35 -3 35 -17t-24 -14h-349q-23 0 -27.5 5t-4.5 28z" />
    <glyph glyph-name="backslash" unicode="\" horiz-adv-x="1073" 
d="M1030 12l-61 -41q-14 -7 -23 9l-903 1452q-8 11 4 20l57 35q17 10 29 -8l897 -1438q14 -22 0 -29z" />
    <glyph glyph-name="bracketright" unicode="]" horiz-adv-x="737" 
d="M539 1491v-1718q0 -17 -6 -22t-29 -5h-348q-25 0 -25 14t35 17q165 16 223 43q14 60 14 190v1250q0 130 -14 190q-56 27 -221 43q-35 3 -35 16q0 15 25 15h348q23 0 28 -5t5 -28z" />
    <glyph glyph-name="asciicircum" unicode="^" horiz-adv-x="1044" 
d="M469 1538h106l408 -872h-111l-350 759l-350 -759h-111z" />
    <glyph glyph-name="underscore" unicode="_" horiz-adv-x="1024" 
d="M0 -154h1024v-102h-1024v102z" />
    <glyph glyph-name="grave" unicode="`" horiz-adv-x="1865" 
d="M1036 1700q-37 0 -370 121q-60 22 -60 34q0 10 23 17q84 24 123 39q27 10 32 10q4 0 7.5 -4t10 -13t13.5 -16q16 -16 80.5 -64.5t120.5 -84.5q7 -5 18 -11.5t16 -10t5 -7.5q0 -10 -19 -10z" />
    <glyph glyph-name="a" unicode="a" horiz-adv-x="1277" 
d="M168 186l424 1090q17 41 25.5 54t17.5 13q4 0 7 -1.5t6 -4.5t5.5 -6.5t5.5 -9.5l5.5 -11t6.5 -14.5t7 -15.5q13 -30 97 -236t186 -458t149 -363q23 -56 45.5 -93.5t42.5 -56.5t34 -26.5t32 -13.5q34 -10 71 -10q23 0 23 -15q0 -14 -41 -14q-160 0 -285 4q-58 3 -62 9
q-1 1 -1 3q0 7 12 13q30 12 16 47l-161 399q-5 10 -17 10h-416q-12 0 -18 -14l-102 -279q-27 -73 -27 -116q0 -47 61 -47h17q18 0 18 -15q0 -14 -26 -14q-24 0 -89.5 3t-72.5 3q-2 0 -70 -3t-112 -3q-35 0 -35 14q0 6 5 10.5t11 4.5q25 0 53 4q57 7 89.5 45.5t62.5 113.5z
M428 551h365q9 0 6 12l-178 477q-16 42 -31 0l-168 -477q-3 -12 6 -12z" />
    <glyph glyph-name="b" unicode="b" horiz-adv-x="1257" 
d="M317 500v307q0 320 -4 375q-3 49 -17.5 71.5t-55.5 28.5q-28 4 -62 4q-14 0 -14 10q0 15 29 15q36 0 85.5 -1t85 -2t37.5 -1q16 0 90 2t121 2q86 0 154.5 -19t109.5 -48t68 -66.5t37 -70.5t10 -63q0 -49 -14 -92.5t-44 -82.5t-55.5 -65.5t-68.5 -64.5q55 -16 108 -46.5
t101.5 -75t78 -107.5t29.5 -133q0 -75 -28 -143t-82 -123.5t-142.5 -88t-199.5 -32.5q-70 0 -156 6q-114 4 -117 4q-1 0 -11.5 -0.5t-28 -1t-33.5 -0.5q-74 -4 -109 -4q-29 0 -29 14q0 10 15 10q9 0 29.5 4t25.5 5q16 3 25 16t13 28.5t8 43.5q1 5 1 8q10 72 10 377z
M473 1229v-459q0 -15 12 -18q45 -9 111 -9q80 0 115 8t61 37q70 77 70 187q0 52 -15 100t-44 89.5t-79.5 66t-115.5 24.5q-53 0 -92 -8q-23 -6 -23 -18zM473 674v-96q0 -344 2 -371q5 -68 14 -90t48 -41q53 -25 157 -25q39 0 73.5 6t70.5 24t61.5 47t42 78t16.5 113
q0 33 -7.5 70.5t-25 82.5t-53.5 89t-86 76q-28 18 -54 26.5t-65.5 13.5t-41.5 5q-23 4 -142 4q-10 0 -10 -12z" />
    <glyph glyph-name="c" unicode="c" horiz-adv-x="1449" 
d="M926 -29q-199 0 -342.5 46.5t-251.5 140.5q-219 189 -219 516q0 67 16 140.5t63.5 167.5t122.5 167q195 186 549 186q136 0 262 -20q145 -26 185 -27q22 0 22 -18q0 -6 -1 -16.5t-3 -33t-4 -49.5q-1 -26 -2 -95.5t-2 -82.5q-3 -37 -21 -37q-14 0 -14 37q0 51 -20.5 98.5
t-55.5 75.5q-50 42 -144.5 69.5t-209.5 27.5q-276 0 -405 -121q-93 -86 -127.5 -196.5t-34.5 -258.5q0 -125 48 -239.5t131.5 -201.5t206 -138.5t263.5 -51.5q113 0 180 16t117 66q26 26 45 70t25 76q3 15 6 19.5t12 4.5q6 0 11 -7.5t5 -16.5q0 -13 -15.5 -99t-27.5 -125
q-8 -25 -15 -33.5t-30 -17.5q-100 -39 -325 -39z" />
    <glyph glyph-name="d" unicode="d" horiz-adv-x="1656" 
d="M317 500v307q0 320 -4 375q-3 48 -17 69t-56 27q-28 4 -62 4q-4 0 -9 5t-5 9q0 15 29 15q36 0 85.5 -1t85 -2t37.5 -1q6 0 45 1t94.5 2t102.5 1h35h87t94.5 -3.5t105.5 -10.5t103.5 -21.5t107 -35.5t98 -53.5t92.5 -74.5q176 -176 176 -442q0 -153 -55 -278.5
t-139 -211.5q-195 -200 -547 -200q-57 0 -252 10q-130 10 -148 10q-1 0 -11.5 -0.5t-28 -1t-33.5 -0.5q-74 -4 -109 -4q-29 0 -29 14q0 15 15 15q23 0 55 8q17 4 26.5 18t12.5 27t8 47q10 72 10 377zM481 1200v-582q0 -345 2 -378q5 -104 21 -125q49 -70 299 -70
q253 0 422 158q68 64 104.5 176t36.5 237q0 149 -50 258t-120 179q-61 62 -130.5 102.5t-147 59.5t-146 25.5t-160.5 6.5q-76 0 -108 -12q-23 -9 -23 -35z" />
    <glyph glyph-name="e" unicode="e" horiz-adv-x="1128" 
d="M317 500v307q0 320 -4 375q-3 48 -17 69t-56 27q-28 4 -62 4q-4 0 -9 5t-5 9q0 15 29 15q36 0 85.5 -1t85 -2t37.5 -1h430q20 1 82 10q2 1 11 4.5t14 3.5q8 0 8 -16q0 -4 -6 -29t-8 -53q0 -4 -4 -53.5t-6 -61.5q-4 -18 -17 -18q-14 0 -14 22q0 37 -10 62
q-9 23 -33.5 33.5t-95.5 19.5q-47 6 -260 6q-11 0 -11 -18v-474q0 -18 11 -18q260 0 301 4q69 6 88 25q22 22 26 22q11 0 11 -14q0 -3 -3 -15t-6.5 -34t-5.5 -47q-8 -70 -8 -113q0 -33 -16 -33q-13 0 -13 17q0 34 -8 57q-5 21 -24.5 34t-67.5 19q-65 8 -272 8q-13 0 -13 -12
v-145v-297q3 -88 42.5 -114t172.5 -26q131 0 181 19q36 15 55 42.5t26 78.5q5 26 19 26q12 0 12 -26q0 -12 -8.5 -77.5t-15.5 -90.5q-8 -32 -26 -38.5t-75 -6.5q-91 0 -313 6q-76 4 -150 4q-38 0 -77 -2q-70 -4 -105 -4q-29 0 -29 14q0 15 15 15q9 0 30.5 4t24.5 4
q17 3 26.5 17.5t12.5 27.5t8 47q10 72 10 377z" />
    <glyph glyph-name="f" unicode="f" 
d="M317 500v307q0 320 -4 375q-3 48 -17 69t-56 27q-28 4 -62 4q-4 0 -9 5t-5 9q0 15 29 15q36 0 84.5 -1t83 -2t36.5 -1q6 0 81 -0.5t151 -0.5h148.5t86.5 1q72 4 82 8q5 1 13.5 5.5t11.5 4.5q12 0 12 -16q0 -5 -2 -14.5t-5.5 -28t-6.5 -39.5q-1 -5 -3.5 -54t-4.5 -61
q-5 -18 -17 -18q-14 0 -14 20q0 27 -17 66q-9 20 -41.5 35.5t-80.5 15.5l-295 4q-15 0 -15 -18v-476q0 -16 13 -16l245 2q57 0 82 2q64 6 84 31q14 18 23 18q10 0 10 -14q0 -3 -3 -15t-7 -34t-6 -47q-7 -61 -7 -117q0 -35 -16 -35q-12 0 -12 16q-5 44 -13 64q-14 44 -92 55
q-30 4 -288 4q-13 0 -13 -16v-139q0 -309 8 -377q5 -43 18.5 -64.5t47.5 -27.5q54 -8 82 -8q14 0 14 -15q0 -14 -28 -14q-44 0 -98.5 1.5t-90.5 3t-37 1.5q-3 0 -36.5 -1.5t-75.5 -3t-66 -1.5q-29 0 -29 14q0 15 15 15q9 0 30.5 4t24.5 4q17 3 26.5 17.5t12.5 27.5t8 47
q10 72 10 377z" />
    <glyph glyph-name="g" unicode="g" horiz-adv-x="1554" 
d="M1165 137v301q0 109 -12 137.5t-66 38.5q-28 4 -61 4q-4 0 -9 5t-5 10q0 14 28 14q36 0 87 -1t87.5 -2t38.5 -1t35 1t75.5 2t66.5 1q28 0 28 -14q0 -5 -5 -10t-9 -5q-25 0 -45 -4q-36 -6 -50.5 -27.5t-17.5 -68.5q-2 -55 -2 -180v-195q0 -60 -3.5 -72.5t-20.5 -21.5
q-79 -40 -185 -59t-198 -19q-373 0 -594 187q-90 75 -152.5 208t-62.5 287q0 197 85 345.5t216 226.5q182 110 479 110q76 0 157 -9.5t119 -18.5q88 -19 146 -19q22 0 22 -16q0 -6 -2.5 -32.5t-5 -81.5t-2.5 -132q0 -37 -20 -37q-13 0 -13 27q-6 64 -41 114
q-38 56 -145.5 96t-269.5 40q-105 0 -195 -21.5t-182 -91.5q-81 -62 -129.5 -176.5t-48.5 -261.5q0 -87 20 -169.5t52 -143t61.5 -102t56.5 -67.5q196 -182 461 -182q137 0 194 33q14 7 20.5 12t11.5 15t5 26z" />
    <glyph glyph-name="h" unicode="h" horiz-adv-x="1734" 
d="M1417 807v-307q0 -287 10 -377q3 -24 5.5 -35.5t9 -25.5t19 -21t32.5 -10q50 -8 80 -8q16 0 16 -15q0 -14 -30 -14q-43 0 -96.5 1.5t-89.5 3t-38 1.5t-36 -1.5t-76.5 -3t-65.5 -1.5q-29 0 -29 14q0 15 15 15q21 0 53 8q25 5 34.5 27t14.5 67q8 72 8 371v174q0 10 -10 10
h-751q-11 0 -11 -10v-174q0 -301 8 -373q5 -45 17.5 -66t48.5 -26q54 -8 82 -8q14 0 14 -15q0 -14 -28 -14q-44 0 -98 1.5t-89.5 3t-36.5 1.5q-3 0 -37 -1.5t-76.5 -3t-66.5 -1.5q-29 0 -29 14q0 15 15 15q23 0 55 8q17 4 26.5 18t12.5 27t8 47q10 72 10 377v307
q0 320 -4 375q-3 48 -17 69t-56 27q-28 4 -62 4q-4 0 -9 5t-5 9q0 15 29 15q36 0 85 -1t84 -2t37 -1t35.5 1t76.5 2t67 1q28 0 28 -15q0 -4 -5 -9t-9 -5q-25 0 -45 -4q-35 -7 -48 -27.5t-16 -68.5q-2 -55 -2 -379v-37q0 -10 11 -10h751q4 0 5.5 0.5t3 2.5t1.5 7v37
q0 269 -4 379q-3 49 -16.5 69.5t-54.5 26.5q-28 4 -62 4q-6 0 -10 4.5t-4 9.5q0 15 28 15q35 0 84 -1t84.5 -2t36.5 -1q3 0 36.5 1t76 2t65.5 1q31 0 31 -15q0 -5 -5 -9.5t-11 -4.5q-22 0 -45 -4q-34 -7 -46.5 -27.5t-15.5 -68.5q-4 -55 -4 -375z" />
    <glyph glyph-name="i" unicode="i" horiz-adv-x="796" 
d="M481 807v-307q0 -305 8 -377q5 -45 17.5 -66t48.5 -26q54 -8 82 -8q14 0 14 -15q0 -14 -28 -14q-44 0 -98.5 1.5t-90.5 3t-37 1.5q-3 0 -36.5 -1.5t-75.5 -3t-66 -1.5q-29 0 -29 14q0 15 15 15q23 0 55 8q24 5 33 26t14 66q10 90 10 377v307q0 320 -4 375
q-3 45 -15.5 66.5t-41.5 27.5q-30 6 -55 6q-6 0 -10.5 4.5t-4.5 9.5q0 15 29 15q26 0 69 -1t76.5 -2t36.5 -1q2 0 36 1t77.5 2t67.5 1q28 0 28 -15q0 -4 -5 -9t-9 -5q-25 0 -45 -4q-35 -7 -48 -27.5t-16 -68.5q-2 -55 -2 -375z" />
    <glyph glyph-name="j" unicode="j" horiz-adv-x="755" 
d="M481 807v-418q0 -225 -10.5 -325.5t-48.5 -188.5q-57 -129 -264 -266q-46 -29 -74 -45l-4 -1q-4 -1 -8 -1q-13 0 -13 10q0 15 23 29q23 12 63 47q40 40 63.5 70.5t47 80.5t35 114t19 160t7.5 230v504q0 320 -4 375q-3 48 -17 69t-56 27q-28 4 -62 4q-4 0 -9 5t-5 9
q0 15 29 15q36 0 85.5 -1t85 -2t37.5 -1t35 1t75.5 2t66.5 1q28 0 28 -15q0 -4 -5 -9t-9 -5q-25 0 -45 -4q-35 -7 -48 -27.5t-16 -68.5q-2 -55 -2 -375z" />
    <glyph glyph-name="k" unicode="k" horiz-adv-x="1363" 
d="M317 500v307q0 320 -4 375q-3 48 -17 69t-56 27q-28 4 -62 4q-4 0 -9 5t-5 9q0 15 29 15q36 0 84 -1t82 -2t36 -1q3 0 75 2t103 2q29 0 29 -15q0 -5 -4 -9.5t-10 -4.5q-22 0 -45 -4q-34 -7 -47.5 -28t-16.5 -68q-4 -55 -4 -375v-105h8q13 14 101.5 103t189 189.5
l127.5 127.5l9 9q31 31 46 46.5t29 36t14 33.5q0 32 -22 35q-16 3 -16 16t20 13q18 0 65.5 -2t69.5 -2q1 0 74 2t100 2t27 -13q0 -14 -19 -14q-40 0 -100 -24q-18 -8 -35 -18t-28 -17t-29.5 -23.5t-26.5 -23.5t-33.5 -31.5t-35.5 -34.5q-41 -38 -203.5 -194t-188.5 -185
q37 -40 240 -242t256 -251q17 -15 45.5 -40.5t39 -34.5t30.5 -26.5t27.5 -23.5t22.5 -17.5t22.5 -15.5t20.5 -11.5t24 -12.5t26 -11q63 -24 111 -24q9 0 15.5 -4.5t6.5 -10.5q0 -14 -39 -14h-92q-84 0 -125 4q-44 4 -84.5 20.5t-61 31t-73.5 54.5q-57 44 -265 261.5
t-282 304.5h-8v-170q0 -305 8 -377q5 -44 18.5 -65t51.5 -27q50 -8 70 -8q14 0 14 -15q0 -14 -29 -14q-39 0 -88 1.5t-84 3t-39 1.5q-2 0 -73.5 -3t-104.5 -3q-29 0 -29 14q0 15 15 15q23 0 55 8q17 4 26.5 18t12.5 27t8 47q10 72 10 377z" />
    <glyph glyph-name="l" unicode="l" 
d="M481 807v-311q0 -206 7 -288t30 -104q41 -41 240 -41q87 0 137.5 9.5t79.5 44.5q33 39 43 98q4 23 18 23q13 0 13 -27q0 -17 -9 -78.5t-18 -95.5q-9 -32 -27 -39.5t-88 -7.5q-187 0 -313 6q-164 4 -197 4q-38 0 -73 -2q-74 -4 -105 -4q-29 0 -29 14q0 15 15 15q23 0 55 8
q17 4 26.5 18t12.5 27t8 47q10 72 10 377v307q0 320 -4 375q-3 48 -17 69t-56 27q-28 4 -62 4q-4 0 -9 5t-5 9q0 15 29 15q36 0 84.5 -1t83 -2t36.5 -1t40.5 1t86.5 2t72 1q29 0 29 -15q0 -4 -5 -8t-10 -4q-19 0 -59 -4q-38 -7 -51.5 -28.5t-16.5 -69.5q-2 -55 -2 -375z" />
    <glyph glyph-name="m" unicode="m" horiz-adv-x="1892" 
d="M1544 1288l123 -1071q3 -30 7 -51.5t13 -50.5t27.5 -49t44.5 -29q54 -17 117 -17q14 0 14 -12q0 -16 -37 -16q-219 0 -307 8q-51 5 -51 18q0 12 12 15q16 3 9 61l-86 885h-5l-434 -889q-28 -58 -39.5 -75t-23.5 -17t-23 15t-39 65q-146 267 -211 403q-19 39 -73 149.5
t-98 202t-58 123.5h-8l-70 -786q-2 -27 -2 -88q0 -39 43 -49q39 -10 70 -10q5 0 9.5 -4.5t4.5 -8.5q0 -16 -33 -16q-41 0 -104 3l-64 3q-4 0 -63 -3t-88 -3q-31 0 -31 16q0 5 6 9t13 4q13 0 53 6q9 1 16 4.5t13 7t10.5 10.5t8 12t6.5 15l4.5 15t3.5 18t2.5 18t2 19.5
t2.5 19.5l131 1137q3 30 21 30q24 0 37 -26l545 -1082l524 1080q14 28 29 28q20 0 26 -47z" />
    <glyph glyph-name="n" unicode="n" horiz-adv-x="1705" 
d="M373 1053l20 -822q3 -106 18 -147.5t52 -50.5q41 -10 90 -10q14 0 14 -15q0 -14 -32 -14q-45 0 -89 1.5t-71 3t-31 1.5q-5 0 -32 -1.5t-66.5 -3t-75.5 -1.5q-29 0 -29 14q0 6 4.5 10.5t10.5 4.5q39 0 73 10q33 9 42.5 52t9.5 165v997q0 88 24 88q17 0 70 -53
q9 -9 91.5 -96t219 -230t258.5 -268q105 -109 261 -273.5t165 -174.5l-18 872q-2 88 -15 121.5t-53 40.5q-44 8 -88 8q-14 0 -14 16q0 13 35 13q49 0 117.5 -2t70.5 -2q3 0 56.5 2t97.5 2q32 0 32 -13q0 -5 -6 -10.5t-14 -5.5q-23 0 -43 -4q-42 -9 -53 -38.5t-11 -113.5
l-4 -1020q0 -45 -0.5 -68t-2 -36.5t-4 -16.5t-7.5 -3q-14 0 -38.5 19t-98.5 87q-11 10 -84 81.5t-186 185.5t-199 204q-391 410 -467 494z" />
    <glyph glyph-name="o" unicode="o" horiz-adv-x="1654" 
d="M113 655q0 87 25.5 178.5t83 182t138.5 161t202.5 114.5t264.5 44q204 0 364.5 -77.5t254.5 -227.5t94 -348q0 -145 -52.5 -275t-145.5 -226.5t-229.5 -153t-295.5 -56.5q-143 0 -262.5 41t-199.5 109.5t-136 158t-81 184t-25 191.5zM299 702q0 -149 43 -273.5
t119 -208.5t180.5 -130.5t226.5 -46.5q38 0 78 6t89.5 23t93 44t86 73.5t73 106t49.5 146.5t19 191q0 152 -44 275t-119 201t-171.5 119.5t-204.5 41.5q-114 0 -208 -36t-163.5 -105.5t-108 -178.5t-38.5 -248z" />
    <glyph glyph-name="p" unicode="p" horiz-adv-x="1200" 
d="M317 500v307q0 320 -4 375q-3 48 -17 69t-56 27q-28 4 -62 4q-4 0 -9 5t-5 9q0 15 29 15q36 0 84.5 -1t84 -2t39.5 -1q14 0 112 2t144 2q230 0 344 -99q36 -33 63.5 -88.5t27.5 -119.5q0 -187 -128.5 -301.5t-336.5 -114.5q-42 0 -52 2q-6 0 -12 5t-6 11q0 11 10 15t37 4
q145 0 239.5 80.5t94.5 199.5q0 164 -102 264q-15 15 -31.5 27.5t-33 21t-31 15t-31.5 10t-28.5 6t-28 3.5t-23.5 1h-21h-16q-46 0 -100 -12q-15 -3 -15 -33v-708q0 -305 8 -377q5 -43 19.5 -64.5t52.5 -27.5q50 -8 80 -8q14 0 14 -15q0 -14 -28 -14q-43 0 -97.5 1.5t-91 3
t-37.5 1.5t-34.5 -1.5t-76.5 -3t-67 -1.5q-29 0 -29 14q0 15 15 15q23 0 55 8q17 4 26.5 18t12.5 27t8 47q10 72 10 377z" />
    <glyph glyph-name="q" unicode="q" horiz-adv-x="1658" 
d="M1401 -137l-299 162q-48 -24 -129.5 -39t-155.5 -15q-121 0 -225 28.5t-180 79t-134.5 116.5t-94.5 143.5t-54 157t-18 159.5q0 87 25.5 178.5t83 182t138.5 161t202.5 114.5t264.5 44q152 0 283 -46t226 -129t149.5 -206.5t54.5 -271.5q0 -108 -32 -208t-83 -172.5
t-101.5 -122.5t-100.5 -81l368 -182q413 -205 756 -205q163 0 352 68q18 6 27 6q10 0 10 -12q0 -13 -14 -19q-274 -121 -574 -121q-321 0 -745 230zM295 702q0 -148 43 -272t119 -208.5t181 -131.5t226 -47q38 0 78 6t89.5 23.5t93.5 44.5t87 73.5t73.5 106t49.5 146
t19 190.5q0 151 -44.5 273.5t-119.5 201t-172 120.5t-205 42q-234 0 -376 -145.5t-142 -422.5z" />
    <glyph glyph-name="r" unicode="r" horiz-adv-x="1376" 
d="M317 500v307q0 320 -4 375q-3 48 -17 69t-56 27q-28 4 -62 4q-4 0 -9 5t-5 9q0 15 29 15q36 0 86.5 -1t87.5 -2t39 -1q4 0 98.5 2t126.5 2q228 0 336 -76q46 -34 85.5 -96t39.5 -142q0 -102 -50.5 -198t-171.5 -199q269 -337 377 -450q106 -108 201 -121q35 -6 63 -6
q7 0 12 -5t5 -10q0 -14 -43 -14h-113q-75 0 -116 8t-76 27q-53 28 -103.5 83t-142.5 173q-41 51 -109.5 142t-85.5 112q-10 10 -24 10l-230 4q-12 0 -12 -14v-41q0 -303 8 -375q5 -43 19.5 -64.5t52.5 -27.5q50 -8 80 -8q14 0 14 -15q0 -14 -29 -14q-43 0 -96 1.5t-88.5 3
t-36.5 1.5h-13q-14 -1 -35 -2t-44 -2t-47 -1.5t-39 -0.5q-29 0 -29 14q0 15 15 15q23 0 55 8q17 4 26.5 18t12.5 27t8 47q10 72 10 377zM473 1219v-560q0 -13 12 -22q20 -11 80 -19t119 -8q89 0 135 31q48 33 78.5 102t30.5 164q0 162 -83 252t-229 90q-84 0 -129 -10
q-14 -7 -14 -20z" />
    <glyph glyph-name="s" unicode="s" horiz-adv-x="1073" 
d="M428 -29q-163 0 -262 47q-19 9 -23 19.5t-4 46.5q0 38 2 75t5.5 71.5t3.5 37.5q0 29 14 29q16 0 16 -21q0 -38 6 -63q14 -60 60.5 -100.5t103 -56t121.5 -15.5q129 0 199.5 64.5t70.5 166.5q0 46 -11.5 82t-43.5 73t-68 67t-104 81l-82 62q-142 106 -200 192.5t-58 180.5
q0 152 109 239.5t290 87.5q101 0 187 -20q35 -8 63 -8q19 0 19 -13l-2 -22q-2 -22 -4 -65.5t-2 -96.5q0 -39 -15 -39q-13 0 -16 23q-5 46 -27 86q-6 10 -19.5 22t-39.5 28t-72 26t-102 10q-103 0 -171.5 -50t-68.5 -139q0 -82 49 -142t185 -153l51 -34q161 -110 228 -207.5
t67 -212.5q0 -188 -168 -297q-96 -62 -287 -62z" />
    <glyph glyph-name="t" unicode="t" horiz-adv-x="1249" 
d="M711 1231v-731q0 -305 8 -377q5 -44 18 -65t51 -27q50 -8 82 -8q15 0 15 -15q0 -14 -29 -14q-43 0 -96 1.5t-89 3t-38 1.5t-38 -1.5t-81 -3t-68 -1.5q-28 0 -28 14q0 12 14 12q17 0 53 9q26 6 37.5 28.5t16.5 65.5q8 72 8 377v731l-260 -4q-85 -2 -124 -13.5t-59 -42.5
q-9 -14 -14.5 -24.5t-8.5 -19t-5 -11.5q-5 -16 -19 -16q-4 0 -8 3.5t-4 10.5q0 12 17.5 93t21.5 96q2 9 8 20.5t10 11.5t28 -8.5t52 -11.5q68 -8 142 -8h680q71 0 129 8q11 2 23 4t18.5 3t9.5 1q8 0 8 -20q0 -31 -3 -112t-3 -87q0 -10 -5.5 -16.5t-11.5 -6.5q-12 0 -14 31
l-2 18q-5 45 -51 69.5t-166 27.5z" />
    <glyph glyph-name="u" unicode="u" horiz-adv-x="1499" 
d="M225 551v256q0 320 -4 375q-3 46 -18 68t-56 28q-28 4 -61 4q-4 0 -9 5t-5 9q0 15 28 15q36 0 84 -1t83 -2t40 -1q3 0 77 2t105 2t31 -15q0 -5 -5 -9.5t-11 -4.5q-22 0 -45 -4q-33 -6 -46 -28t-16 -68q-4 -55 -4 -375v-244q0 -176 34 -272t99 -154q62 -56 123 -75
t146 -19q82 0 157 33.5t121 89.5q59 70 81 172.5t22 249.5v219q0 237 -5 375q-2 46 -16 68t-55 28q-28 4 -62 4q-6 0 -10 4.5t-4 9.5q0 15 29 15q35 0 81 -1t78.5 -2t34.5 -1q1 0 60.5 2t91.5 2q28 0 28 -15q0 -5 -4 -9.5t-10 -4.5q-22 0 -45 -4q-35 -7 -47.5 -28.5
t-15.5 -67.5q-2 -27 -2 -375v-186q0 -170 -35.5 -304.5t-132.5 -218.5q-147 -127 -377 -127q-244 0 -375 123q-75 70 -116.5 175.5t-41.5 281.5z" />
    <glyph glyph-name="v" unicode="v" horiz-adv-x="1337" 
d="M373 1098l340 -877q77 173 213 515.5t166 437.5q16 54 16 65q0 29 -25 37q-20 6 -61 6q-8 0 -14.5 4t-6.5 10q0 15 41 15q42 0 107 -2t70 -2q3 0 27.5 1t57.5 2t56 1q29 0 29 -13q0 -16 -21 -16q-53 0 -86 -20q-15 -10 -27 -22t-31.5 -47t-41.5 -91q-42 -103 -201 -471
q-41 -94 -96 -221t-86 -198.5t-49 -109.5q-53 -112 -63 -123q-7 -8 -15 -8q-15 0 -28 21t-40 86l-442 1067q-30 71 -54.5 95.5t-70.5 35.5q-29 6 -70 6q-14 0 -14 16q0 13 47 13q51 0 129 -2t82 -2q3 0 65 2t103 2q49 0 49 -13q0 -16 -18 -16q-45 0 -66 -8q-20 -9 -20 -31
q0 -18 49 -145z" />
    <glyph glyph-name="w" unicode="w" horiz-adv-x="1982" 
d="M1085 1225l353 -973h8q237 753 270 870q21 77 21 109q0 26 -20 38.5t-77 12.5q-7 0 -11.5 5.5t-4.5 10.5q0 13 31 13q40 0 82.5 -1t69.5 -2t32 -1q1 0 57 2t89 2q24 0 24 -11q0 -18 -16 -18q-35 0 -62 -8q-36 -12 -60 -55t-56 -129q-39 -107 -166 -488t-164 -481
q-35 -97 -49 -123.5t-29 -26.5q-26 0 -59 90l-353 955q-27 -67 -180.5 -466.5t-189.5 -486.5q-23 -55 -36 -73.5t-28 -18.5q-14 0 -28.5 26.5t-40.5 111.5l-320 1032q-22 68 -40 93.5t-54 37.5q-31 10 -82 10q-16 0 -16 16q0 13 28 13q41 0 90 -1t83.5 -2t39.5 -1t34 1t72 2
t83 1q32 0 32 -13q0 -7 -5.5 -11.5t-12.5 -4.5q-44 0 -64 -10q-24 -8 -24 -37q0 -25 35 -162q21 -81 119 -423t116 -398h4l377 975q31 80 49 80q17 0 49 -82z" />
    <glyph glyph-name="x" unicode="x" horiz-adv-x="1251" 
d="M221 168l324 500l-287 467q-36 59 -65.5 91t-71.5 44q-43 12 -76 12q-7 0 -11.5 5.5t-4.5 10.5q0 13 30 13t119.5 -2t91.5 -2t71 2t105 2q31 0 31 -13q0 -16 -16 -16q-35 0 -49 -4q-23 -3 -23 -27q0 -23 19 -57q163 -295 237 -412q46 66 147.5 223.5t112.5 182.5
q19 34 19 61q0 19 -31 29q-18 4 -49 4q-7 0 -12 5t-5 11q0 13 31 13q40 0 99 -2t61 -2t58.5 2t92.5 2q29 0 29 -13q0 -5 -5 -10.5t-13 -5.5q-35 0 -62 -8q-35 -11 -63 -41.5t-72 -95.5l-289 -422q2 -3 180 -290.5t201 -315.5q18 -22 28.5 -33.5t30 -23.5t44.5 -19
q42 -10 61 -10q14 0 14 -15q0 -14 -24 -14q-197 0 -295 4q-55 2 -55 14t10 15q10 2 15 14.5t-5 34.5q-179 311 -305 514l-277 -457q-22 -40 -22 -78q0 -21 29 -28q20 -4 32 -4q7 0 12 -5.5t5 -11.5q0 -12 -23 -12q-25 0 -99 3t-79 3q-1 0 -65 -3t-99 -3q-16 0 -16 12
q0 17 14 17q23 0 68 10q40 11 72.5 40t74.5 95z" />
    <glyph glyph-name="y" unicode="y" horiz-adv-x="1179" 
d="M522 297v149q0 67 -8.5 103t-30.5 76q-10 20 -141.5 227.5t-177.5 277.5q-53 81 -119 127q-42 25 -76 25q-7 0 -12.5 5t-5.5 11q0 13 22 13q21 0 99.5 -2t79.5 -2q3 0 28 1t60.5 2t66.5 1q25 0 25 -13q0 -7 -29 -18q-22 -9 -22 -29q0 -21 24 -67l328 -543q16 33 81 143.5
t135.5 228.5t78.5 132q30 51 30 90q0 37 -28 45q-27 7 -27 20q0 11 29 11q28 0 75 -2t50 -2t79.5 2t96.5 2q22 0 22 -11q0 -7 -6 -12.5t-16 -5.5q-44 0 -84 -22q-24 -14 -40.5 -30t-49.5 -56q-42 -49 -181 -270.5t-169 -282.5q-9 -17 -14.5 -35t-7 -38t-2 -32.5t0 -36.5
t0.5 -33v-149q0 -102 6 -174q3 -42 18 -64t52 -28q50 -8 82 -8q14 0 14 -15q0 -14 -29 -14q-44 0 -98 1.5t-90.5 3t-38.5 1.5t-35.5 -1.5t-75.5 -3t-65 -1.5q-29 0 -29 14q0 15 15 15q21 0 53 8q47 10 53 92q4 72 4 174z" />
    <glyph glyph-name="z" unicode="z" horiz-adv-x="1247" 
d="M352 76h479q132 0 189 19t92 61q21 27 37 94q7 26 20 26q8 0 11.5 -7.5t3.5 -30.5q0 -68 -37 -201q-8 -32 -15 -38.5t-38 -6.5q-149 0 -456 4t-466 4q-33 0 -33 14q0 18 25 54q520 753 784 1165h-381q-71 0 -100 -0.5t-79.5 -7.5t-76.5 -21q-44 -23 -70.5 -62.5
t-31.5 -74.5q-5 -31 -25 -31q-10 0 -10 23q0 35 37 231q3 33 16 33q5 0 27 -5.5t49 -6.5q115 -4 315 -4h504q37 0 37 -15q0 -18 -10 -30q-365 -559 -797 -1186z" />
    <glyph glyph-name="braceleft" unicode="{" horiz-adv-x="737" 
d="M274 715q36 -19 69.5 -62t49.5 -100q14 -54 17.5 -112t3.5 -195q0 -400 153 -463q45 -16 45 -27q0 -10 -37 -10q-38 0 -98.5 33.5t-111.5 103.5q-32 44 -52 89.5t-36.5 143t-16.5 234.5q0 30 7 107t7 112q0 44 -14 66q-9 16 -30 26.5t-36 14t-55 10.5q-17 3 -20.5 5.5
t-3.5 10.5q0 10 4 14t20 5q46 3 68 7t41.5 18t26 40.5t6.5 73.5q0 41 -10.5 119.5t-10.5 99.5q0 144 32.5 222t98.5 139q44 39 100 61.5t93 22.5q26 0 26 -11q0 -6 -5.5 -8.5t-26.5 -9.5q-22 -6 -47 -22t-53 -45t-46 -78.5t-18 -110.5q0 -33 0.5 -98t0 -90t-2 -65t-5 -66
t-10.5 -50q-13 -51 -51 -96.5t-72 -58.5z" />
    <glyph glyph-name="bar" unicode="|" horiz-adv-x="1044" 
d="M578 -512h-111v2048h111v-2048z" />
    <glyph glyph-name="braceright" unicode="}" horiz-adv-x="737" 
d="M463 715q-34 13 -72 58.5t-51 96.5q-7 24 -10.5 50.5t-5 65t-1.5 66t0.5 88.5t0.5 99q0 61 -18.5 110.5t-46.5 78.5t-52.5 45t-46.5 22q-31 10 -32 12t-1 4q0 13 27 13q37 0 92.5 -22.5t99.5 -61.5q66 -61 98.5 -139t32.5 -222q0 -23 -10.5 -103.5t-10 -140.5t22.5 -81
q11 -11 23.5 -17.5t27 -9.5t24 -4t25 -1.5t19.5 -0.5q16 -1 20.5 -5t4.5 -14q0 -8 -4 -10.5t-21 -5.5q-40 -7 -55 -10.5t-36 -14t-30 -26.5q-15 -24 -15 -73t7.5 -116t7.5 -96q0 -197 -27.5 -297.5t-76.5 -169.5q-51 -70 -112 -103.5t-99 -33.5q-37 0 -37 8t8.5 13.5
t36.5 15.5q154 55 154 463v67.5v60.5t1 47t3 48t6 39.5t10 44.5q16 57 49.5 100t69.5 62z" />
    <glyph glyph-name="asciitilde" unicode="~" horiz-adv-x="1044" 
d="M225 412l-100 -2q-3 121 50.5 182t143.5 61q48 0 94.5 -15t129.5 -54q6 -3 27.5 -13.5t28 -13t24.5 -11t25 -11t21.5 -7.5t23 -7t19.5 -3.5t21 -1.5q81 -3 84 135h101q6 -128 -48 -185.5t-141 -57.5q-47 0 -97 15.5t-128 53.5l-24 12l-24 12t-21.5 10.5t-22.5 10t-19.5 8
t-20.5 7.5t-19 5t-20 4t-18 1q-87 0 -90 -135z" />
    <glyph glyph-name="uni00A0" unicode="&#xa0;" horiz-adv-x="665" 
 />
    <glyph glyph-name="exclamdown" unicode="&#xa1;" horiz-adv-x="655" 
d="M332 1571q50 0 76 -32.5t26 -72.5q0 -38 -26.5 -71t-77.5 -33q-45 0 -75 27t-30 71q0 47 30 79t77 32zM354 1114l33 -545q0 -3 2.5 -44.5t5 -88t6 -99t8.5 -95t9 -60.5q8 -32 8 -39q0 -11 -10 -28q-22 -37 -66 -78t-86 -62q-20 -10 -31 -10q-12 0 -12 21q0 4 5.5 39
t13.5 99.5t12 131.5q0 3 11.5 227t22.5 437t13 235q5 66 25 66q15 0 21 -23t9 -84z" />
    <glyph glyph-name="cent" unicode="&#xa2;" horiz-adv-x="1169" 
d="M745 1223l-92 -889q70 -4 101 -4q118 0 182 32.5t84 124.5q6 31 18 31q13 0 13 -24q0 -11 -10.5 -86t-16.5 -103q-5 -18 -10 -25t-17 -10q-118 -32 -272 -32q-57 0 -88 2l-29 -277q-3 -19 -18 -22l-47 -11q-10 -3 -15.5 0.5t-3.5 12.5l37 311q-192 35 -314 173.5
t-122 352.5q0 131 50.5 230.5t109.5 150.5q82 69 171.5 100t225.5 37l23 205q3 15 20 19l41 8q11 2 16 -1.5t4 -10.5l-26 -222q147 0 282 -51q10 -6 12.5 -10.5t2.5 -17.5q0 -95 -13 -189q-3 -24 -16 -24q-10 0 -10 24q-8 74 -41 115q-24 27 -86 51.5t-146 28.5zM575 356
l93 869q-179 0 -285.5 -110.5t-106.5 -278.5q0 -84 18 -156t46.5 -123.5t68.5 -92.5t80.5 -66.5t85.5 -41.5z" />
    <glyph glyph-name="sterling" unicode="&#xa3;" horiz-adv-x="1169" 
d="M514 0h-477q-60 0 -60 20q0 28 41 35q60 13 105 44t73 70t48 99.5t30.5 114.5t20.5 133l27 215h-154q-15 0 -28 -2t-15 -2q-13 0 -6 18l24 43q7 17 29 17h162l20 143q52 368 213 508q133 115 310 115q101 0 178 -25q44 -9 55 -10q14 -3 14 -25q0 -171 -10 -233
q-4 -25 -16 -25q-17 0 -17 31q0 26 -13 67t-36 70q-59 78 -203 78q-121 0 -201 -100.5t-102 -284.5l-37 -309h224q25 0 46.5 2.5t34 5t15.5 2.5q19 0 10 -20l-22 -50q-8 -16 -33 -16h-287l-10 -86q-46 -367 -227 -524l4 -4l639 6q86 2 130.5 39.5t59.5 128.5q3 20 17 20
t14 -30q0 -18 -12.5 -107t-22.5 -141q-4 -16 -6.5 -21.5t-15.5 -11.5t-35 -7t-68 -1q-105 0 -207 6q-136 4 -223 4z" />
    <glyph glyph-name="currency" unicode="&#xa4;" horiz-adv-x="1169" 
d="M997 920l-139 -125q57 -86 57 -205q-3 -139 -59 -219l133 -127l-86 -88l-123 139q-39 -36 -93.5 -56t-106.5 -20q-54 -2 -110 18t-91 54l-121 -135l-82 88l129 125q-65 87 -65 209q0 123 67 217l-135 125l84 88l123 -136q82 72 205 72q120 0 200 -70l127 134zM778 586
q0 96 -53.5 164.5t-146.5 68.5q-89 0 -144 -67.5t-55 -169.5q0 -59 18.5 -106.5t48.5 -75t64 -42t68 -14.5q81 0 140.5 60.5t59.5 181.5z" />
    <glyph glyph-name="yen" unicode="&#xa5;" horiz-adv-x="1169" 
d="M662 627v-289q0 -25 -0.5 -71t-0.5 -78t1 -52q2 -49 22.5 -74t71.5 -32q44 -6 92 -6q6 0 12 -5.5t6 -11.5q0 -14 -32 -14q-30 0 -66 0.5t-66 1.5t-55.5 2t-41.5 1.5t-17 0.5t-40.5 -1.5t-98.5 -3t-107 -1.5q-35 0 -35 14q0 17 15 17q54 0 94 6q52 7 73 32t23 74
q2 45 2 201v289h-332q-13 0 -15.5 5.5t1.5 16.5l14 43q5 13 23 13h305q-36 53 -180.5 295t-196.5 333q-62 107 -127 152q-40 26 -90 26q-22 0 -22 15q0 16 20 16q22 0 107.5 -3t87.5 -3q3 0 28 1.5t63 3t72 1.5q27 0 27 -16q0 -11 -29 -19q-12 -3 -20 -14t-8 -23
q0 -27 26 -77q7 -13 89.5 -160t160.5 -283.5t98 -165.5q23 38 157 286t153 280q39 65 39 108q0 34 -33 47q-33 12 -33 23q0 14 33 14q30 0 77.5 -3t49.5 -3q3 0 85.5 3t104.5 3q27 0 27 -14q0 -17 -25 -17q-42 0 -88 -24q-31 -16 -50.5 -36.5t-55.5 -68.5q-29 -37 -109 -176
t-169.5 -299t-114.5 -202h331q12 0 17 -5.5t2 -13.5l-13 -47q-5 -12 -28 -12h-311z" />
    <glyph glyph-name="brokenbar" unicode="&#xa6;" horiz-adv-x="1044" 
d="M578 666h-111v716h111v-716zM578 -358h-111v716h111v-716z" />
    <glyph glyph-name="section" unicode="&#xa7;" horiz-adv-x="1220" 
d="M836 190q59 -60 82.5 -120.5t23.5 -132.5q0 -83 -40.5 -164t-129.5 -140q-54 -35 -130.5 -53t-141.5 -18q-107 0 -173.5 10.5t-121.5 36.5q-19 9 -23 19t-4 46q0 40 10 185q0 28 15 28q16 0 16 -20q0 -39 6 -64q14 -61 58.5 -100.5t103.5 -55.5t133 -16q126 0 203.5 67.5
t77.5 180.5q0 36 -7.5 67.5t-27 61.5t-37.5 52.5t-55.5 54t-64 51.5t-77.5 57l-65 47q-83 60 -131 100t-88.5 87.5t-57 96.5t-16.5 110q0 109 70 190.5t166 120.5q-140 137 -140 262q0 82 35.5 147t94.5 104.5t132.5 60t153.5 20.5q105 0 195 -21q35 -8 63 -8q19 0 19 -12
l-3 -22q-2 -23 -4 -66.5t-2 -96.5q0 -38 -14 -38q-13 0 -16 22q-5 46 -27 86q-52 86 -244 86q-106 0 -180 -54.5t-74 -160.5q0 -36 13.5 -69t30.5 -57t58 -58.5t68 -54t89 -62.5q17 -12 26 -18l53 -37q165 -113 236 -199.5t71 -196.5q0 -223 -208 -342zM784 238
q63 35 102.5 102.5t39.5 128.5q0 20 -3.5 39t-8 34t-16.5 32.5t-19 28.5t-26.5 29t-29 27t-36 29t-38 28t-44.5 31.5t-46 32.5l-86 62q-45 32 -108 84q-72 -22 -124 -85t-52 -132q0 -30 6.5 -56t24 -51.5t34.5 -44.5t53.5 -47.5t63.5 -47.5t82 -56l57 -39q131 -88 174 -129z
" />
    <glyph glyph-name="dieresis" unicode="&#xa8;" horiz-adv-x="1865" 
d="M1137 1700q-42 0 -64 27t-22 61q0 33 22.5 60.5t65.5 27.5q38 0 63 -22.5t25 -59.5q0 -41 -24.5 -67.5t-65.5 -26.5zM725 1700q-42 0 -64 27t-22 61q0 33 22.5 60.5t65.5 27.5q38 0 63 -22.5t25 -59.5q0 -41 -24.5 -67.5t-65.5 -26.5z" />
    <glyph glyph-name="copyright" unicode="&#xa9;" horiz-adv-x="1855" 
d="M930 -35q-218 0 -403 107t-292.5 291.5t-107.5 402.5q0 219 107.5 404.5t292.5 293t403 107.5q162 0 310 -63.5t255 -171t170.5 -257t63.5 -313.5q0 -163 -63.5 -311.5t-170.5 -256t-255 -170.5t-310 -63zM930 55q191 0 348.5 97t245.5 260t88 356q0 194 -88 357
t-245.5 259.5t-348.5 96.5q-192 0 -350.5 -96.5t-247 -259.5t-88.5 -357q0 -193 88.5 -356.5t247 -260.5t350.5 -96zM977 307q-229 0 -372.5 131t-143.5 348q0 79 26 151.5t53.5 111t59.5 69.5q126 123 350 123q72 0 168 -16q13 -2 43 -8t54.5 -11.5t25.5 -5.5q4 0 12 1
t11 1q4 0 4 -10q0 -14 -4.5 -94.5t-8.5 -104.5q-2 -9 -6 -12.5t-14 -3.5q-7 0 -12.5 6.5t-5.5 15.5q-3 53 -17 77q-7 10 -16 20q-11 12 -33.5 26t-82.5 29.5t-136 15.5q-154 0 -236 -86t-82 -247q0 -106 31.5 -191.5t84.5 -139.5t120 -83t141 -29q132 0 183 51q30 28 47 97
q7 20 22 20q19 0 19 -18q0 -51 -21 -146q-8 -36 -15 -46.5t-30 -16.5q-90 -25 -219 -25z" />
    <glyph glyph-name="ordfeminine" unicode="&#xaa;" horiz-adv-x="819" 
d="M502 1069h-246q-7 0 -10 -10l-45 -123q-13 -39 -13 -53q0 -13 9.5 -21t19.5 -8h10q13 0 13 -8q0 -10 -19 -10q-15 0 -49.5 2t-42.5 2q-6 0 -52 -2t-77 -2q-20 0 -20 10q0 8 10 8q23 0 33 2q59 5 92 86l260 604q11 25 26 25q13 0 29 -35q2 -4 37 -84t72.5 -164t83 -181
t71.5 -146q29 -55 48.5 -76.5t39.5 -26.5q16 -4 45 -4q11 0 11 -8q0 -10 -23 -10q-99 0 -201 4q-34 0 -34 6t8 10q14 5 8 21l-82 184q-5 8 -12 8zM281 1130h192q4 0 6 3t0 6l-94 229q-10 23 -20 0l-89 -229q-1 -3 0.5 -6t4.5 -3z" />
    <glyph glyph-name="guillemotleft" unicode="&#xab;" horiz-adv-x="1146" 
d="M985 287l-61 -68q-7 -10 -17 -10q-7 0 -47 45t-149.5 164t-137.5 147q-36 36 -36 49q0 12 38 45q57 49 365 357q25 22 37 22q6 0 12 -5t6 -11q0 -15 -12 -27q-1 -1 -29.5 -34t-66.5 -78t-80 -94.5t-79 -94.5t-54 -69q30 -36 127 -135t164 -158q28 -24 28 -31q0 -6 -8 -14
zM602 287l-61 -68q-7 -10 -17 -10q-7 0 -47 45t-149.5 164t-137.5 147q-36 36 -36 49q0 11 39 45q50 43 364 357q25 22 37 22q6 0 12 -5t6 -11q0 -15 -12 -27q-1 -1 -29.5 -34t-66.5 -78t-80 -94.5t-79 -94.5t-54 -69q30 -36 127 -135t164 -158q28 -24 28 -31q0 -6 -8 -14z
" />
    <glyph glyph-name="logicalnot" unicode="&#xac;" horiz-adv-x="1044" 
d="M952 326h-106v329h-754v105h860v-434z" />
    <glyph glyph-name="uni00AD" unicode="&#xad;" horiz-adv-x="798" 
d="M150 635h516q61 0 61 -21q0 -5 -2 -9.5t-7 -7.5t-9 -5t-12 -4t-13 -3t-15 -2.5t-14 -2.5q-441 -64 -487 -76q-17 -4 -36 -12t-31.5 -13.5t-16.5 -5.5q-17 0 -10 31l30 114q3 10 12 13.5t34 3.5z" />
    <glyph glyph-name="registered" unicode="&#xae;" horiz-adv-x="421" 
d="M211 1212q-81 0 -134.5 51.5t-53.5 127.5q0 78 53 129t135 51t135 -51t53 -129q0 -76 -53.5 -127.5t-134.5 -51.5zM213 1243q65 0 108.5 43t43.5 107q0 65 -43.5 106t-110.5 41t-110.5 -41t-43.5 -106t44.5 -107.5t111.5 -42.5zM141 1376v45q0 18 -1 36t-1 20
q0 9 -4.5 11.5t-17.5 2.5q-6 0 -6 4q0 6 10 6h10q2 0 13 -1t14 -1q9 0 22 1t21 1q86 0 86 -55q0 -32 -37 -62l35 -43q28 -34 39 -34q6 0 6 -4q0 -7 -15 -7q-18 0 -24.5 1t-19 9.5t-27.5 28.5l-29 39h-37v-18q0 -41 4 -45q8 -4 21 -4q6 0 6 -4q0 -7 -8 -7h-8q-1 0 -14 1
t-19 1q-3 0 -16 -1t-15 -1h-10q-8 0 -8 4q0 7 8 7q13 0 16 1.5t4 10.5q0 2 1 20t1 37zM178 1479v-82q9 -6 31 -6q11 0 20 6q19 11 19 37q0 22 -13.5 35.5t-37.5 13.5q-15 0 -19 -4z" />
    <glyph glyph-name="macron" unicode="&#xaf;" horiz-adv-x="1865" 
d="M702 1843h482q11 0 15 -6t1 -14l-16 -45q-3 -13 -19 -13h-481q-11 0 -16 3t-4 12l16 51q2 12 22 12z" />
    <glyph glyph-name="degree" unicode="&#xb0;" horiz-adv-x="630" 
d="M518 1219q-1 -93 -66.5 -154t-152.5 -61q-93 0 -153 60.5t-60 145.5q0 91 63 153t156 62q95 0 154 -60t59 -146zM422 1219q0 50 -32 89.5t-93 39.5q-55 0 -88 -41t-33 -93q0 -53 35.5 -90t87.5 -37t87.5 38t35.5 94z" />
    <glyph glyph-name="plusminus" unicode="&#xb1;" horiz-adv-x="1044" 
d="M471 1073h104v-383h383v-104h-380v-387h-107v387h-385v104h385v383zM958 102v-102h-872v102h872z" />
    <glyph glyph-name="twosuperior" unicode="&#xb2;" horiz-adv-x="909" 
d="M647 625h-518q-23 0 -23 16q0 4 3 9.5t6 8.5t9 8.5t7 6.5q55 44 72 58t69.5 58t73 64t64 63t62.5 69.5t48.5 68.5t42 75.5t23 74.5t10.5 81q0 63 -19.5 110.5t-50.5 72.5t-63.5 37t-65.5 12q-90 0 -143 -56q-45 -49 -45 -112q0 -23 -16 -23q-9 0 -13 23q-2 8 -5 62t-3 79
q0 22 14 29q104 51 236 51q146 0 227.5 -71.5t81.5 -172.5q0 -59 -18.5 -118t-56 -115t-76 -103t-98.5 -101t-101.5 -88.5t-104.5 -84.5q1 -1 1 -3t1 -3.5t5 -1.5h67q19 0 119.5 3.5t116.5 4.5q73 6 106 29.5t49 74.5q8 21 19 21q10 0 10 -19q0 -20 -15.5 -78t-31.5 -86
q-18 -34 -76 -34z" />
    <glyph glyph-name="threesuperior" unicode="&#xb3;" horiz-adv-x="845" 
d="M324 616q-132 0 -181 27q-16 9 -19 17t-3 38q0 90 6 131q3 19 12 19q10 0 13 -17q7 -70 54 -111.5t156 -41.5q96 0 159 59t63 164q0 65 -40 114t-92 71.5t-110 29.5q-41 5 -41 19q0 17 37 22q24 3 56.5 18t67 40t58 65t23.5 86q0 19 -8.5 42.5t-26.5 49.5t-55.5 43
t-87.5 17q-72 0 -125.5 -39t-53.5 -95q0 -26 -10 -26q-11 0 -14 22q-12 74 -12 121q0 23 18 31q93 39 231 39q77 0 133.5 -18.5t84 -47t39.5 -55.5t12 -53q0 -42 -21.5 -81.5t-54.5 -67.5t-61.5 -45.5t-53.5 -28.5v-5q33 -5 71 -21t78.5 -43.5t67.5 -72.5t27 -98
q0 -129 -115 -223.5t-282 -94.5z" />
    <glyph glyph-name="acute" unicode="&#xb4;" horiz-adv-x="1865" 
d="M1194 1911q3 -4 51 -90q6 -13 3 -19t-11 -6l-9 1q-10 1 -23 1t-29 -2q-68 -7 -160 -33.5t-152 -52.5q-23 -10 -30 -10q-11 0 -11 12q0 8 15 17q47 33 151 97t127 77q46 26 58 26q7 0 20 -18z" />
    <glyph glyph-name="mu" unicode="&#xb5;" horiz-adv-x="1179" 
d="M143 307v615h154v-461q0 -359 276 -359q40 0 75 7t71.5 28t62 54t42 89t16.5 130v512h153v-736q0 -114 66 -114q43 0 69 67l31 -14q-12 -72 -53 -114t-102 -42q-69 0 -108 50t-46 186q-51 -111 -130 -173.5t-208 -62.5q-166 0 -236 113q17 -314 52 -492l-185 -102l-24 10
q24 509 24 809z" />
    <glyph glyph-name="paragraph" unicode="&#xb6;" horiz-adv-x="1458" 
d="M786 1399q0 42 -7.5 62t-26.5 20q-54 0 -116 -34.5t-97 -90.5q-39 -61 -55.5 -143t-16.5 -150q0 -140 40.5 -242.5t113.5 -150.5q13 -9 29.5 -14.5t23 -10t6.5 -14.5q0 -15 -23 -15q-10 -2 -43 -2q-221 0 -363 123t-142 326q0 100 39.5 184.5t99.5 141.5q161 153 469 153
q19 0 106.5 -3t110.5 -3q1 0 138 3t192 3q32 0 32 -16q0 -13 -16 -13q-33 0 -57 -6q-39 -10 -55 -36t-19 -80q-4 -66 -4 -443v-805q0 -352 4 -409q0 -15 -14 -29q-20 -18 -49 -30.5t-50 -12.5q-12 0 -12 10q0 2 4.5 27.5t5.5 50.5q10 113 10 393v1258q0 80 -79 80
q-36 0 -54.5 -18t-21.5 -58q-2 -40 -2 -457v-796q0 -432 6 -496q3 -12 -12 -27q-20 -19 -49.5 -31t-53.5 -12q-16 0 -16 13q0 1 1.5 8t4.5 25.5t6 43.5q12 126 12 476v1247z" />
    <glyph glyph-name="periodcentered" unicode="&#xb7;" horiz-adv-x="512" 
d="M254 475q-54 0 -82.5 34.5t-28.5 78.5q0 41 29 76.5t84 35.5q49 0 81 -29t32 -77q0 -51 -32 -85t-83 -34z" />
    <glyph glyph-name="cedilla" unicode="&#xb8;" horiz-adv-x="1865" 
d="M967 0h82q-14 -8 -76.5 -65t-77.5 -74q97 -9 151 -46.5t54 -99.5q0 -55 -43 -99t-103 -69q-79 -36 -159 -36q-27 0 -27 16q0 8 6 13t13.5 6.5t21.5 2.5q60 7 106 40t46 85q0 50 -32 88t-116 62q-31 8 -31 18q0 8 27 29z" />
    <glyph glyph-name="onesuperior" unicode="&#xb9;" horiz-adv-x="675" 
d="M410 1219v-226q0 -215 6 -268q3 -29 14.5 -44t44.5 -22q42 -10 94 -10q19 0 19 -12q0 -16 -25 -16q-49 0 -100.5 1t-82.5 2l-32 1q-1 0 -39.5 -1t-95 -2t-100.5 -1q-25 0 -25 14t16 14q69 0 117 10q34 7 46.5 22t15.5 44q6 53 6 268v226q0 135 -2 155v3q-3 25 -14 28
q-5 2 -11 2q-26 0 -170 -61q-14 -7 -18 -7t-8.5 4.5t-4.5 8.5q0 7 7 14q4 4 148.5 92.5t150.5 93.5q24 19 36 19q13 0 13 -27q0 -2 -0.5 -18t-1.5 -43.5t-2 -64.5t-1.5 -90t-0.5 -109z" />
    <glyph glyph-name="ordmasculine" unicode="&#xba;" horiz-adv-x="894" 
d="M442 829q-82 0 -149.5 21t-113.5 56.5t-77.5 83.5t-46 100.5t-14.5 109.5q0 64 25.5 128t74 119t129 89.5t179.5 34.5q181 0 294 -95.5t113 -258.5q0 -164 -114.5 -276t-299.5 -112zM471 885q26 0 53.5 6.5t62.5 26.5t61.5 52t44.5 89t18 131q0 149 -85.5 238.5
t-195.5 89.5q-97 0 -170.5 -77t-73.5 -218q0 -144 84.5 -241t200.5 -97z" />
    <glyph glyph-name="guillemotright" unicode="&#xbb;" horiz-adv-x="1146" 
d="M162 961l61 67q7 10 17 10q7 0 47 -45q42 -47 150 -165t136 -146q37 -37 37 -49q0 -11 -39 -45q-50 -43 -364 -357q-25 -22 -37 -22q-6 0 -12 5t-6 11q0 15 12 27q1 1 29.5 34.5t66.5 78t80 94.5t79 95t54 69q-29 35 -126.5 134t-164.5 158q-28 24 -28 31t8 15zM545 961
l61 67q7 10 17 10q7 0 47 -45q42 -47 150 -165t136 -146q37 -37 37 -49q0 -11 -39 -45q-50 -43 -364 -357q-25 -22 -37 -22q-6 0 -12 5t-6 11q0 15 12 27q1 1 29.5 34.5t66.5 78t80 94.5t79 95t54 69q-29 35 -126.5 134t-164.5 158q-28 24 -28 31t8 15z" />
    <glyph glyph-name="onequarter" unicode="&#xbc;" horiz-adv-x="1624" 
d="M1352 326h100q15 0 28 3t20 6t9 3q5 0 9 -4t4 -8q0 -15 -13 -58q-5 -16 -24 -16h-133q0 -135 2 -162q3 -29 14.5 -44.5t40.5 -18.5q36 -4 55 -4q4 0 8.5 -4.5t4.5 -8.5q0 -14 -19 -14q-31 0 -72.5 1t-71.5 2t-32 1t-26 -1t-60.5 -2t-67.5 -1q-16 0 -16 12q0 5 5 10t11 5
q22 0 58 4q30 3 41.5 18.5t13.5 44.5q2 53 2 162h-428q-27 0 -27 16q0 14 19 33q8 8 240.5 275t259.5 301q19 22 32 22t13 -20v-553zM1243 326v389h-2q-14 -14 -169 -195t-167 -194h338zM389 1157v-213q0 -205 6 -256q3 -27 13.5 -40.5t42.5 -20.5q42 -11 90 -11
q18 0 18 -12q0 -14 -24 -14q-46 0 -95 1t-79 2t-31 1t-37.5 -1t-90.5 -2t-96 -1q-22 0 -22 12q0 14 14 14q64 0 113 11q33 7 43.5 20t13.5 41q6 51 6 256v213q0 130 -2 148q-1 13 -2 17t-6 9.5t-14 5.5q-31 0 -162 -59q-12 -6 -18 -6q-5 0 -9 4t-4 8q0 8 6 14q4 4 141.5 88
t143.5 89q23 18 35 18t12 -27q0 -2 -0.5 -17t-1.5 -42t-2 -61.5t-1.5 -85t-0.5 -103.5zM330 -29l-41 35q-13 6 2 27l1106 1444q12 15 19 14q3 -1 7 -4l37 -29q12 -9 4 -20l-1110 -1461q-11 -16 -24 -6z" />
    <glyph glyph-name="onehalf" unicode="&#xbd;" horiz-adv-x="1742" 
d="M389 1157v-213q0 -205 6 -256q3 -27 13.5 -40.5t42.5 -20.5q42 -11 90 -11q18 0 18 -12q0 -14 -24 -14q-46 0 -95 1t-79 2t-31 1t-37.5 -1t-90.5 -2t-96 -1q-22 0 -22 12q0 14 14 14q64 0 113 11q33 7 43.5 20t13.5 41q6 51 6 256v213q0 130 -2 148q-1 13 -2 17t-6 9.5
t-14 5.5q-31 0 -162 -59q-12 -6 -18 -6q-5 0 -9 4t-4 8q0 8 6 14q4 4 141.5 88t143.5 89q23 18 35 18t12 -27q0 -2 -0.5 -17t-1.5 -42t-2 -61.5t-1.5 -85t-0.5 -103.5zM262 -29l-41 35q-11 6 4 27l1106 1444q8 10 12 12.5t15 -2.5l37 -29q12 -9 4 -20l-1110 -1461
q-12 -17 -27 -6zM1522 0h-492q-22 0 -22 16q0 9 22 31q179 144 253 218q190 192 190 364q0 60 -18.5 105t-48 68.5t-60.5 34.5t-62 11q-46 0 -77.5 -11t-59.5 -40q-41 -45 -41 -109q0 -20 -16 -20q-10 0 -13 20q-2 8 -5 60t-3 75q0 13 2.5 17.5t11.5 9.5q103 49 224 49
q139 0 217 -67.5t78 -163.5q0 -66 -28.5 -135.5t-67 -124t-104.5 -119.5t-113 -104t-120 -97q1 -1 1 -3t1 -3.5t5 -1.5h63q17 0 113 3.5t110 4.5q70 6 103 28.5t47 69.5q5 13 7.5 17t8.5 4q10 0 10 -19q0 -17 -15.5 -72.5t-29.5 -82.5q-18 -33 -71 -33z" />
    <glyph glyph-name="threequarters" unicode="&#xbe;" horiz-adv-x="1652" 
d="M1380 326h99q15 0 28 3t20 6t9 3q4 0 8 -4t4 -8q0 -18 -12 -58q-5 -16 -25 -16h-131q0 -7 -1 -40t-1 -65.5t2 -56.5q3 -29 15 -44.5t41 -18.5q36 -4 57 -4q10 0 10 -13q0 -14 -18 -14q-31 0 -72.5 1t-71 2t-32.5 1q-2 0 -26 -1t-60.5 -2t-67.5 -1q-7 0 -10 2t-3.5 4
t-0.5 6q0 5 4 10t10 5q21 0 57 4q30 3 42 18.5t14 44.5q2 53 2 162h-428q-27 0 -27 16q0 12 21 33q8 8 240 275t259 301q19 22 31 22q14 0 14 -20v-553zM1270 326v389h-2q-14 -14 -169 -195t-167 -194h338zM453 1114v-4q31 -5 67 -20.5t74.5 -41.5t64 -68.5t25.5 -92.5
q0 -123 -109.5 -212t-267.5 -89q-131 0 -172 24q-14 9 -17 17.5t-3 36.5q0 86 6 124q2 17 12 17q8 0 10 -14q15 -148 201 -148q91 0 151 57t60 156q0 47 -21.5 86t-56.5 62.5t-73 37.5t-78 19q-39 5 -39 16q0 17 35 23q23 3 54 17t63.5 37.5t54.5 61.5t22 82q0 18 -8 40
t-25.5 46.5t-53.5 41t-83 16.5q-69 0 -119.5 -37t-50.5 -90q0 -25 -8 -25q-11 0 -14 21q-13 76 -13 114q0 23 19 31q84 37 219 37q60 0 106.5 -12t74 -30t45.5 -41t24 -43.5t6 -39.5q0 -40 -20.5 -78t-51.5 -64.5t-59 -44t-51 -26.5zM326 -29l-41 35q-11 6 4 27l1104 1444
q12 15 19 14q3 -1 7 -4l39 -29q10 -8 2 -20l-1110 -1461q-11 -16 -24 -6z" />
    <glyph glyph-name="questiondown" unicode="&#xbf;" horiz-adv-x="999" 
d="M543 35q70 0 121 23t79 57q62 75 72 190q3 35 16 35q14 0 17 -21q8 -36 8 -239q0 -20 -22 -33q-55 -33 -143.5 -57.5t-196.5 -24.5q-97 0 -172 29.5t-116.5 77.5t-62 102t-20.5 111q0 58 13.5 110.5t33 92.5t56.5 89.5t69.5 86t86 98t93.5 110.5q52 66 68 100t16 64
q0 53 -39 105q-18 23 -18 35q0 6 8 12t14 6q13 0 39 -23t47 -49q60 -75 60 -121q0 -45 -45 -102q-25 -32 -73 -88t-69 -82q-104 -133 -142 -227.5t-38 -206.5q0 -31 7 -64t24.5 -69t43.5 -63.5t69 -45.5t96 -18zM539 1571q50 0 76 -32.5t26 -72.5q0 -38 -26.5 -71t-77.5 -33
q-45 0 -75 27t-30 71q0 47 30 79t77 32z" />
    <glyph glyph-name="Agrave" unicode="&#xc0;" horiz-adv-x="1433" 
d="M195 219l464 1272q18 49 27.5 64.5t18.5 15.5t18 -14t27 -60q9 -23 104 -271t206.5 -537.5t166.5 -426.5q26 -65 51.5 -110t48.5 -68t40 -33.5t36 -15.5q37 -12 82 -12q20 0 20 -13q0 -16 -41 -16q-180 0 -321 4h-10q-48 3 -51 11q-1 1 -1 3q0 11 15 15q11 4 15 17t-3 38
l-190 504q-6 12 -19 12h-440q-15 0 -21 -16l-123 -363q-28 -79 -28 -137q0 -28 24 -43.5t54 -15.5h20q21 0 21 -13q0 -16 -31 -16q-28 0 -90 3t-70 3q-2 0 -88 -3t-143 -3q-39 0 -39 16q0 13 18 13q28 0 60 4q65 8 102.5 55.5t69.5 136.5zM481 672h391q12 0 9 14l-195 553
q-16 48 -31 0l-180 -553q-6 -14 6 -14zM821 1700q-37 0 -370 121q-60 22 -60 34q0 10 23 17q84 24 123 39q27 10 32 10q4 0 7.5 -4t10 -13t13.5 -16q16 -16 80.5 -64.5t120.5 -84.5q7 -5 18 -11.5t16 -10t5 -7.5q0 -10 -19 -10z" />
    <glyph glyph-name="Aacute" unicode="&#xc1;" horiz-adv-x="1433" 
d="M195 219l464 1272q18 49 27.5 64.5t18.5 15.5t18 -14t27 -60q9 -23 104 -271t206.5 -537.5t166.5 -426.5q26 -65 51.5 -110t48.5 -68t40 -33.5t36 -15.5q37 -12 82 -12q20 0 20 -13q0 -16 -41 -16q-180 0 -321 4h-10q-48 3 -51 11q-1 1 -1 3q0 11 15 15q11 4 15 17t-3 38
l-190 504q-6 12 -19 12h-440q-15 0 -21 -16l-123 -363q-28 -79 -28 -137q0 -28 24 -43.5t54 -15.5h20q21 0 21 -13q0 -16 -31 -16q-28 0 -90 3t-70 3q-2 0 -88 -3t-143 -3q-39 0 -39 16q0 13 18 13q28 0 60 4q65 8 102.5 55.5t69.5 136.5zM481 672h391q12 0 9 14l-195 553
q-16 48 -31 0l-180 -553q-6 -14 6 -14zM979 1911q3 -4 51 -90q6 -13 3 -19t-11 -6l-10 1q-9 1 -22 1t-29 -2q-68 -7 -160 -33.5t-152 -52.5q-23 -10 -31 -10q-10 0 -10 12q0 8 15 17q47 33 151 97t127 77q45 26 57 26q8 0 21 -18z" />
    <glyph glyph-name="Acircumflex" unicode="&#xc2;" horiz-adv-x="1433" 
d="M195 219l464 1272q18 49 27.5 64.5t18.5 15.5t18 -14t27 -60q9 -23 104 -271t206.5 -537.5t166.5 -426.5q26 -65 51.5 -110t48.5 -68t40 -33.5t36 -15.5q37 -12 82 -12q20 0 20 -13q0 -16 -41 -16q-180 0 -321 4h-10q-48 3 -51 11q-1 1 -1 3q0 11 15 15q11 4 15 17t-3 38
l-190 504q-6 12 -19 12h-440q-15 0 -21 -16l-123 -363q-28 -79 -28 -137q0 -28 24 -43.5t54 -15.5h20q21 0 21 -13q0 -16 -31 -16q-28 0 -90 3t-70 3q-2 0 -88 -3t-143 -3q-39 0 -39 16q0 13 18 13q28 0 60 4q65 8 102.5 55.5t69.5 136.5zM481 672h391q12 0 9 14l-195 553
q-16 48 -31 0l-180 -553q-6 -14 6 -14zM977 1731l-43 -45q-13 -13 -19 -13q-9 0 -16 10q-28 31 -89 80.5t-83 61.5q-16 8 -20 8q-13 0 -33 -10q-54 -29 -174 -129q-24 -21 -37 -21q-6 0 -10 5.5t-4 11.5t12 22q15 15 113.5 106.5t115.5 106.5q24 21 33 21q5 0 33 -21l96 -72
q95 -72 111 -84q24 -16 24 -20q0 -3 -10 -18z" />
    <glyph glyph-name="Atilde" unicode="&#xc3;" horiz-adv-x="1433" 
d="M195 219l464 1272q18 49 27.5 64.5t18.5 15.5t18 -14t27 -60q9 -23 104 -271t206.5 -537.5t166.5 -426.5q26 -65 51.5 -110t48.5 -68t40 -33.5t36 -15.5q37 -12 82 -12q20 0 20 -13q0 -16 -41 -16q-180 0 -321 4h-10q-48 3 -51 11q-1 1 -1 3q0 11 15 15q11 4 15 17t-3 38
l-190 504q-6 12 -19 12h-440q-15 0 -21 -16l-123 -363q-28 -79 -28 -137q0 -28 24 -43.5t54 -15.5h20q21 0 21 -13q0 -16 -31 -16q-28 0 -90 3t-70 3q-2 0 -88 -3t-143 -3q-39 0 -39 16q0 13 18 13q28 0 60 4q65 8 102.5 55.5t69.5 136.5zM481 672h391q12 0 9 14l-195 553
q-16 48 -31 0l-180 -553q-6 -14 6 -14zM862 1700q-19 0 -39 3.5t-40 11.5t-32 13t-30.5 14.5t-20.5 10.5q-5 2 -34.5 17.5t-53 22.5t-51.5 7q-15 0 -28.5 -3t-25.5 -9t-21 -12t-18 -14.5t-13.5 -13.5t-11 -13t-7.5 -9q-15 -18 -28 -18t-13 12q0 8 15 31q31 49 81.5 97
t94.5 48q8 0 16.5 -1t18.5 -3.5t17 -4.5t19.5 -7t18.5 -7.5t20.5 -9.5t19.5 -9.5t21.5 -10.5t20.5 -10q72 -35 119 -35q34 0 64.5 14.5t41.5 25.5t18 20q15 22 25 22q14 0 14 -12q0 -11 -8 -27q-17 -35 -72.5 -88t-97.5 -53z" />
    <glyph glyph-name="Adieresis" unicode="&#xc4;" horiz-adv-x="1433" 
d="M195 219l464 1272q18 49 27.5 64.5t18.5 15.5t18 -14t27 -60q9 -23 104 -271t206.5 -537.5t166.5 -426.5q26 -65 51.5 -110t48.5 -68t40 -33.5t36 -15.5q37 -12 82 -12q20 0 20 -13q0 -16 -41 -16q-180 0 -321 4h-10q-48 3 -51 11q-1 1 -1 3q0 11 15 15q11 4 15 17t-3 38
l-190 504q-6 12 -19 12h-440q-15 0 -21 -16l-123 -363q-28 -79 -28 -137q0 -28 24 -43.5t54 -15.5h20q21 0 21 -13q0 -16 -31 -16q-28 0 -90 3t-70 3q-2 0 -88 -3t-143 -3q-39 0 -39 16q0 13 18 13q28 0 60 4q65 8 102.5 55.5t69.5 136.5zM481 672h391q12 0 9 14l-195 553
q-16 48 -31 0l-180 -553q-6 -14 6 -14zM922 1700q-42 0 -64 27t-22 61q0 33 22.5 60.5t65.5 27.5q38 0 63 -22.5t25 -59.5q0 -41 -24.5 -67.5t-65.5 -26.5zM510 1700q-42 0 -64 27t-22 61q0 33 22.5 60.5t65.5 27.5q38 0 63 -22.5t25 -59.5q0 -41 -24.5 -67.5t-65.5 -26.5z
" />
    <glyph glyph-name="Aring" unicode="&#xc5;" horiz-adv-x="1433" 
d="M195 219l464 1272q18 49 27.5 64.5t18.5 15.5t18 -14t27 -60q9 -23 104 -271t206.5 -537.5t166.5 -426.5q26 -65 51.5 -110t48.5 -68t40 -33.5t36 -15.5q37 -12 82 -12q20 0 20 -13q0 -16 -41 -16q-180 0 -321 4h-10q-48 3 -51 11q-1 1 -1 3q0 11 15 15q11 4 15 17t-3 38
l-190 504q-6 12 -19 12h-440q-15 0 -21 -16l-123 -363q-28 -79 -28 -137q0 -28 24 -43.5t54 -15.5h20q21 0 21 -13q0 -16 -31 -16q-28 0 -90 3t-70 3q-2 0 -88 -3t-143 -3q-39 0 -39 16q0 13 18 13q28 0 60 4q65 8 102.5 55.5t69.5 136.5zM481 672h391q12 0 9 14l-195 553
q-16 48 -31 0l-180 -553q-6 -14 6 -14zM674 1679q-75 0 -117.5 33.5t-42.5 87.5q0 71 69.5 123.5t172.5 52.5q78 0 123 -31.5t45 -84.5q1 -80 -76.5 -130.5t-173.5 -50.5zM707 1729q51 0 85.5 30.5t34.5 73.5q0 40 -27 67t-79 27q-42 0 -79.5 -26t-37.5 -74q0 -43 32 -70.5
t71 -27.5z" />
    <glyph glyph-name="AE" unicode="&#xc6;" horiz-adv-x="1867" 
d="M969 698h-361q-27 0 -37 -14q-15 -20 -104.5 -166.5t-128.5 -212.5q-88 -145 -88 -207q0 -43 41 -59q43 -16 90 -16q25 0 25 -15q0 -14 -35 -14q-51 0 -110 1.5t-99.5 3t-46.5 1.5q-4 0 -42.5 -1.5t-92.5 -3t-97 -1.5q-26 0 -26 16q0 13 22 13q45 0 86 20
q43 21 80.5 55.5t62 65.5t72.5 98q69 94 752 1165q36 56 45 86q7 29 27 29q4 0 14 -1t16 -1q20 -4 35 -4q422 0 469 2q60 3 88 10q4 1 14 6t15 5q8 0 8 -19q0 -5 -2.5 -17t-6.5 -33.5t-7 -45.5q0 -3 -4.5 -61.5t-6.5 -73.5q-5 -23 -14 -23q-16 0 -16 27q0 40 -13 73
q-12 29 -40.5 45.5t-104.5 24.5q-53 6 -281 6q-12 0 -12 -20v-649q0 -21 12 -21q279 0 326 4q75 6 96 29q23 26 31 26q10 0 10 -16q0 -4 -2.5 -18.5t-6.5 -41t-7 -55.5q-8 -82 -8 -116q0 -33 -15 -33q-13 0 -16 22q0 27 -6 50q-17 61 -121 71q-41 4 -279 4q-9 0 -11.5 -3.5
t-2.5 -14.5v-92q0 -18 -0.5 -106t-0.5 -157t1 -89q3 -73 21 -106t65.5 -46.5t151.5 -13.5q145 0 196 22q40 17 61 50t31 96q5 30 19 30q12 0 12 -30q0 -15 -9.5 -92t-16.5 -105q-10 -38 -28.5 -45.5t-82.5 -7.5q-106 0 -346 6q-120 6 -160 6q-2 0 -30 -1t-50 -1
q-78 -4 -112 -4q-33 0 -33 16q0 13 16 13q22 0 58 8q28 5 40 32.5t19 79.5q10 86 10 445v94q0 16 -18 16zM987 788v553q0 9 -6 9t-12 -9q-29 -43 -176.5 -284.5t-159.5 -265.5q-11 -19 8 -19h328q18 0 18 16z" />
    <glyph glyph-name="Ccedilla" unicode="&#xc7;" horiz-adv-x="1648" 
d="M315 809q0 -146 55 -282t150 -239.5t235 -166t300 -62.5q127 0 212.5 22t143.5 81q29 30 49.5 82.5t26.5 89.5q5 31 20 31t15 -31q0 -16 -16 -116t-29 -146q-9 -29 -17.5 -38.5t-36.5 -21.5q-117 -47 -368 -47q-31 0 -45 2q-52 -43 -115 -106q97 -9 151 -46.5t54 -99.5
q0 -55 -43 -99t-103 -69q-79 -36 -159 -36q-27 0 -27 16q0 8 6 13t13.5 6.5t21.5 2.5q60 7 106 40t46 85q0 50 -32 88t-116 62q-31 8 -31 18q0 8 27 29l121 100q-337 22 -551 215q-248 222 -248 607q0 57 11 121t35 140t71 154.5t112 143.5q219 219 625 219q158 0 297 -25
q146 -26 209 -30q27 -2 27 -23q0 -6 -2 -19t-4.5 -38.5t-4.5 -57.5q-2 -38 -3.5 -118.5t-2.5 -92.5q-3 -43 -18 -43q-17 0 -17 43q0 61 -23.5 118.5t-62.5 90.5q-58 49 -169.5 83t-239.5 34q-317 0 -471 -150q-105 -100 -145 -230t-40 -304z" />
    <glyph glyph-name="Egrave" unicode="&#xc8;" horiz-adv-x="1249" 
d="M365 588v360q0 360 -5 443q-3 55 -21 80.5t-67 35.5q-24 6 -69 6q-17 0 -17 13q0 16 33 16q103 0 148 -2l84 -4q422 0 469 2q60 3 88 10q4 1 13.5 6t14.5 5q8 0 8 -19q0 -5 -2.5 -17t-6.5 -33.5t-7 -45.5q0 -4 -4 -62t-6 -73q-5 -23 -14 -23q-17 0 -17 27q0 43 -12 73
q-12 29 -41 45.5t-105 24.5q-52 6 -280 6q-12 0 -12 -20v-565q0 -21 12 -21q278 0 325 4q77 6 97 29q23 26 30 26q11 0 11 -16q0 -4 -3 -18.5t-7 -41t-7 -55.5q-8 -82 -8 -131q0 -39 -14 -39q-15 0 -15 19q0 40 -8 67q-17 63 -106 72q-92 10 -293 10q-14 0 -14 -14v-180
q0 -18 -0.5 -105.5t-0.5 -156.5t1 -88q3 -75 21 -108t65 -46.5t151 -13.5q146 0 197 22q40 17 60.5 51t31.5 97q5 30 18 30t13 -30q0 -14 -10 -92t-17 -107q-10 -38 -28.5 -45.5t-82.5 -7.5q-106 0 -346 6q-120 6 -159 6t-82 -2q-22 0 -63.5 -2t-55.5 -2q-33 0 -33 16
q0 13 16 13q26 0 62 8q28 5 40 32.5t19 79.5q11 95 11 445zM768 1700q-38 0 -371 121q-59 22 -59 34q0 11 22 17q84 24 123 39q27 10 33 10q4 0 7.5 -4t10 -13t13.5 -16q16 -16 80.5 -64.5t120.5 -84.5q7 -5 18 -11.5t15.5 -10t4.5 -7.5q0 -10 -18 -10z" />
    <glyph glyph-name="Eacute" unicode="&#xc9;" horiz-adv-x="1249" 
d="M365 588v360q0 360 -5 443q-3 55 -21 80.5t-67 35.5q-24 6 -69 6q-17 0 -17 13q0 16 33 16q103 0 148 -2l84 -4q422 0 469 2q60 3 88 10q4 1 13.5 6t14.5 5q8 0 8 -19q0 -5 -2.5 -17t-6.5 -33.5t-7 -45.5q0 -4 -4 -62t-6 -73q-5 -23 -14 -23q-17 0 -17 27q0 43 -12 73
q-12 29 -41 45.5t-105 24.5q-52 6 -280 6q-12 0 -12 -20v-565q0 -21 12 -21q278 0 325 4q77 6 97 29q23 26 30 26q11 0 11 -16q0 -4 -3 -18.5t-7 -41t-7 -55.5q-8 -82 -8 -131q0 -39 -14 -39q-15 0 -15 19q0 40 -8 67q-17 63 -106 72q-92 10 -293 10q-14 0 -14 -14v-180
q0 -18 -0.5 -105.5t-0.5 -156.5t1 -88q3 -75 21 -108t65 -46.5t151 -13.5q146 0 197 22q40 17 60.5 51t31.5 97q5 30 18 30t13 -30q0 -14 -10 -92t-17 -107q-10 -38 -28.5 -45.5t-82.5 -7.5q-106 0 -346 6q-120 6 -159 6t-82 -2q-22 0 -63.5 -2t-55.5 -2q-33 0 -33 16
q0 13 16 13q26 0 62 8q28 5 40 32.5t19 79.5q11 95 11 445zM905 1911q3 -4 51 -90q6 -13 3 -19t-11 -6l-10 1q-9 1 -22 1t-29 -2q-68 -7 -160 -33.5t-152 -52.5q-23 -10 -30 -10q-10 0 -10 12q0 9 14 17q47 33 151 97t127 77q45 26 58 26q7 0 20 -18z" />
    <glyph glyph-name="Ecircumflex" unicode="&#xca;" horiz-adv-x="1249" 
d="M365 588v360q0 360 -5 443q-3 55 -21 80.5t-67 35.5q-24 6 -69 6q-17 0 -17 13q0 16 33 16q103 0 148 -2l84 -4q422 0 469 2q60 3 88 10q4 1 13.5 6t14.5 5q8 0 8 -19q0 -5 -2.5 -17t-6.5 -33.5t-7 -45.5q0 -4 -4 -62t-6 -73q-5 -23 -14 -23q-17 0 -17 27q0 43 -12 73
q-12 29 -41 45.5t-105 24.5q-52 6 -280 6q-12 0 -12 -20v-565q0 -21 12 -21q278 0 325 4q77 6 97 29q23 26 30 26q11 0 11 -16q0 -4 -3 -18.5t-7 -41t-7 -55.5q-8 -82 -8 -131q0 -39 -14 -39q-15 0 -15 19q0 40 -8 67q-17 63 -106 72q-92 10 -293 10q-14 0 -14 -14v-180
q0 -18 -0.5 -105.5t-0.5 -156.5t1 -88q3 -75 21 -108t65 -46.5t151 -13.5q146 0 197 22q40 17 60.5 51t31.5 97q5 30 18 30t13 -30q0 -14 -10 -92t-17 -107q-10 -38 -28.5 -45.5t-82.5 -7.5q-106 0 -346 6q-120 6 -159 6t-82 -2q-22 0 -63.5 -2t-55.5 -2q-33 0 -33 16
q0 13 16 13q26 0 62 8q28 5 40 32.5t19 79.5q11 95 11 445zM924 1731l-43 -45q-13 -13 -19 -13q-8 0 -16 10q-28 31 -89 80.5t-83 61.5q-16 8 -21 8q-12 0 -32 -10q-57 -30 -175 -129q-24 -21 -36 -21q-6 0 -10.5 5.5t-4.5 11.5q0 5 13 22q15 15 113.5 106.5t115.5 106.5
q24 21 33 21q4 0 32 -21l96 -72q95 -72 111 -84q25 -17 25 -20t-10 -18z" />
    <glyph glyph-name="Edieresis" unicode="&#xcb;" horiz-adv-x="1249" 
d="M365 588v360q0 360 -5 443q-3 55 -21 80.5t-67 35.5q-24 6 -69 6q-17 0 -17 13q0 16 33 16q103 0 148 -2l84 -4q422 0 469 2q60 3 88 10q4 1 13.5 6t14.5 5q8 0 8 -19q0 -5 -2.5 -17t-6.5 -33.5t-7 -45.5q0 -4 -4 -62t-6 -73q-5 -23 -14 -23q-17 0 -17 27q0 43 -12 73
q-12 29 -41 45.5t-105 24.5q-52 6 -280 6q-12 0 -12 -20v-565q0 -21 12 -21q278 0 325 4q77 6 97 29q23 26 30 26q11 0 11 -16q0 -4 -3 -18.5t-7 -41t-7 -55.5q-8 -82 -8 -131q0 -39 -14 -39q-15 0 -15 19q0 40 -8 67q-17 63 -106 72q-92 10 -293 10q-14 0 -14 -14v-180
q0 -18 -0.5 -105.5t-0.5 -156.5t1 -88q3 -75 21 -108t65 -46.5t151 -13.5q146 0 197 22q40 17 60.5 51t31.5 97q5 30 18 30t13 -30q0 -14 -10 -92t-17 -107q-10 -38 -28.5 -45.5t-82.5 -7.5q-106 0 -346 6q-120 6 -159 6t-82 -2q-22 0 -63.5 -2t-55.5 -2q-33 0 -33 16
q0 13 16 13q26 0 62 8q28 5 40 32.5t19 79.5q11 95 11 445zM868 1700q-42 0 -64 27t-22 61q0 33 22.5 60.5t65.5 27.5q38 0 63 -22.5t25 -59.5q0 -41 -24.5 -67.5t-65.5 -26.5zM457 1700q-42 0 -64 27t-22 61q0 33 22.5 60.5t65.5 27.5q38 0 63 -22.5t25 -59.5
q0 -41 -24.5 -67.5t-65.5 -26.5z" />
    <glyph glyph-name="Igrave" unicode="&#xcc;" horiz-adv-x="901" 
d="M537 948v-360q0 -359 10 -445q5 -51 21.5 -78.5t58.5 -33.5q58 -8 92 -8q16 0 16 -13q0 -16 -33 -16q-50 0 -110 1.5t-100 3t-41 1.5q-3 0 -41 -1.5t-85.5 -3t-74.5 -1.5q-33 0 -33 16q0 13 16 13q26 0 62 8q28 5 40 32.5t19 79.5q11 95 11 445v360q0 360 -5 443
q-3 53 -19 80t-50 34q-31 8 -64 8q-16 0 -16 13q0 16 33 16q30 0 79 -1.5t87 -3t41 -1.5t40.5 1.5t85 3t74.5 1.5q33 0 33 -16q0 -13 -16 -13q-14 0 -52 -6q-40 -7 -56 -33.5t-19 -82.5q-4 -66 -4 -443zM555 1700q-38 0 -371 121q-59 22 -59 34q0 11 22 17q84 24 123 39
q27 10 33 10q4 0 7.5 -4t10 -13t13.5 -16q16 -16 80.5 -64.5t120.5 -84.5q7 -5 18 -11.5t15.5 -10t4.5 -7.5q0 -10 -18 -10z" />
    <glyph glyph-name="Iacute" unicode="&#xcd;" horiz-adv-x="901" 
d="M537 948v-360q0 -359 10 -445q5 -51 21.5 -78.5t58.5 -33.5q58 -8 92 -8q16 0 16 -13q0 -16 -33 -16q-50 0 -110 1.5t-100 3t-41 1.5q-3 0 -41 -1.5t-85.5 -3t-74.5 -1.5q-33 0 -33 16q0 13 16 13q26 0 62 8q28 5 40 32.5t19 79.5q11 95 11 445v360q0 360 -5 443
q-3 53 -19 80t-50 34q-31 8 -64 8q-16 0 -16 13q0 16 33 16q30 0 79 -1.5t87 -3t41 -1.5t40.5 1.5t85 3t74.5 1.5q33 0 33 -16q0 -13 -16 -13q-14 0 -52 -6q-40 -7 -56 -33.5t-19 -82.5q-4 -66 -4 -443zM713 1911q3 -4 51 -90q6 -13 3 -19t-11 -6l-10 1q-9 1 -22.5 1
t-29.5 -2q-68 -7 -159 -33.5t-152 -52.5q-23 -10 -31 -10q-10 0 -10 12q0 9 14 17q47 33 150.5 96.5t128.5 77.5q46 26 57 26q8 0 21 -18z" />
    <glyph glyph-name="Icircumflex" unicode="&#xce;" horiz-adv-x="901" 
d="M537 948v-360q0 -359 10 -445q5 -51 21.5 -78.5t58.5 -33.5q58 -8 92 -8q16 0 16 -13q0 -16 -33 -16q-50 0 -110 1.5t-100 3t-41 1.5q-3 0 -41 -1.5t-85.5 -3t-74.5 -1.5q-33 0 -33 16q0 13 16 13q26 0 62 8q28 5 40 32.5t19 79.5q11 95 11 445v360q0 360 -5 443
q-3 53 -19 80t-50 34q-31 8 -64 8q-16 0 -16 13q0 16 33 16q30 0 79 -1.5t87 -3t41 -1.5t40.5 1.5t85 3t74.5 1.5q33 0 33 -16q0 -13 -16 -13q-14 0 -52 -6q-40 -7 -56 -33.5t-19 -82.5q-4 -66 -4 -443zM711 1731l-43 -45q-13 -13 -19 -13q-9 0 -16 10q-28 31 -89 80.5
t-83 61.5q-16 8 -21 8q-12 0 -32 -10q-57 -30 -175 -129q-24 -21 -36 -21q-6 0 -10.5 5.5t-4.5 11.5q0 5 13 22q15 15 113.5 106.5t115.5 106.5q24 21 33 21q4 0 32 -21l95 -72l112 -84q25 -17 25 -20t-10 -18z" />
    <glyph glyph-name="Idieresis" unicode="&#xcf;" horiz-adv-x="901" 
d="M537 948v-360q0 -359 10 -445q5 -51 21.5 -78.5t58.5 -33.5q58 -8 92 -8q16 0 16 -13q0 -16 -33 -16q-50 0 -110 1.5t-100 3t-41 1.5q-3 0 -41 -1.5t-85.5 -3t-74.5 -1.5q-33 0 -33 16q0 13 16 13q26 0 62 8q28 5 40 32.5t19 79.5q11 95 11 445v360q0 360 -5 443
q-3 53 -19 80t-50 34q-31 8 -64 8q-16 0 -16 13q0 16 33 16q30 0 79 -1.5t87 -3t41 -1.5t40.5 1.5t85 3t74.5 1.5q33 0 33 -16q0 -13 -16 -13q-14 0 -52 -6q-40 -7 -56 -33.5t-19 -82.5q-4 -66 -4 -443zM655 1700q-42 0 -64 27t-22 61q0 33 22.5 60.5t65.5 27.5
q38 0 63 -22.5t25 -59.5q0 -41 -24.5 -67.5t-65.5 -26.5zM244 1700q-42 0 -64 27t-22 61q0 33 22.5 60.5t65.5 27.5q38 0 63 -22.5t25 -59.5q0 -41 -24.5 -67.5t-65.5 -26.5z" />
    <glyph glyph-name="Eth" unicode="&#xd0;" horiz-adv-x="1878" 
d="M365 813v135q0 360 -5 443q-3 55 -21 80.5t-67 35.5q-24 6 -69 6q-17 0 -17 13q0 16 33 16q41 0 96 -1.5t94.5 -3t41.5 -1.5l101 3q101 3 175 3h40q63 1 98.5 0.5t106.5 -4.5t119.5 -12.5t117.5 -25.5t122 -41t111.5 -62.5t105.5 -87.5q199 -207 199 -521
q0 -180 -62.5 -328t-158.5 -249q-226 -236 -621 -236q-93 0 -284 13q-37 2 -79.5 5.5t-64.5 5t-26 1.5q-39 0 -82 -2q-22 0 -63.5 -2t-55.5 -2q-33 0 -33 16q0 13 16 13q26 0 62 8q28 5 40 32.5t19 79.5q11 95 11 445v151h-181q-11 0 -13.5 5.5t-0.5 17.5l6 33q5 18 27 18
h162zM537 737v-108q0 -280 4 -346q5 -132 22 -156q57 -82 348 -82q142 0 269.5 50t218.5 141q77 76 120.5 210t43.5 279q0 92 -18 176t-49.5 148t-62.5 109t-67 83q-70 73 -149.5 121.5t-168.5 71.5t-169 31t-185 8q-101 0 -131 -15q-24 -11 -24 -41l-2 -602h419
q18 0 15 -22l-8 -39q-2 -17 -27 -17h-399z" />
    <glyph glyph-name="Ntilde" unicode="&#xd1;" horiz-adv-x="1939" 
d="M393 1253l27 -981q3 -124 20.5 -174.5t59.5 -62.5q47 -12 102 -12q16 0 16 -13q0 -16 -36 -16q-52 0 -101.5 1.5t-80 3t-35.5 1.5t-36 -1.5t-76 -3t-85 -1.5q-33 0 -33 16q0 13 17 13q47 0 84 12q37 10 49 63.5t12 196.5l2 1173q0 58 5.5 80.5t17.5 22.5q7 0 19.5 -11
t29.5 -30.5t22 -24.5q62 -70 651 -702q108 -115 285 -309.5t207 -225.5l-23 1041q-2 102 -17.5 142t-61.5 52q-46 10 -101 10q-16 0 -16 15q0 14 41 14q55 0 132.5 -3t80.5 -3q4 0 64 3t110 3q37 0 37 -14q0 -15 -23 -15q-24 0 -49 -6q-49 -10 -62.5 -47t-13.5 -135
l-4 -1200q0 -51 -0.5 -79.5t-3 -43.5t-5.5 -18.5t-9 -3.5q-12 0 -40 24.5t-110 106.5q-21 18 -203.5 207t-330.5 348q-282 303 -535 587zM1135 1700q-19 0 -39 3.5t-40 11.5t-32 13t-30.5 14.5t-20.5 10.5q-5 2 -34.5 17.5t-53 22.5t-51.5 7q-15 0 -28.5 -3t-25.5 -9
t-21 -12t-18 -14.5t-13.5 -13.5t-11 -13t-7.5 -9q-15 -18 -29 -18q-12 0 -12 12q0 10 14 31q31 49 81.5 97t94.5 48q8 0 16.5 -1t18.5 -3.5t17 -4.5t19.5 -7t18.5 -7.5t20.5 -9.5t19.5 -9.5t21.5 -10.5t20.5 -10q72 -35 119 -35q34 0 65 14.5t42 25.5t18 20q15 22 24 22
q6 0 10.5 -3.5t4.5 -8.5q0 -11 -8 -27q-17 -35 -72.5 -88t-97.5 -53z" />
    <glyph glyph-name="Ograve" unicode="&#xd2;" horiz-adv-x="1873" 
d="M131 770q0 103 29 211t93.5 214.5t156 189.5t228.5 134.5t300 51.5q231 0 412.5 -91.5t287 -267.5t105.5 -409q0 -171 -59 -324.5t-163.5 -267t-259 -180t-335.5 -66.5q-162 0 -297.5 48.5t-225.5 128.5t-153 185.5t-91 217t-28 225.5zM326 827q0 -233 87 -413
t235.5 -275.5t332.5 -95.5q44 0 89.5 7.5t102.5 28t108 53t100.5 87.5t85 126t57.5 174t22 226q0 179 -51.5 325t-138.5 238.5t-198 142.5t-234 50q-130 0 -238 -43t-189 -125t-126 -211.5t-45 -294.5zM1040 1700q-37 0 -370 121q-60 22 -60 34q0 10 23 17q84 24 123 39
q27 10 32 10q4 0 7.5 -4t10 -13t13.5 -16q16 -16 80.5 -64.5t120.5 -84.5q7 -5 18 -11.5t16 -10t5 -7.5q0 -10 -19 -10z" />
    <glyph glyph-name="Oacute" unicode="&#xd3;" horiz-adv-x="1873" 
d="M131 770q0 103 29 211t93.5 214.5t156 189.5t228.5 134.5t300 51.5q231 0 412.5 -91.5t287 -267.5t105.5 -409q0 -171 -59 -324.5t-163.5 -267t-259 -180t-335.5 -66.5q-162 0 -297.5 48.5t-225.5 128.5t-153 185.5t-91 217t-28 225.5zM326 827q0 -233 87 -413
t235.5 -275.5t332.5 -95.5q44 0 89.5 7.5t102.5 28t108 53t100.5 87.5t85 126t57.5 174t22 226q0 179 -51.5 325t-138.5 238.5t-198 142.5t-234 50q-130 0 -238 -43t-189 -125t-126 -211.5t-45 -294.5zM1198 1911q3 -4 51 -90q6 -13 3 -19t-11 -6l-9 1q-10 1 -23 1t-29 -2
q-68 -7 -160 -33.5t-152 -52.5q-23 -10 -30 -10q-11 0 -11 12q0 8 15 17q47 33 151 97t127 77q46 26 58 26q7 0 20 -18z" />
    <glyph glyph-name="Ocircumflex" unicode="&#xd4;" horiz-adv-x="1873" 
d="M131 770q0 103 29 211t93.5 214.5t156 189.5t228.5 134.5t300 51.5q231 0 412.5 -91.5t287 -267.5t105.5 -409q0 -171 -59 -324.5t-163.5 -267t-259 -180t-335.5 -66.5q-162 0 -297.5 48.5t-225.5 128.5t-153 185.5t-91 217t-28 225.5zM326 827q0 -233 87 -413
t235.5 -275.5t332.5 -95.5q44 0 89.5 7.5t102.5 28t108 53t100.5 87.5t85 126t57.5 174t22 226q0 179 -51.5 325t-138.5 238.5t-198 142.5t-234 50q-130 0 -238 -43t-189 -125t-126 -211.5t-45 -294.5zM1196 1731l-43 -45q-13 -13 -18 -13q-9 0 -17 10q-28 31 -89 80.5
t-83 61.5q-16 8 -20 8q-13 0 -33 -10q-54 -29 -174 -129q-24 -21 -37 -21q-6 0 -10 5.5t-4 11.5t12 22q15 15 113.5 106.5t115.5 106.5q24 21 33 21q5 0 33 -21l95 -72l112 -84q24 -16 24 -20q0 -3 -10 -18z" />
    <glyph glyph-name="Otilde" unicode="&#xd5;" horiz-adv-x="1873" 
d="M131 770q0 103 29 211t93.5 214.5t156 189.5t228.5 134.5t300 51.5q231 0 412.5 -91.5t287 -267.5t105.5 -409q0 -171 -59 -324.5t-163.5 -267t-259 -180t-335.5 -66.5q-162 0 -297.5 48.5t-225.5 128.5t-153 185.5t-91 217t-28 225.5zM326 827q0 -233 87 -413
t235.5 -275.5t332.5 -95.5q44 0 89.5 7.5t102.5 28t108 53t100.5 87.5t85 126t57.5 174t22 226q0 179 -51.5 325t-138.5 238.5t-198 142.5t-234 50q-130 0 -238 -43t-189 -125t-126 -211.5t-45 -294.5zM1081 1700q-19 0 -39 4t-39.5 11.5t-32 12.5t-30.5 14.5t-20 10.5
q-5 2 -35 17.5t-53.5 22.5t-51.5 7q-15 0 -28.5 -3t-25.5 -9t-21 -12t-18 -14.5t-13.5 -13.5t-11 -13t-7.5 -9q-15 -18 -28 -18t-13 12q0 8 15 31q31 49 81.5 97t94.5 48q8 0 16.5 -1t18.5 -3.5t17 -4.5t19.5 -7t18.5 -7.5t20.5 -9.5t19.5 -9.5t21.5 -10.5t20.5 -10
q72 -35 119 -35q34 0 65 14.5t42 25.5t18 20q15 22 24 22q6 0 10.5 -3.5t4.5 -8.5q0 -9 -9 -27q-17 -35 -72.5 -88t-97.5 -53z" />
    <glyph glyph-name="Odieresis" unicode="&#xd6;" horiz-adv-x="1873" 
d="M131 770q0 103 29 211t93.5 214.5t156 189.5t228.5 134.5t300 51.5q231 0 412.5 -91.5t287 -267.5t105.5 -409q0 -171 -59 -324.5t-163.5 -267t-259 -180t-335.5 -66.5q-162 0 -297.5 48.5t-225.5 128.5t-153 185.5t-91 217t-28 225.5zM326 827q0 -233 87 -413
t235.5 -275.5t332.5 -95.5q44 0 89.5 7.5t102.5 28t108 53t100.5 87.5t85 126t57.5 174t22 226q0 179 -51.5 325t-138.5 238.5t-198 142.5t-234 50q-130 0 -238 -43t-189 -125t-126 -211.5t-45 -294.5zM1141 1700q-42 0 -64 27t-22 61q0 33 22.5 60.5t65.5 27.5
q38 0 63 -22.5t25 -59.5q0 -41 -24.5 -67.5t-65.5 -26.5zM729 1700q-42 0 -64 27t-22 61q0 33 22.5 60.5t65.5 27.5q38 0 63 -22.5t25 -59.5q0 -41 -24.5 -67.5t-65.5 -26.5z" />
    <glyph glyph-name="multiply" unicode="&#xd7;" horiz-adv-x="1044" 
d="M115 881l73 75l332 -342l334 342l78 -75l-334 -342l334 -340l-76 -76l-334 340l-332 -340l-77 76l333 340z" />
    <glyph glyph-name="Oslash" unicode="&#xd8;" horiz-adv-x="1873" 
d="M414 135l-178 -190q-9 -12 -21 0l-41 39q-12 12 -4 20l178 193q-108 112 -162.5 264t-54.5 309q0 103 29 211t93.5 214.5t156 189.5t228.5 134.5t300 51.5q317 0 528 -168l168 180q11 11 29 -4l41 -33q13 -13 0 -26l-166 -179q205 -208 205 -538q0 -171 -59 -324.5
t-163.5 -267t-259 -180t-335.5 -66.5q-308 0 -512 170zM1423 1219l-903 -969q185 -207 461 -207q44 0 89.5 7.5t102.5 28t108 53t100.5 87.5t85 126t57.5 174t22 226q0 281 -123 474zM465 322l901 972q-86 101 -201.5 154t-242.5 53q-129 0 -237 -43t-188.5 -125
t-125.5 -211.5t-45 -294.5q0 -298 139 -505z" />
    <glyph glyph-name="Ugrave" unicode="&#xd9;" horiz-adv-x="1699" 
d="M246 649v299q0 377 -4 443q-3 55 -21 80.5t-67 35.5q-24 6 -70 6q-16 0 -16 13q0 16 32 16q40 0 95 -1.5t95.5 -3t45.5 -1.5q4 0 85.5 3t117.5 3q32 0 32 -16q0 -13 -16 -13q-13 0 -51 -6q-40 -6 -56.5 -33t-19.5 -83q-4 -66 -4 -443v-286q0 -206 40 -320.5t114 -185.5
q70 -66 141.5 -89.5t167.5 -23.5q93 0 179 40t142 107q66 83 92.5 206.5t26.5 295.5v256q0 377 -4 443q-3 55 -21 80.5t-67 35.5q-24 6 -70 6q-16 0 -16 13q0 16 33 16q41 0 92 -1.5t86.5 -3t38.5 -1.5q1 0 68.5 3t103.5 3q33 0 33 -16q0 -13 -17 -13q-13 0 -51 -6
q-40 -9 -56.5 -35t-19.5 -81q-4 -66 -4 -443v-219q0 -94 -7 -170.5t-25.5 -161.5t-57.5 -156.5t-98 -123.5q-171 -152 -422 -152q-38 0 -78 4t-102.5 17t-126.5 45t-115 80q-84 81 -131 205.5t-47 332.5zM963 1700q-38 0 -371 121q-60 22 -60 34q0 10 23 17q84 24 123 39
q27 10 33 10q4 0 7.5 -4t9.5 -13t13 -16q16 -16 80.5 -64.5t120.5 -84.5q7 -5 18 -11.5t16 -10t5 -7.5q0 -10 -18 -10z" />
    <glyph glyph-name="Uacute" unicode="&#xda;" horiz-adv-x="1699" 
d="M246 649v299q0 377 -4 443q-3 55 -21 80.5t-67 35.5q-24 6 -70 6q-16 0 -16 13q0 16 32 16q40 0 95 -1.5t95.5 -3t45.5 -1.5q4 0 85.5 3t117.5 3q32 0 32 -16q0 -13 -16 -13q-13 0 -51 -6q-40 -6 -56.5 -33t-19.5 -83q-4 -66 -4 -443v-286q0 -206 40 -320.5t114 -185.5
q70 -66 141.5 -89.5t167.5 -23.5q93 0 179 40t142 107q66 83 92.5 206.5t26.5 295.5v256q0 377 -4 443q-3 55 -21 80.5t-67 35.5q-24 6 -70 6q-16 0 -16 13q0 16 33 16q41 0 92 -1.5t86.5 -3t38.5 -1.5q1 0 68.5 3t103.5 3q33 0 33 -16q0 -13 -17 -13q-13 0 -51 -6
q-40 -9 -56.5 -35t-19.5 -81q-4 -66 -4 -443v-219q0 -94 -7 -170.5t-25.5 -161.5t-57.5 -156.5t-98 -123.5q-171 -152 -422 -152q-38 0 -78 4t-102.5 17t-126.5 45t-115 80q-84 81 -131 205.5t-47 332.5zM1151 1911q3 -4 51 -90q6 -13 3 -19t-11 -6l-10 1q-9 1 -22 1t-29 -2
q-68 -7 -160 -33.5t-152 -52.5q-23 -10 -30 -10q-11 0 -11 12q0 8 15 17q47 33 151 97t127 77q45 26 57 26q8 0 21 -18z" />
    <glyph glyph-name="Ucircumflex" unicode="&#xdb;" horiz-adv-x="1699" 
d="M246 649v299q0 377 -4 443q-3 55 -21 80.5t-67 35.5q-24 6 -70 6q-16 0 -16 13q0 16 32 16q40 0 95 -1.5t95.5 -3t45.5 -1.5q4 0 85.5 3t117.5 3q32 0 32 -16q0 -13 -16 -13q-13 0 -51 -6q-40 -6 -56.5 -33t-19.5 -83q-4 -66 -4 -443v-286q0 -206 40 -320.5t114 -185.5
q70 -66 141.5 -89.5t167.5 -23.5q93 0 179 40t142 107q66 83 92.5 206.5t26.5 295.5v256q0 377 -4 443q-3 55 -21 80.5t-67 35.5q-24 6 -70 6q-16 0 -16 13q0 16 33 16q41 0 92 -1.5t86.5 -3t38.5 -1.5q1 0 68.5 3t103.5 3q33 0 33 -16q0 -13 -17 -13q-13 0 -51 -6
q-40 -9 -56.5 -35t-19.5 -81q-4 -66 -4 -443v-219q0 -94 -7 -170.5t-25.5 -161.5t-57.5 -156.5t-98 -123.5q-171 -152 -422 -152q-38 0 -78 4t-102.5 17t-126.5 45t-115 80q-84 81 -131 205.5t-47 332.5zM1139 1731l-43 -45q-13 -13 -19 -13q-9 0 -16 10q-28 31 -89 80.5
t-83 61.5q-16 8 -21 8q-12 0 -32 -10q-54 -29 -174 -129q-24 -21 -37 -21q-6 0 -10.5 5.5t-4.5 11.5q0 5 13 22q15 15 113.5 106.5t115.5 106.5q24 21 33 21q5 0 33 -21q3 -2 96.5 -73t109.5 -83q25 -17 25 -20t-10 -18z" />
    <glyph glyph-name="Udieresis" unicode="&#xdc;" horiz-adv-x="1699" 
d="M246 649v299q0 377 -4 443q-3 55 -21 80.5t-67 35.5q-24 6 -70 6q-16 0 -16 13q0 16 32 16q40 0 95 -1.5t95.5 -3t45.5 -1.5q4 0 85.5 3t117.5 3q32 0 32 -16q0 -13 -16 -13q-13 0 -51 -6q-40 -6 -56.5 -33t-19.5 -83q-4 -66 -4 -443v-286q0 -206 40 -320.5t114 -185.5
q70 -66 141.5 -89.5t167.5 -23.5q93 0 179 40t142 107q66 83 92.5 206.5t26.5 295.5v256q0 377 -4 443q-3 55 -21 80.5t-67 35.5q-24 6 -70 6q-16 0 -16 13q0 16 33 16q41 0 92 -1.5t86.5 -3t38.5 -1.5q1 0 68.5 3t103.5 3q33 0 33 -16q0 -13 -17 -13q-13 0 -51 -6
q-40 -9 -56.5 -35t-19.5 -81q-4 -66 -4 -443v-219q0 -94 -7 -170.5t-25.5 -161.5t-57.5 -156.5t-98 -123.5q-171 -152 -422 -152q-38 0 -78 4t-102.5 17t-126.5 45t-115 80q-84 81 -131 205.5t-47 332.5zM1094 1700q-42 0 -64 27t-22 61q0 33 22.5 60.5t65.5 27.5
q38 0 63 -22.5t25 -59.5q0 -41 -24.5 -67.5t-65.5 -26.5zM682 1700q-42 0 -64 27t-22 61q0 33 22.5 60.5t65.5 27.5q38 0 63 -22.5t25 -59.5q0 -41 -24.5 -67.5t-65.5 -26.5z" />
    <glyph glyph-name="Yacute" unicode="&#xdd;" horiz-adv-x="1339" 
d="M592 348v176q0 52 -7 93t-15 63t-25 59q-11 25 -159.5 268.5t-201.5 321.5q-71 106 -139 152q-50 32 -88 32q-20 0 -20 15q0 14 26 14q23 0 112.5 -3t90.5 -3q4 0 31 1.5t66.5 3t74.5 1.5q27 0 27 -14q0 -2 -1.5 -4t-4.5 -4t-6 -3t-9 -3.5t-10 -4.5q-27 -13 -27 -36
q0 -28 27 -80q30 -53 191 -330.5t186 -317.5q25 56 158 289t182 314q34 54 34 104q0 49 -32 57q-31 10 -31 21q0 12 33 12q31 0 81.5 -3t53.5 -3t89.5 3t109.5 3q26 0 26 -12q0 -17 -26 -17q-49 0 -95 -28q-29 -18 -50 -39t-58 -66q-50 -60 -206 -321.5t-185 -329.5
q-15 -35 -22 -73.5t-8 -62.5t-1 -69v-176q0 -119 6 -205q7 -102 84 -112q58 -8 92 -8q17 0 17 -13q0 -16 -33 -16q-50 0 -110 1.5t-100.5 3t-41.5 1.5q-3 0 -41 -1.5t-85.5 -3t-74.5 -1.5q-33 0 -33 16q0 13 17 13q25 0 61 8q57 11 64 112q6 86 6 205zM991 1911q3 -4 51 -90
q6 -13 3 -19t-11 -6l-10 1q-9 1 -22 1t-29 -2q-68 -7 -159 -33.5t-152 -52.5q-23 -10 -31 -10q-10 0 -10 12q0 9 14 17q47 33 151 97t127 77q46 26 58 26q7 0 20 -18z" />
    <glyph glyph-name="Thorn" unicode="&#xde;" horiz-adv-x="1325" 
d="M365 588v360q0 360 -5 443q-3 55 -21 80.5t-67 35.5q-24 6 -69 6q-17 0 -17 13q0 16 33 16q40 0 94.5 -1.5t93.5 -3t44 -1.5q3 0 43 1.5t97 3t101 1.5q33 0 33 -14q0 -6 -5 -10.5t-11 -4.5q-22 0 -80 -8q-89 -16 -92 -108q-1 -34 -2 -76.5t-2 -70.5t-1 -46q118 8 179 8
q89 0 159.5 -12.5t116.5 -35.5t64 -35.5t41 -32.5q39 -34 69.5 -101t30.5 -141q0 -217 -142 -352t-362 -135q-33 0 -43 2q-22 0 -22 14q0 12 10.5 15t44.5 3q149 0 251.5 96.5t102.5 237.5q0 200 -114 316q-36 36 -76 59.5t-80.5 31.5t-62 9.5t-52.5 1.5h-10q-61 0 -88 -12
q-17 -6 -17 -39v-514q0 -350 11 -445q5 -51 21.5 -78.5t58.5 -33.5q58 -8 92 -8q16 0 16 -13q0 -16 -33 -16q-50 0 -110 1.5t-100.5 3t-41.5 1.5t-37.5 -1.5t-84 -3t-74.5 -1.5q-33 0 -33 16q0 13 16 13q26 0 62 8q28 5 40 32.5t19 79.5q11 95 11 445z" />
    <glyph glyph-name="germandbls" unicode="&#xdf;" horiz-adv-x="2146" 
d="M428 -29q-163 0 -262 47q-19 9 -23 19.5t-4 46.5q0 38 2 75t5.5 71.5t3.5 37.5q0 29 14 29q16 0 16 -21q0 -38 6 -63q14 -60 60.5 -100.5t103 -56t121.5 -15.5q129 0 199.5 64.5t70.5 166.5q0 46 -11.5 82t-43.5 73t-68 67t-104 81l-82 62q-142 106 -200 192.5t-58 180.5
q0 152 109 239.5t290 87.5q101 0 187 -20q35 -8 63 -8q19 0 19 -13l-2 -22q-2 -22 -4 -65.5t-2 -96.5q0 -39 -15 -39q-13 0 -16 23q-5 46 -27 86q-6 10 -19.5 22t-39.5 28t-72 26t-102 10q-103 0 -171.5 -50t-68.5 -139q0 -82 49 -142t185 -153l51 -34q161 -110 228 -207.5
t67 -212.5q0 -188 -168 -297q-96 -62 -287 -62zM1501 -29q-163 0 -262 47q-19 9 -23 19.5t-4 46.5q0 38 2 75t5.5 71.5t3.5 37.5q0 29 14 29q16 0 16 -21q0 -34 7 -63q14 -60 60 -100.5t102.5 -56t121.5 -15.5q129 0 200 64.5t71 166.5q0 46 -11.5 82t-44 73t-68 67
t-104.5 81l-82 62q-142 106 -200 192.5t-58 180.5q0 152 109.5 239.5t290.5 87.5q100 0 186 -20q35 -8 63 -8q19 0 19 -13l-2 -22q-2 -22 -4 -65.5t-2 -96.5q0 -39 -15 -39q-13 0 -16 23q-5 46 -27 86q-6 10 -19.5 22t-39.5 28t-72 26t-102 10q-103 0 -171.5 -50t-68.5 -139
q0 -82 49 -142t185 -153l51 -34q161 -110 228 -207.5t67 -212.5q0 -188 -168 -297q-96 -62 -287 -62z" />
    <glyph glyph-name="agrave" unicode="&#xe0;" horiz-adv-x="1277" 
d="M168 186l424 1090q17 41 25.5 54t17.5 13q4 0 7 -1.5t6 -4.5t5.5 -6.5t5.5 -9.5l5.5 -11t6.5 -14.5t7 -15.5q13 -30 97 -236t186 -458t149 -363q23 -56 45.5 -93.5t42.5 -56.5t34 -26.5t32 -13.5q34 -10 71 -10q23 0 23 -15q0 -14 -41 -14q-160 0 -285 4q-58 3 -62 9
q-1 1 -1 3q0 7 12 13q30 12 16 47l-161 399q-5 10 -17 10h-416q-12 0 -18 -14l-102 -279q-27 -73 -27 -116q0 -47 61 -47h17q18 0 18 -15q0 -14 -26 -14q-24 0 -89.5 3t-72.5 3q-2 0 -70 -3t-112 -3q-35 0 -35 14q0 6 5 10.5t11 4.5q25 0 53 4q57 7 89.5 45.5t62.5 113.5z
M428 551h365q9 0 6 12l-178 477q-16 42 -31 0l-168 -477q-3 -12 6 -12zM743 1464q-37 0 -370 121q-60 22 -60 35q0 5 3.5 8t6.5 4t13 4q84 24 123 39q29 11 33 11t7.5 -4t9.5 -13t13 -16q16 -16 80.5 -65.5t120.5 -84.5q7 -5 18 -11t16 -9.5t5 -7.5q0 -11 -19 -11z" />
    <glyph glyph-name="aacute" unicode="&#xe1;" horiz-adv-x="1277" 
d="M168 186l424 1090q17 41 25.5 54t17.5 13q4 0 7 -1.5t6 -4.5t5.5 -6.5t5.5 -9.5l5.5 -11t6.5 -14.5t7 -15.5q13 -30 97 -236t186 -458t149 -363q23 -56 45.5 -93.5t42.5 -56.5t34 -26.5t32 -13.5q34 -10 71 -10q23 0 23 -15q0 -14 -41 -14q-160 0 -285 4q-58 3 -62 9
q-1 1 -1 3q0 7 12 13q30 12 16 47l-161 399q-5 10 -17 10h-416q-12 0 -18 -14l-102 -279q-27 -73 -27 -116q0 -47 61 -47h17q18 0 18 -15q0 -14 -26 -14q-24 0 -89.5 3t-72.5 3q-2 0 -70 -3t-112 -3q-35 0 -35 14q0 6 5 10.5t11 4.5q25 0 53 4q57 7 89.5 45.5t62.5 113.5z
M428 551h365q9 0 6 12l-178 477q-16 42 -31 0l-168 -477q-3 -12 6 -12zM901 1675q3 -4 51 -90q6 -13 3 -18.5t-11 -5.5l-10 1q-9 1 -22 1t-29 -2q-68 -7 -160 -33.5t-152 -52.5q-26 -11 -30 -11q-3 0 -7 4t-4 9q0 7 15 16q47 33 151 97t127 77q47 27 58 27q6 0 20 -19z" />
    <glyph glyph-name="acircumflex" unicode="&#xe2;" horiz-adv-x="1277" 
d="M168 186l424 1090q17 41 25.5 54t17.5 13q4 0 7 -1.5t6 -4.5t5.5 -6.5t5.5 -9.5l5.5 -11t6.5 -14.5t7 -15.5q13 -30 97 -236t186 -458t149 -363q23 -56 45.5 -93.5t42.5 -56.5t34 -26.5t32 -13.5q34 -10 71 -10q23 0 23 -15q0 -14 -41 -14q-160 0 -285 4q-58 3 -62 9
q-1 1 -1 3q0 7 12 13q30 12 16 47l-161 399q-5 10 -17 10h-416q-12 0 -18 -14l-102 -279q-27 -73 -27 -116q0 -47 61 -47h17q18 0 18 -15q0 -14 -26 -14q-24 0 -89.5 3t-72.5 3q-2 0 -70 -3t-112 -3q-35 0 -35 14q0 6 5 10.5t11 4.5q25 0 53 4q57 7 89.5 45.5t62.5 113.5z
M428 551h365q9 0 6 12l-178 477q-16 42 -31 0l-168 -477q-3 -12 6 -12zM899 1495l-43 -45q-12 -12 -18 -12q-10 0 -17 10q-28 31 -89 80t-83 61q-16 8 -20 8q-13 0 -33 -10q-54 -29 -174 -129q-23 -20 -37 -20q-6 0 -10 5t-4 11q0 7 12 23q15 15 113.5 106.5t115.5 106.5
q23 20 33 20q6 0 33 -20l96 -72q95 -72 111 -84q24 -16 24 -21q0 -3 -10 -18z" />
    <glyph glyph-name="atilde" unicode="&#xe3;" horiz-adv-x="1277" 
d="M168 186l424 1090q17 41 25.5 54t17.5 13q4 0 7 -1.5t6 -4.5t5.5 -6.5t5.5 -9.5l5.5 -11t6.5 -14.5t7 -15.5q13 -30 97 -236t186 -458t149 -363q23 -56 45.5 -93.5t42.5 -56.5t34 -26.5t32 -13.5q34 -10 71 -10q23 0 23 -15q0 -14 -41 -14q-160 0 -285 4q-58 3 -62 9
q-1 1 -1 3q0 7 12 13q30 12 16 47l-161 399q-5 10 -17 10h-416q-12 0 -18 -14l-102 -279q-27 -73 -27 -116q0 -47 61 -47h17q18 0 18 -15q0 -14 -26 -14q-24 0 -89.5 3t-72.5 3q-2 0 -70 -3t-112 -3q-35 0 -35 14q0 6 5 10.5t11 4.5q25 0 53 4q57 7 89.5 45.5t62.5 113.5z
M428 551h365q9 0 6 12l-178 477q-16 42 -31 0l-168 -477q-3 -12 6 -12zM784 1464q-19 0 -39 4t-39.5 11.5t-32 13t-30 14.5t-20.5 11q-5 2 -35 17.5t-53.5 22.5t-51.5 7q-15 0 -28.5 -3t-25.5 -9t-21 -12t-18 -14.5t-13.5 -13.5t-11 -13t-7.5 -9q-15 -18 -28 -18t-13 12
q0 9 15 31q31 49 81.5 97t94.5 48q10 0 21 -1.5t24.5 -6l22.5 -7.5t26 -11t24 -11.5t27.5 -13.5t26.5 -13q70 -34 119 -34q34 0 64.5 14.5t42 25t18.5 19.5q15 23 24 23q6 0 10.5 -4t4.5 -9q0 -8 -9 -26q-17 -35 -72.5 -88.5t-97.5 -53.5z" />
    <glyph glyph-name="adieresis" unicode="&#xe4;" horiz-adv-x="1277" 
d="M168 186l424 1090q17 41 25.5 54t17.5 13q4 0 7 -1.5t6 -4.5t5.5 -6.5t5.5 -9.5l5.5 -11t6.5 -14.5t7 -15.5q13 -30 97 -236t186 -458t149 -363q23 -56 45.5 -93.5t42.5 -56.5t34 -26.5t32 -13.5q34 -10 71 -10q23 0 23 -15q0 -14 -41 -14q-160 0 -285 4q-58 3 -62 9
q-1 1 -1 3q0 7 12 13q30 12 16 47l-161 399q-5 10 -17 10h-416q-12 0 -18 -14l-102 -279q-27 -73 -27 -116q0 -47 61 -47h17q18 0 18 -15q0 -14 -26 -14q-24 0 -89.5 3t-72.5 3q-2 0 -70 -3t-112 -3q-35 0 -35 14q0 6 5 10.5t11 4.5q25 0 53 4q57 7 89.5 45.5t62.5 113.5z
M428 551h365q9 0 6 12l-178 477q-16 42 -31 0l-168 -477q-3 -12 6 -12zM844 1464q-42 0 -64 27t-22 61q0 33 22.5 60.5t65.5 27.5q38 0 63 -22t25 -59q0 -41 -25 -68t-65 -27zM432 1464q-42 0 -64 27t-22 61q0 33 22.5 60.5t65.5 27.5q38 0 63 -22t25 -59q0 -41 -25 -68
t-65 -27z" />
    <glyph glyph-name="aring" unicode="&#xe5;" horiz-adv-x="1277" 
d="M168 186l424 1090q17 41 25.5 54t17.5 13q4 0 7 -1.5t6 -4.5t5.5 -6.5t5.5 -9.5l5.5 -11t6.5 -14.5t7 -15.5q13 -30 97 -236t186 -458t149 -363q23 -56 45.5 -93.5t42.5 -56.5t34 -26.5t32 -13.5q34 -10 71 -10q23 0 23 -15q0 -14 -41 -14q-160 0 -285 4q-58 3 -62 9
q-1 1 -1 3q0 7 12 13q30 12 16 47l-161 399q-5 10 -17 10h-416q-12 0 -18 -14l-102 -279q-27 -73 -27 -116q0 -47 61 -47h17q18 0 18 -15q0 -14 -26 -14q-24 0 -89.5 3t-72.5 3q-2 0 -70 -3t-112 -3q-35 0 -35 14q0 6 5 10.5t11 4.5q25 0 53 4q57 7 89.5 45.5t62.5 113.5z
M428 551h365q9 0 6 12l-178 477q-16 42 -31 0l-168 -477q-3 -12 6 -12zM596 1444q-75 0 -117.5 33.5t-42.5 87.5q0 71 69.5 123.5t172.5 52.5q77 0 122.5 -32t45.5 -85q1 -80 -76 -130t-174 -50zM629 1493q51 0 86 30.5t35 73.5q0 40 -27.5 67.5t-79.5 27.5
q-42 0 -79.5 -26.5t-37.5 -74.5q0 -43 32 -70.5t71 -27.5z" />
    <glyph glyph-name="ae" unicode="&#xe6;" horiz-adv-x="1669" 
d="M858 586h-319q-22 0 -31 -13q-34 -46 -203 -313q-80 -129 -80 -176q0 -35 35 -47q40 -14 78 -14q20 0 20 -17q0 -5 -9 -8.5t-21 -3.5q-44 0 -96.5 1.5t-89.5 3t-42 1.5q-4 0 -37 -1.5t-80 -3t-85 -1.5q-25 0 -25 14q0 10 21 10q36 0 75 19q13 6 25 13t23.5 16.5t20 15.5
t20.5 19l18 19.5t20 23.5t19 23.5t21 27.5t22 28q17 22 56 79t110.5 164.5t132.5 199t176 265.5t186 281q32 48 41 74q7 25 23 25q5 0 26 -2t31 -2h434q43 0 78 10q4 0 12.5 4t12.5 4q8 0 8 -16q0 -3 -6.5 -28.5t-8.5 -53.5q0 -4 -4 -53.5t-6 -61.5q-4 -18 -12 -18
q-18 0 -18 22q0 34 -11 62q-11 24 -33.5 34.5t-91.5 18.5q-46 6 -254 6q-12 0 -12 -18v-543q0 -19 12 -19q241 0 295 5q5 0 17 1.5t16 1.5t13 1.5t13 2.5t9.5 3.5t9 5t6.5 6.5q16 23 27 23q8 0 8 -15q0 -4 -2 -15.5t-5.5 -33.5t-6.5 -47q-6 -53 -6 -100q0 -27 -13 -27
q-18 0 -18 27q0 14 -6 32q-12 48 -103 56q-35 4 -254 4q-12 0 -12 -17v-71v-305q4 -87 42.5 -108t174.5 -21q127 0 174 18q35 15 51 40t25 79q5 24 21 24q12 0 12 -24q0 -13 -9 -78.5t-16 -89.5q-9 -32 -24.5 -38.5t-71.5 -6.5q-201 0 -315 6l-152 4q-1 0 -25.5 -1t-44.5 -1
q-66 -4 -98 -4q-29 0 -29 14q0 15 15 15q9 0 30.5 4t24.5 4q26 4 37 26.5t16 65.5q8 72 8 377v71q0 15 -16 15zM874 670v471q0 5 -2.5 6.5t-6 0t-7.5 -6.5q-23 -33 -152.5 -239t-142.5 -230q-11 -17 6 -17h289q16 0 16 15z" />
    <glyph glyph-name="ccedilla" unicode="&#xe7;" horiz-adv-x="1449" 
d="M856 -27q-92 -83 -121 -112q97 -9 151 -46.5t54 -99.5q0 -55 -42.5 -99t-102.5 -69q-79 -36 -160 -36q-27 0 -27 16q0 8 6 13t13.5 6.5t21.5 2.5q60 7 106 40t46 85q0 50 -32 88t-116 62q-30 8 -30 18q0 9 26 29l131 106q-268 28 -448 181q-219 189 -219 516
q0 67 16 140.5t63.5 167.5t122.5 167q195 186 549 186q149 0 262 -18q15 -2 82.5 -15t102.5 -14q22 0 22 -18q0 -6 -1 -16.5t-3 -33t-4 -49.5q-1 -26 -2 -95.5t-2 -82.5q-3 -37 -21 -37q-14 0 -14 37q0 51 -20.5 98.5t-55.5 75.5q-50 42 -144.5 69.5t-209.5 27.5
q-276 0 -405 -121q-93 -86 -127.5 -196.5t-34.5 -258.5q0 -125 48 -239.5t131.5 -201.5t206 -138.5t263.5 -51.5q113 0 180 16t117 66q26 26 45 70t25 76q3 15 6 19.5t12 4.5q6 0 11 -7.5t5 -16.5q0 -13 -15.5 -99t-27.5 -125q-8 -25 -15 -33.5t-30 -17.5q-100 -39 -325 -39
q-47 0 -70 2z" />
    <glyph glyph-name="egrave" unicode="&#xe8;" horiz-adv-x="1128" 
d="M317 500v307q0 320 -4 375q-3 48 -17 69t-56 27q-28 4 -62 4q-4 0 -9 5t-5 9q0 15 29 15q36 0 85.5 -1t85 -2t37.5 -1h430q20 1 82 10q2 1 11 4.5t14 3.5q8 0 8 -16q0 -4 -6 -29t-8 -53q0 -4 -4 -53.5t-6 -61.5q-4 -18 -17 -18q-14 0 -14 22q0 37 -10 62
q-9 23 -33.5 33.5t-95.5 19.5q-47 6 -260 6q-11 0 -11 -18v-474q0 -18 11 -18q260 0 301 4q69 6 88 25q22 22 26 22q11 0 11 -14q0 -3 -3 -15t-6.5 -34t-5.5 -47q-8 -70 -8 -113q0 -33 -16 -33q-13 0 -13 17q0 34 -8 57q-5 21 -24.5 34t-67.5 19q-65 8 -272 8q-13 0 -13 -12
v-145v-297q3 -88 42.5 -114t172.5 -26q131 0 181 19q36 15 55 42.5t26 78.5q5 26 19 26q12 0 12 -26q0 -12 -8.5 -77.5t-15.5 -90.5q-8 -32 -26 -38.5t-75 -6.5q-91 0 -313 6q-76 4 -150 4q-38 0 -77 -2q-70 -4 -105 -4q-29 0 -29 14q0 15 15 15q9 0 30.5 4t24.5 4
q17 3 26.5 17.5t12.5 27.5t8 47q10 72 10 377zM709 1464q-38 0 -371 121q-59 22 -59 35q0 10 22 16q84 24 123 39q29 11 33 11t7.5 -4t9.5 -13t13 -16q16 -16 80.5 -65.5t120.5 -84.5q7 -5 18 -11t16 -9.5t5 -7.5q0 -11 -18 -11z" />
    <glyph glyph-name="eacute" unicode="&#xe9;" horiz-adv-x="1128" 
d="M317 500v307q0 320 -4 375q-3 48 -17 69t-56 27q-28 4 -62 4q-4 0 -9 5t-5 9q0 15 29 15q36 0 85.5 -1t85 -2t37.5 -1h430q20 1 82 10q2 1 11 4.5t14 3.5q8 0 8 -16q0 -4 -6 -29t-8 -53q0 -4 -4 -53.5t-6 -61.5q-4 -18 -17 -18q-14 0 -14 22q0 37 -10 62
q-9 23 -33.5 33.5t-95.5 19.5q-47 6 -260 6q-11 0 -11 -18v-474q0 -18 11 -18q260 0 301 4q69 6 88 25q22 22 26 22q11 0 11 -14q0 -3 -3 -15t-6.5 -34t-5.5 -47q-8 -70 -8 -113q0 -33 -16 -33q-13 0 -13 17q0 34 -8 57q-5 21 -24.5 34t-67.5 19q-65 8 -272 8q-13 0 -13 -12
v-145v-297q3 -88 42.5 -114t172.5 -26q131 0 181 19q36 15 55 42.5t26 78.5q5 26 19 26q12 0 12 -26q0 -12 -8.5 -77.5t-15.5 -90.5q-8 -32 -26 -38.5t-75 -6.5q-91 0 -313 6q-76 4 -150 4q-38 0 -77 -2q-70 -4 -105 -4q-29 0 -29 14q0 15 15 15q9 0 30.5 4t24.5 4
q17 3 26.5 17.5t12.5 27.5t8 47q10 72 10 377zM825 1675q8 -11 52 -90q6 -13 2.5 -18.5t-11.5 -5.5l-10 1q-9 1 -22 1t-29 -2q-68 -7 -159 -33.5t-152 -52.5q-26 -11 -31 -11q-10 0 -10 13q0 8 14 16q47 33 150.5 96.5t128.5 77.5q47 27 57 27q6 0 20 -19z" />
    <glyph glyph-name="ecircumflex" unicode="&#xea;" horiz-adv-x="1128" 
d="M317 500v307q0 320 -4 375q-3 48 -17 69t-56 27q-28 4 -62 4q-4 0 -9 5t-5 9q0 15 29 15q36 0 85.5 -1t85 -2t37.5 -1h430q20 1 82 10q2 1 11 4.5t14 3.5q8 0 8 -16q0 -4 -6 -29t-8 -53q0 -4 -4 -53.5t-6 -61.5q-4 -18 -17 -18q-14 0 -14 22q0 37 -10 62
q-9 23 -33.5 33.5t-95.5 19.5q-47 6 -260 6q-11 0 -11 -18v-474q0 -18 11 -18q260 0 301 4q69 6 88 25q22 22 26 22q11 0 11 -14q0 -3 -3 -15t-6.5 -34t-5.5 -47q-8 -70 -8 -113q0 -33 -16 -33q-13 0 -13 17q0 34 -8 57q-5 21 -24.5 34t-67.5 19q-65 8 -272 8q-13 0 -13 -12
v-145v-297q3 -88 42.5 -114t172.5 -26q131 0 181 19q36 15 55 42.5t26 78.5q5 26 19 26q12 0 12 -26q0 -12 -8.5 -77.5t-15.5 -90.5q-8 -32 -26 -38.5t-75 -6.5q-91 0 -313 6q-76 4 -150 4q-38 0 -77 -2q-70 -4 -105 -4q-29 0 -29 14q0 15 15 15q9 0 30.5 4t24.5 4
q17 3 26.5 17.5t12.5 27.5t8 47q10 72 10 377zM844 1495l-43 -45q-12 -12 -19 -12q-8 0 -16 10q-28 31 -89 80t-83 61q-16 8 -21 8q-12 0 -32 -10q-54 -29 -174 -129q-23 -20 -37 -20q-6 0 -10.5 5t-4.5 11t13 23q15 15 113.5 106.5t115.5 106.5q23 20 33 20q6 0 33 -20
q3 -2 96.5 -73t109.5 -83q25 -17 25 -21q0 -3 -10 -18z" />
    <glyph glyph-name="edieresis" unicode="&#xeb;" horiz-adv-x="1128" 
d="M317 500v307q0 320 -4 375q-3 48 -17 69t-56 27q-28 4 -62 4q-4 0 -9 5t-5 9q0 15 29 15q36 0 85.5 -1t85 -2t37.5 -1h430q20 1 82 10q2 1 11 4.5t14 3.5q8 0 8 -16q0 -4 -6 -29t-8 -53q0 -4 -4 -53.5t-6 -61.5q-4 -18 -17 -18q-14 0 -14 22q0 37 -10 62
q-9 23 -33.5 33.5t-95.5 19.5q-47 6 -260 6q-11 0 -11 -18v-474q0 -18 11 -18q260 0 301 4q69 6 88 25q22 22 26 22q11 0 11 -14q0 -3 -3 -15t-6.5 -34t-5.5 -47q-8 -70 -8 -113q0 -33 -16 -33q-13 0 -13 17q0 34 -8 57q-5 21 -24.5 34t-67.5 19q-65 8 -272 8q-13 0 -13 -12
v-145v-297q3 -88 42.5 -114t172.5 -26q131 0 181 19q36 15 55 42.5t26 78.5q5 26 19 26q12 0 12 -26q0 -12 -8.5 -77.5t-15.5 -90.5q-8 -32 -26 -38.5t-75 -6.5q-91 0 -313 6q-76 4 -150 4q-38 0 -77 -2q-70 -4 -105 -4q-29 0 -29 14q0 15 15 15q9 0 30.5 4t24.5 4
q17 3 26.5 17.5t12.5 27.5t8 47q10 72 10 377zM768 1464q-42 0 -64 27t-22 61q0 33 22.5 60.5t65.5 27.5q38 0 63 -22t25 -59q0 -41 -25 -68t-65 -27zM356 1464q-42 0 -64 27t-22 61q0 33 22.5 60.5t65.5 27.5q38 0 63 -22t25 -59q0 -41 -25 -68t-65 -27z" />
    <glyph glyph-name="igrave" unicode="&#xec;" horiz-adv-x="796" 
d="M481 807v-307q0 -305 8 -377q5 -45 17.5 -66t48.5 -26q54 -8 82 -8q14 0 14 -15q0 -14 -28 -14q-44 0 -98.5 1.5t-90.5 3t-37 1.5q-3 0 -36.5 -1.5t-75.5 -3t-66 -1.5q-29 0 -29 14q0 15 15 15q23 0 55 8q24 5 33 26t14 66q10 90 10 377v307q0 320 -4 375
q-3 45 -15.5 66.5t-41.5 27.5q-30 6 -55 6q-6 0 -10.5 4.5t-4.5 9.5q0 15 29 15q26 0 69 -1t76.5 -2t36.5 -1q2 0 36 1t77.5 2t67.5 1q28 0 28 -15q0 -4 -5 -9t-9 -5q-25 0 -45 -4q-35 -7 -48 -27.5t-16 -68.5q-2 -55 -2 -375zM502 1464q-38 0 -371 121q-59 22 -59 35
q0 10 22 16q84 24 123 39q29 11 33 11t7.5 -4t10 -13t13.5 -16q16 -16 80 -65.5t120 -84.5q7 -5 18 -11t16 -9.5t5 -7.5q0 -11 -18 -11z" />
    <glyph glyph-name="iacute" unicode="&#xed;" horiz-adv-x="796" 
d="M481 807v-307q0 -305 8 -377q5 -45 17.5 -66t48.5 -26q54 -8 82 -8q14 0 14 -15q0 -14 -28 -14q-44 0 -98.5 1.5t-90.5 3t-37 1.5q-3 0 -36.5 -1.5t-75.5 -3t-66 -1.5q-29 0 -29 14q0 15 15 15q23 0 55 8q24 5 33 26t14 66q10 90 10 377v307q0 320 -4 375
q-3 45 -15.5 66.5t-41.5 27.5q-30 6 -55 6q-6 0 -10.5 4.5t-4.5 9.5q0 15 29 15q26 0 69 -1t76.5 -2t36.5 -1q2 0 36 1t77.5 2t67.5 1q28 0 28 -15q0 -4 -5 -9t-9 -5q-25 0 -45 -4q-35 -7 -48 -27.5t-16 -68.5q-2 -55 -2 -375zM659 1675q8 -11 52 -90q6 -13 2.5 -18.5
t-11.5 -5.5l-10 1q-9 1 -22 1t-29 -2q-68 -7 -159 -33.5t-152 -52.5q-26 -11 -31 -11q-10 0 -10 13q0 8 14 16q47 33 150.5 96.5t128.5 77.5q47 27 57 27q6 0 20 -19z" />
    <glyph glyph-name="icircumflex" unicode="&#xee;" horiz-adv-x="796" 
d="M481 807v-307q0 -305 8 -377q5 -45 17.5 -66t48.5 -26q54 -8 82 -8q14 0 14 -15q0 -14 -28 -14q-44 0 -98.5 1.5t-90.5 3t-37 1.5q-3 0 -36.5 -1.5t-75.5 -3t-66 -1.5q-29 0 -29 14q0 15 15 15q23 0 55 8q24 5 33 26t14 66q10 90 10 377v307q0 320 -4 375
q-3 45 -15.5 66.5t-41.5 27.5q-30 6 -55 6q-6 0 -10.5 4.5t-4.5 9.5q0 15 29 15q26 0 69 -1t76.5 -2t36.5 -1q2 0 36 1t77.5 2t67.5 1q28 0 28 -15q0 -4 -5 -9t-9 -5q-25 0 -45 -4q-35 -7 -48 -27.5t-16 -68.5q-2 -55 -2 -375zM657 1495l-43 -45q-12 -12 -18 -12
q-8 0 -16 10q-28 31 -89 80t-83 61q-16 8 -21 8q-13 0 -33 -10q-54 -29 -174 -129q-23 -20 -37 -20q-6 0 -10 5t-4 11q0 7 12 23q15 15 113.5 106.5t116.5 106.5q23 20 32 20q6 0 33 -20l96 -72q95 -72 111 -84q25 -17 25 -21q0 -1 -11 -18z" />
    <glyph glyph-name="idieresis" unicode="&#xef;" horiz-adv-x="796" 
d="M481 807v-307q0 -305 8 -377q5 -45 17.5 -66t48.5 -26q54 -8 82 -8q14 0 14 -15q0 -14 -28 -14q-44 0 -98.5 1.5t-90.5 3t-37 1.5q-3 0 -36.5 -1.5t-75.5 -3t-66 -1.5q-29 0 -29 14q0 15 15 15q23 0 55 8q24 5 33 26t14 66q10 90 10 377v307q0 320 -4 375
q-3 45 -15.5 66.5t-41.5 27.5q-30 6 -55 6q-6 0 -10.5 4.5t-4.5 9.5q0 15 29 15q26 0 69 -1t76.5 -2t36.5 -1q2 0 36 1t77.5 2t67.5 1q28 0 28 -15q0 -4 -5 -9t-9 -5q-25 0 -45 -4q-35 -7 -48 -27.5t-16 -68.5q-2 -55 -2 -375zM602 1464q-42 0 -64 27t-22 61q0 33 22.5 60.5
t65.5 27.5q38 0 63 -22t25 -59q0 -41 -25 -68t-65 -27zM190 1464q-42 0 -64 27t-22 61q0 33 23 60.5t66 27.5q38 0 63 -22t25 -59q0 -41 -25 -68t-66 -27z" />
    <glyph glyph-name="eth" unicode="&#xf0;" horiz-adv-x="1656" 
d="M317 692v115q0 320 -4 375q-3 48 -17 69t-56 27q-28 4 -62 4q-4 0 -9 5t-5 9q0 15 29 15q36 0 84.5 -1t83 -2t36.5 -1q6 0 46 1t96.5 2t103.5 1h35h87t94.5 -3.5t105.5 -10.5t103.5 -21.5t107 -35.5t98 -53.5t92.5 -74.5q176 -176 176 -442q0 -153 -55 -278.5
t-139 -211.5q-195 -200 -547 -200q-54 0 -254 10q-133 10 -150 10q-1 0 -11 -0.5t-27 -1t-33 -0.5q-74 -4 -107 -4q-29 0 -29 14q0 15 15 15q23 0 55 8q17 4 26.5 18t12.5 27t8 47q10 72 10 377v125h-155q-10 0 -12 4t0 14l6 35q2 14 22 14h139zM481 623v-93q0 -261 2 -290
q5 -104 21 -125q49 -70 299 -70q124 0 234 41.5t190 118.5q68 64 103.5 174.5t35.5 236.5q0 267 -168 435q-61 62 -130.5 102.5t-148 59.5t-148 25.5t-161.5 6.5q-91 0 -106 -12q-23 -9 -23 -35v-504h365q18 0 12 -18l-6 -39q-2 -14 -25 -14h-346z" />
    <glyph glyph-name="ntilde" unicode="&#xf1;" horiz-adv-x="1705" 
d="M373 1053l20 -822q3 -106 18 -147.5t52 -50.5q41 -10 90 -10q14 0 14 -15q0 -14 -32 -14q-45 0 -89 1.5t-71 3t-31 1.5q-5 0 -32 -1.5t-66.5 -3t-75.5 -1.5q-29 0 -29 14q0 6 4.5 10.5t10.5 4.5q39 0 73 10q33 9 42.5 52t9.5 165v997q0 88 24 88q17 0 70 -53
q9 -9 91.5 -96t219 -230t258.5 -268q105 -109 261 -273.5t165 -174.5l-18 872q-2 88 -15 121.5t-53 40.5q-44 8 -88 8q-14 0 -14 16q0 13 35 13q49 0 117.5 -2t70.5 -2q3 0 56.5 2t97.5 2q32 0 32 -13q0 -5 -6 -10.5t-14 -5.5q-23 0 -43 -4q-42 -9 -53 -38.5t-11 -113.5
l-4 -1020q0 -45 -0.5 -68t-2 -36.5t-4 -16.5t-7.5 -3q-14 0 -38.5 19t-98.5 87q-11 10 -84 81.5t-186 185.5t-199 204q-391 410 -467 494zM997 1464q-19 0 -39 4t-39.5 11.5t-32 13t-30 14.5t-20.5 11q-5 2 -35 17.5t-53.5 22.5t-51.5 7q-15 0 -28.5 -3t-25.5 -9t-21 -12
t-18 -14.5t-13.5 -13.5t-11 -13t-7.5 -9q-15 -18 -28 -18t-13 12q0 9 15 31q31 49 81.5 97t94.5 48q10 0 21 -1.5t24.5 -6l22.5 -7.5t26 -11t24 -11.5t27.5 -13.5t26.5 -13q70 -34 119 -34q34 0 64.5 14.5t42 25t18.5 19.5q15 23 24 23q6 0 10.5 -4t4.5 -9q0 -8 -9 -26
q-17 -35 -72.5 -88.5t-97.5 -53.5z" />
    <glyph glyph-name="ograve" unicode="&#xf2;" horiz-adv-x="1654" 
d="M113 655q0 87 25.5 178.5t83 182t138.5 161t202.5 114.5t264.5 44q204 0 364.5 -77.5t254.5 -227.5t94 -348q0 -145 -52.5 -275t-145.5 -226.5t-229.5 -153t-295.5 -56.5q-143 0 -262.5 41t-199.5 109.5t-136 158t-81 184t-25 191.5zM299 702q0 -149 43 -273.5
t119 -208.5t180.5 -130.5t226.5 -46.5q38 0 78 6t89.5 23t93 44t86 73.5t73 106t49.5 146.5t19 191q0 152 -44 275t-119 201t-171.5 119.5t-204.5 41.5q-114 0 -208 -36t-163.5 -105.5t-108 -178.5t-38.5 -248zM932 1464q-38 0 -371 121q-59 22 -59 35q0 10 22 16
q84 24 123 39q29 11 33 11t7.5 -4t10 -13t13.5 -16q16 -16 80 -65.5t120 -84.5q7 -5 18 -11t16 -9.5t5 -7.5q0 -11 -18 -11z" />
    <glyph glyph-name="oacute" unicode="&#xf3;" horiz-adv-x="1654" 
d="M113 655q0 87 25.5 178.5t83 182t138.5 161t202.5 114.5t264.5 44q204 0 364.5 -77.5t254.5 -227.5t94 -348q0 -145 -52.5 -275t-145.5 -226.5t-229.5 -153t-295.5 -56.5q-143 0 -262.5 41t-199.5 109.5t-136 158t-81 184t-25 191.5zM299 702q0 -149 43 -273.5
t119 -208.5t180.5 -130.5t226.5 -46.5q38 0 78 6t89.5 23t93 44t86 73.5t73 106t49.5 146.5t19 191q0 152 -44 275t-119 201t-171.5 119.5t-204.5 41.5q-114 0 -208 -36t-163.5 -105.5t-108 -178.5t-38.5 -248zM1090 1675q3 -4 51 -90q6 -13 3 -18.5t-11 -5.5l-9 1
q-10 1 -23.5 1t-29.5 -2q-68 -7 -159 -33.5t-152 -52.5q-26 -11 -31 -11q-10 0 -10 13q0 8 14 16q47 33 150.5 96.5t128.5 77.5q47 27 57 27q7 0 21 -19z" />
    <glyph glyph-name="ocircumflex" unicode="&#xf4;" horiz-adv-x="1654" 
d="M113 655q0 87 25.5 178.5t83 182t138.5 161t202.5 114.5t264.5 44q204 0 364.5 -77.5t254.5 -227.5t94 -348q0 -145 -52.5 -275t-145.5 -226.5t-229.5 -153t-295.5 -56.5q-143 0 -262.5 41t-199.5 109.5t-136 158t-81 184t-25 191.5zM299 702q0 -149 43 -273.5
t119 -208.5t180.5 -130.5t226.5 -46.5q38 0 78 6t89.5 23t93 44t86 73.5t73 106t49.5 146.5t19 191q0 152 -44 275t-119 201t-171.5 119.5t-204.5 41.5q-114 0 -208 -36t-163.5 -105.5t-108 -178.5t-38.5 -248zM1087 1495l-43 -45q-12 -12 -18 -12q-9 0 -16 10
q-28 31 -89 80t-83 61q-16 8 -21 8q-13 0 -33 -10q-54 -29 -174 -129q-23 -20 -37 -20q-6 0 -10 5t-4 11q0 7 12 23q15 15 113.5 106.5t116.5 106.5q23 20 33 20q5 0 32 -20l96 -72q95 -72 111 -84q25 -17 25 -21q0 -1 -11 -18z" />
    <glyph glyph-name="otilde" unicode="&#xf5;" horiz-adv-x="1654" 
d="M113 655q0 87 25.5 178.5t83 182t138.5 161t202.5 114.5t264.5 44q204 0 364.5 -77.5t254.5 -227.5t94 -348q0 -145 -52.5 -275t-145.5 -226.5t-229.5 -153t-295.5 -56.5q-143 0 -262.5 41t-199.5 109.5t-136 158t-81 184t-25 191.5zM299 702q0 -149 43 -273.5
t119 -208.5t180.5 -130.5t226.5 -46.5q38 0 78 6t89.5 23t93 44t86 73.5t73 106t49.5 146.5t19 191q0 152 -44 275t-119 201t-171.5 119.5t-204.5 41.5q-114 0 -208 -36t-163.5 -105.5t-108 -178.5t-38.5 -248zM991 1464q-19 0 -39 4t-39.5 11.5t-32.5 13t-30.5 15
t-20.5 10.5q-5 2 -34.5 17.5t-53 22.5t-51.5 7q-15 0 -28.5 -3t-25.5 -9t-21 -12t-18 -14.5t-13.5 -13.5t-11 -13t-7.5 -9q-15 -18 -28 -18t-13 12q0 9 15 31q31 49 81.5 97t94.5 48q10 0 21 -1.5t24.5 -6l22.5 -7.5t26 -11t24 -11.5t27.5 -13.5t26.5 -13q70 -34 119 -34
q34 0 64.5 14.5t41.5 25t18 19.5q15 23 25 23q6 0 10 -4t4 -9q0 -10 -8 -26q-17 -35 -72.5 -88.5t-97.5 -53.5z" />
    <glyph glyph-name="odieresis" unicode="&#xf6;" horiz-adv-x="1654" 
d="M113 655q0 87 25.5 178.5t83 182t138.5 161t202.5 114.5t264.5 44q204 0 364.5 -77.5t254.5 -227.5t94 -348q0 -145 -52.5 -275t-145.5 -226.5t-229.5 -153t-295.5 -56.5q-143 0 -262.5 41t-199.5 109.5t-136 158t-81 184t-25 191.5zM299 702q0 -149 43 -273.5
t119 -208.5t180.5 -130.5t226.5 -46.5q38 0 78 6t89.5 23t93 44t86 73.5t73 106t49.5 146.5t19 191q0 152 -44 275t-119 201t-171.5 119.5t-204.5 41.5q-114 0 -208 -36t-163.5 -105.5t-108 -178.5t-38.5 -248zM1032 1464q-42 0 -64 27t-22 61q0 33 22.5 60.5t65.5 27.5
q38 0 63 -22t25 -59q0 -41 -25 -68t-65 -27zM621 1464q-42 0 -64 27t-22 61q0 33 22.5 60.5t65.5 27.5q38 0 63 -22t25 -59q0 -41 -25 -68t-65 -27z" />
    <glyph glyph-name="divide" unicode="&#xf7;" horiz-adv-x="1044" 
d="M526 758q-44 -1 -72 28t-28 72q0 46 27.5 75.5t70.5 29.5q44 0 74.5 -29t30.5 -72q2 -44 -27.5 -74t-75.5 -30zM958 602v-104h-872v104h872zM524 137q-42 -1 -70 28.5t-28 72.5q0 46 27.5 75t70.5 29q44 0 74.5 -28.5t30.5 -71.5q2 -45 -28 -75t-77 -30z" />
    <glyph glyph-name="oslash" unicode="&#xf8;" horiz-adv-x="1654" 
d="M367 115l-156 -164q-6 -9 -18 0l-41 35q-12 12 -5 18l158 162q-96 94 -144 224t-48 265q0 87 25.5 178.5t82.5 182t137.5 161t202 114.5t264.5 44q279 0 467 -143l150 160q9 13 26 -4l35 -35q11 -11 0 -23l-145 -149q182 -182 182 -459q0 -145 -52 -275t-145 -226.5
t-229 -153t-295 -56.5q-274 0 -452 144zM1251 1034l-786 -819q156 -172 401 -172q57 0 115 12.5t127.5 52t122 101t88 171.5t35.5 253q0 242 -103 401zM416 274l784 824q-75 86 -175 129t-212 43q-232 0 -374 -147t-142 -421q0 -256 119 -428z" />
    <glyph glyph-name="ugrave" unicode="&#xf9;" horiz-adv-x="1499" 
d="M225 551v256q0 320 -4 375q-3 46 -18 68t-56 28q-28 4 -61 4q-4 0 -9 5t-5 9q0 15 28 15q36 0 84 -1t83 -2t40 -1q3 0 77 2t105 2t31 -15q0 -5 -5 -9.5t-11 -4.5q-22 0 -45 -4q-33 -6 -46 -28t-16 -68q-4 -55 -4 -375v-244q0 -176 34 -272t99 -154q62 -56 123 -75
t146 -19q82 0 157 33.5t121 89.5q59 70 81 172.5t22 249.5v219q0 237 -5 375q-2 46 -16 68t-55 28q-28 4 -62 4q-6 0 -10 4.5t-4 9.5q0 15 29 15q35 0 81 -1t78.5 -2t34.5 -1q1 0 60.5 2t91.5 2q28 0 28 -15q0 -5 -4 -9.5t-10 -4.5q-22 0 -45 -4q-35 -7 -47.5 -28.5
t-15.5 -67.5q-2 -27 -2 -375v-186q0 -170 -35.5 -304.5t-132.5 -218.5q-147 -127 -377 -127q-244 0 -375 123q-75 70 -116.5 175.5t-41.5 281.5zM893 1464q-38 0 -371 121q-59 22 -59 35q0 10 22 16q84 24 123 39q29 11 33 11t7.5 -4t10 -13t13.5 -16q16 -16 80 -65.5
t120 -84.5q7 -5 18 -11t16 -9.5t5 -7.5q0 -11 -18 -11z" />
    <glyph glyph-name="uacute" unicode="&#xfa;" horiz-adv-x="1499" 
d="M225 551v256q0 320 -4 375q-3 46 -18 68t-56 28q-28 4 -61 4q-4 0 -9 5t-5 9q0 15 28 15q36 0 84 -1t83 -2t40 -1q3 0 77 2t105 2t31 -15q0 -5 -5 -9.5t-11 -4.5q-22 0 -45 -4q-33 -6 -46 -28t-16 -68q-4 -55 -4 -375v-244q0 -176 34 -272t99 -154q62 -56 123 -75
t146 -19q82 0 157 33.5t121 89.5q59 70 81 172.5t22 249.5v219q0 237 -5 375q-2 46 -16 68t-55 28q-28 4 -62 4q-6 0 -10 4.5t-4 9.5q0 15 29 15q35 0 81 -1t78.5 -2t34.5 -1q1 0 60.5 2t91.5 2q28 0 28 -15q0 -5 -4 -9.5t-10 -4.5q-22 0 -45 -4q-35 -7 -47.5 -28.5
t-15.5 -67.5q-2 -27 -2 -375v-186q0 -170 -35.5 -304.5t-132.5 -218.5q-147 -127 -377 -127q-244 0 -375 123q-75 70 -116.5 175.5t-41.5 281.5zM1012 1675q3 -4 51 -90q6 -13 3 -18.5t-11 -5.5l-9 1q-10 1 -23.5 1t-29.5 -2q-68 -7 -159 -33.5t-152 -52.5q-26 -11 -31 -11
q-10 0 -10 13q0 8 14 16q47 33 150.5 96.5t128.5 77.5q47 27 57 27q7 0 21 -19z" />
    <glyph glyph-name="ucircumflex" unicode="&#xfb;" horiz-adv-x="1499" 
d="M225 551v256q0 320 -4 375q-3 46 -18 68t-56 28q-28 4 -61 4q-4 0 -9 5t-5 9q0 15 28 15q36 0 84 -1t83 -2t40 -1q3 0 77 2t105 2t31 -15q0 -5 -5 -9.5t-11 -4.5q-22 0 -45 -4q-33 -6 -46 -28t-16 -68q-4 -55 -4 -375v-244q0 -176 34 -272t99 -154q62 -56 123 -75
t146 -19q82 0 157 33.5t121 89.5q59 70 81 172.5t22 249.5v219q0 237 -5 375q-2 46 -16 68t-55 28q-28 4 -62 4q-6 0 -10 4.5t-4 9.5q0 15 29 15q35 0 81 -1t78.5 -2t34.5 -1q1 0 60.5 2t91.5 2q28 0 28 -15q0 -5 -4 -9.5t-10 -4.5q-22 0 -45 -4q-35 -7 -47.5 -28.5
t-15.5 -67.5q-2 -27 -2 -375v-186q0 -170 -35.5 -304.5t-132.5 -218.5q-147 -127 -377 -127q-244 0 -375 123q-75 70 -116.5 175.5t-41.5 281.5zM1010 1495l-43 -45q-12 -12 -19 -12q-9 0 -16 10q-28 31 -89 80t-83 61q-16 8 -21 8q-12 0 -32 -10q-57 -30 -175 -129
q-23 -20 -36 -20q-6 0 -10.5 5t-4.5 11t13 23q15 15 113.5 106.5t115.5 106.5q23 20 33 20q5 0 32 -20l96 -72q95 -72 111 -84q25 -17 25 -21q0 -3 -10 -18z" />
    <glyph glyph-name="udieresis" unicode="&#xfc;" horiz-adv-x="1499" 
d="M225 551v256q0 320 -4 375q-3 46 -18 68t-56 28q-28 4 -61 4q-4 0 -9 5t-5 9q0 15 28 15q36 0 84 -1t83 -2t40 -1q3 0 77 2t105 2t31 -15q0 -5 -5 -9.5t-11 -4.5q-22 0 -45 -4q-33 -6 -46 -28t-16 -68q-4 -55 -4 -375v-244q0 -176 34 -272t99 -154q62 -56 123 -75
t146 -19q82 0 157 33.5t121 89.5q59 70 81 172.5t22 249.5v219q0 237 -5 375q-2 46 -16 68t-55 28q-28 4 -62 4q-6 0 -10 4.5t-4 9.5q0 15 29 15q35 0 81 -1t78.5 -2t34.5 -1q1 0 60.5 2t91.5 2q28 0 28 -15q0 -5 -4 -9.5t-10 -4.5q-22 0 -45 -4q-35 -7 -47.5 -28.5
t-15.5 -67.5q-2 -27 -2 -375v-186q0 -170 -35.5 -304.5t-132.5 -218.5q-147 -127 -377 -127q-244 0 -375 123q-75 70 -116.5 175.5t-41.5 281.5zM993 1464q-42 0 -64 27t-22 61q0 33 22.5 60.5t65.5 27.5q38 0 63 -22t25 -59q0 -41 -25 -68t-65 -27zM582 1464q-42 0 -64 27
t-22 61q0 33 22.5 60.5t65.5 27.5q38 0 63 -22t25 -59q0 -41 -25 -68t-65 -27z" />
    <glyph glyph-name="yacute" unicode="&#xfd;" horiz-adv-x="1179" 
d="M522 297v149q0 67 -8.5 103t-30.5 76q-10 20 -141.5 227.5t-177.5 277.5q-53 81 -119 127q-42 25 -76 25q-7 0 -12.5 5t-5.5 11q0 13 22 13q21 0 99.5 -2t79.5 -2q3 0 28 1t60.5 2t66.5 1q25 0 25 -13q0 -7 -29 -18q-22 -9 -22 -29q0 -21 24 -67l328 -543q16 33 81 143.5
t135.5 228.5t78.5 132q30 51 30 90q0 37 -28 45q-27 7 -27 20q0 11 29 11q28 0 75 -2t50 -2t79.5 2t96.5 2q22 0 22 -11q0 -7 -6 -12.5t-16 -5.5q-44 0 -84 -22q-24 -14 -40.5 -30t-49.5 -56q-42 -49 -181 -270.5t-169 -282.5q-9 -17 -14.5 -35t-7 -38t-2 -32.5t0 -36.5
t0.5 -33v-149q0 -102 6 -174q3 -42 18 -64t52 -28q50 -8 82 -8q14 0 14 -15q0 -14 -29 -14q-44 0 -98 1.5t-90.5 3t-38.5 1.5t-35.5 -1.5t-75.5 -3t-65 -1.5q-29 0 -29 14q0 15 15 15q21 0 53 8q47 10 53 92q4 72 4 174zM852 1675q3 -4 51 -90q6 -13 3 -18.5t-11 -5.5l-9 1
q-10 1 -23 1t-29 -2q-68 -7 -160 -33.5t-152 -52.5q-26 -11 -30 -11t-7.5 4t-3.5 9q0 7 15 16q47 33 151 97t127 77q47 27 57 27q7 0 21 -19z" />
    <glyph glyph-name="thorn" unicode="&#xfe;" horiz-adv-x="1200" 
d="M317 500v307q0 320 -4 375q-3 47 -18 68.5t-55 27.5q-28 4 -62 4q-4 0 -9 5t-5 9q0 15 29 15q36 0 83.5 -1t82 -2t38.5 -1q2 0 38 1t87 2t90 1q31 0 31 -13q0 -5 -5 -10.5t-11 -5.5q-33 0 -70 -6q-76 -11 -76 -88q-4 -148 -4 -164q71 6 156 6q242 0 358 -100
q35 -30 64.5 -89.5t29.5 -123.5q0 -180 -137 -293t-334 -113q-33 0 -43 2q-18 0 -18 13q0 20 47 20q134 0 230 86t96 213q0 31 -5.5 65.5t-30 88.5t-65.5 94q-13 13 -28.5 24t-29 19t-31 14.5t-30 10.5t-30 7t-28 4.5t-27 2t-22.5 0.5h-19.5h-14.5q-37 0 -73 -12
q-15 -6 -15 -33v-430q0 -305 8 -377q5 -44 18.5 -65t51.5 -27q50 -8 78 -8q14 0 14 -15q0 -14 -29 -14q-43 0 -97 1.5t-90.5 3t-37.5 1.5t-33.5 -1.5t-74.5 -3t-66 -1.5q-29 0 -29 14q0 15 15 15q21 0 53 8q24 5 33 25.5t16 66.5q10 72 10 377z" />
    <glyph glyph-name="ydieresis" unicode="&#xff;" horiz-adv-x="1179" 
d="M522 297v149q0 67 -8.5 103t-30.5 76q-10 20 -141.5 227.5t-177.5 277.5q-53 81 -119 127q-42 25 -76 25q-7 0 -12.5 5t-5.5 11q0 13 22 13q21 0 99.5 -2t79.5 -2q3 0 28 1t60.5 2t66.5 1q25 0 25 -13q0 -7 -29 -18q-22 -9 -22 -29q0 -21 24 -67l328 -543q16 33 81 143.5
t135.5 228.5t78.5 132q30 51 30 90q0 37 -28 45q-27 7 -27 20q0 11 29 11q28 0 75 -2t50 -2t79.5 2t96.5 2q22 0 22 -11q0 -7 -6 -12.5t-16 -5.5q-44 0 -84 -22q-24 -14 -40.5 -30t-49.5 -56q-42 -49 -181 -270.5t-169 -282.5q-9 -17 -14.5 -35t-7 -38t-2 -32.5t0 -36.5
t0.5 -33v-149q0 -102 6 -174q3 -42 18 -64t52 -28q50 -8 82 -8q14 0 14 -15q0 -14 -29 -14q-44 0 -98 1.5t-90.5 3t-38.5 1.5t-35.5 -1.5t-75.5 -3t-65 -1.5q-29 0 -29 14q0 15 15 15q21 0 53 8q47 10 53 92q4 72 4 174zM813 1464q-42 0 -64 27t-22 61q0 33 22.5 60.5
t65.5 27.5q38 0 63 -22t25 -59q0 -41 -25 -68t-65 -27zM401 1464q-42 0 -64 27t-22 61q0 33 22.5 60.5t65.5 27.5q38 0 63.5 -22t25.5 -59q0 -41 -25 -68t-66 -27z" />
    <glyph glyph-name="Amacron" unicode="&#x100;" horiz-adv-x="1433" 
d="M195 219l464 1272q18 49 27.5 64.5t18.5 15.5t18 -14t27 -60q9 -23 104 -271t206.5 -537.5t166.5 -426.5q26 -65 51.5 -110t48.5 -68t40 -33.5t36 -15.5q37 -12 82 -12q20 0 20 -13q0 -16 -41 -16q-180 0 -321 4h-10q-48 3 -51 11q-1 1 -1 3q0 11 15 15q11 4 15 17t-3 38
l-190 504q-6 12 -19 12h-440q-15 0 -21 -16l-123 -363q-28 -79 -28 -137q0 -28 24 -43.5t54 -15.5h20q21 0 21 -13q0 -16 -31 -16q-28 0 -90 3t-70 3q-2 0 -88 -3t-143 -3q-39 0 -39 16q0 13 18 13q28 0 60 4q65 8 102.5 55.5t69.5 136.5zM481 672h391q12 0 9 14l-195 553
q-16 48 -31 0l-180 -553q-6 -14 6 -14zM487 1843h482q11 0 15 -6t1 -14l-16 -45q-3 -13 -19 -13h-481q-11 0 -16 3t-4 12l16 51q2 12 22 12z" />
    <glyph glyph-name="amacron" unicode="&#x101;" horiz-adv-x="1277" 
d="M168 186l424 1090q17 41 25.5 54t17.5 13q4 0 7 -1.5t6 -4.5t5.5 -6.5t5.5 -9.5l5.5 -11t6.5 -14.5t7 -15.5q13 -30 97 -236t186 -458t149 -363q23 -56 45.5 -93.5t42.5 -56.5t34 -26.5t32 -13.5q34 -10 71 -10q23 0 23 -15q0 -14 -41 -14q-160 0 -285 4q-58 3 -62 9
q-1 1 -1 3q0 7 12 13q30 12 16 47l-161 399q-5 10 -17 10h-416q-12 0 -18 -14l-102 -279q-27 -73 -27 -116q0 -47 61 -47h17q18 0 18 -15q0 -14 -26 -14q-24 0 -89.5 3t-72.5 3q-2 0 -70 -3t-112 -3q-35 0 -35 14q0 6 5 10.5t11 4.5q25 0 53 4q57 7 89.5 45.5t62.5 113.5z
M428 551h365q9 0 6 12l-178 477q-16 42 -31 0l-168 -477q-3 -12 6 -12zM410 1608h481q11 0 15 -6.5t1 -14.5l-16 -45q-3 -12 -19 -12h-481q-12 0 -16.5 3t-3.5 11l16 51q3 13 23 13z" />
    <glyph glyph-name="Abreve" unicode="&#x102;" horiz-adv-x="1433" 
d="M195 219l464 1272q18 49 27.5 64.5t18.5 15.5t18 -14t27 -60q9 -23 104 -271t206.5 -537.5t166.5 -426.5q26 -65 51.5 -110t48.5 -68t40 -33.5t36 -15.5q37 -12 82 -12q20 0 20 -13q0 -16 -41 -16q-180 0 -321 4h-10q-48 3 -51 11q-1 1 -1 3q0 11 15 15q11 4 15 17t-3 38
l-190 504q-6 12 -19 12h-440q-15 0 -21 -16l-123 -363q-28 -79 -28 -137q0 -28 24 -43.5t54 -15.5h20q21 0 21 -13q0 -16 -31 -16q-28 0 -90 3t-70 3q-2 0 -88 -3t-143 -3q-39 0 -39 16q0 13 18 13q28 0 60 4q65 8 102.5 55.5t69.5 136.5zM481 672h391q12 0 9 14l-195 553
q-16 48 -31 0l-180 -553q-6 -14 6 -14zM432 1882l66 49q16 11 18 11q5 0 9 -5t9 -14t9 -14q32 -41 76 -64.5t69 -28t47 -4.5q105 0 180 60q24 17 43.5 34.5t27 24t13.5 6.5q17 0 17 -16q0 -17 -45 -62.5t-82 -68.5q-95 -59 -207 -59q-107 0 -190 59q-74 55 -74 74q0 9 14 18
z" />
    <glyph glyph-name="abreve" unicode="&#x103;" horiz-adv-x="1277" 
d="M168 186l424 1090q17 41 25.5 54t17.5 13q4 0 7 -1.5t6 -4.5t5.5 -6.5t5.5 -9.5l5.5 -11t6.5 -14.5t7 -15.5q13 -30 97 -236t186 -458t149 -363q23 -56 45.5 -93.5t42.5 -56.5t34 -26.5t32 -13.5q34 -10 71 -10q23 0 23 -15q0 -14 -41 -14q-160 0 -285 4q-58 3 -62 9
q-1 1 -1 3q0 7 12 13q30 12 16 47l-161 399q-5 10 -17 10h-416q-12 0 -18 -14l-102 -279q-27 -73 -27 -116q0 -47 61 -47h17q18 0 18 -15q0 -14 -26 -14q-24 0 -89.5 3t-72.5 3q-2 0 -70 -3t-112 -3q-35 0 -35 14q0 6 5 10.5t11 4.5q25 0 53 4q57 7 89.5 45.5t62.5 113.5z
M428 551h365q9 0 6 12l-178 477q-16 42 -31 0l-168 -477q-3 -12 6 -12zM354 1616l66 49q15 10 18 10q5 0 9 -5t9 -14t9 -14q32 -41 76 -64.5t69 -27.5t47 -4q106 0 181 60q24 17 43.5 34.5t27 24t13.5 6.5q16 0 16 -16q0 -17 -45 -62.5t-82 -68.5q-97 -60 -207 -60
q-105 0 -190 60q-74 55 -74 73q0 10 14 19z" />
    <glyph glyph-name="Aogonek" unicode="&#x104;" horiz-adv-x="1433" 
d="M481 672h391q12 0 9 14l-195 553q-16 48 -31 0l-180 -553q-6 -14 6 -14zM1047 -264q0 -48 29.5 -75.5t74.5 -27.5q28 0 59.5 18.5t53.5 37t26 18.5q17 0 17 -12q0 -5 -1.5 -9t-3 -6t-6 -6.5t-6.5 -7.5q-17 -20 -45.5 -44.5t-85.5 -53.5t-110 -29q-78 0 -120 40.5
t-42 103.5q0 134 198 303q6 6 9 8q22 19 22 47q0 17 -8 41l-190 504q-6 12 -19 12h-440q-15 0 -21 -16l-123 -363q-28 -79 -28 -137q0 -28 24 -43.5t54 -15.5h20q21 0 21 -13q0 -16 -31 -16q-28 0 -90 3t-70 3q-2 0 -88 -3t-143 -3q-39 0 -39 16q0 13 18 13q28 0 60 4
q65 8 102.5 55.5t69.5 136.5l464 1272q18 49 27.5 64.5t18.5 15.5t18 -14t27 -60q9 -23 104 -271t206.5 -537.5t166.5 -426.5q26 -65 51.5 -110t48.5 -68t40 -33.5t36 -15.5q37 -12 82 -12q20 0 20 -13q0 -16 -41 -16q-4 0 -53.5 3t-95.5 4t-95 -3.5t-67 -17.5
q-48 -35 -77 -110.5t-29 -133.5z" />
    <glyph glyph-name="aogonek" unicode="&#x105;" horiz-adv-x="1277" 
d="M428 551h365q9 0 6 12l-178 477q-16 42 -31 0l-168 -477q-3 -12 6 -12zM950 -264q0 -48 30 -75.5t75 -27.5q28 0 59.5 18.5t53.5 37t26 18.5q16 0 16 -12q0 -5 -1.5 -9t-2.5 -6t-5.5 -7t-6.5 -7q-11 -13 -31 -30.5t-52.5 -41t-75 -39.5t-83.5 -16q-78 0 -119.5 40.5
t-41.5 103.5q0 52 20.5 98.5t50.5 79t60.5 59.5t53 52.5t25.5 45.5q4 29 -4 52l-161 399q-5 10 -17 10h-416q-12 0 -18 -14l-102 -279q-27 -73 -27 -116q0 -47 61 -47h17q18 0 18 -15q0 -14 -26 -14q-24 0 -89.5 3t-72.5 3q-2 0 -70 -3t-112 -3q-35 0 -35 14q0 6 5 10.5
t11 4.5q25 0 53 4q57 7 89.5 45.5t62.5 113.5l424 1090q17 41 25.5 54t17.5 13q4 0 7 -1.5t6 -4.5t5.5 -6.5t5.5 -9.5l5.5 -11t6.5 -14.5t7 -15.5q13 -30 97 -236t186 -458t149 -363q23 -56 45.5 -93.5t42.5 -56.5t34 -26.5t32 -13.5q34 -10 71 -10q23 0 23 -15
q0 -14 -41 -14q-2 0 -22.5 1.5t-51 3t-57.5 1.5q-110 0 -133 -27q-39 -41 -71 -112.5t-32 -124.5z" />
    <glyph glyph-name="Cacute" unicode="&#x106;" horiz-adv-x="1648" 
d="M1055 -35q-226 0 -389 55t-287 166q-248 222 -248 607q0 57 11 121t35 140t71 154.5t112 143.5q219 219 625 219q158 0 297 -25q146 -26 209 -30q27 -2 27 -23q0 -6 -2 -19t-4.5 -38.5t-4.5 -57.5q-2 -38 -3.5 -118.5t-2.5 -92.5q-3 -43 -18 -43q-17 0 -17 43
q0 61 -23.5 118.5t-62.5 90.5q-58 49 -169.5 83t-239.5 34q-317 0 -471 -150q-105 -100 -145 -230t-40 -304q0 -146 55 -282t150 -239.5t235 -166t300 -62.5q127 0 212.5 22t143.5 81q29 30 49.5 82.5t26.5 89.5q5 31 20 31t15 -31q0 -16 -16 -116t-29 -146
q-9 -29 -17.5 -38.5t-36.5 -21.5q-117 -47 -368 -47zM1178 1911q3 -4 51 -90q6 -13 3 -19t-11 -6l-9 1q-10 1 -23.5 1t-29.5 -2q-68 -7 -159 -33.5t-152 -52.5q-23 -10 -31 -10q-10 0 -10 12q0 9 14 17q47 33 150.5 96.5t128.5 77.5q45 26 57 26q8 0 21 -18z" />
    <glyph glyph-name="cacute" unicode="&#x107;" horiz-adv-x="1449" 
d="M926 -29q-199 0 -342.5 46.5t-251.5 140.5q-219 189 -219 516q0 67 16 140.5t63.5 167.5t122.5 167q195 186 549 186q136 0 262 -20q145 -26 185 -27q22 0 22 -18q0 -6 -1 -16.5t-3 -33t-4 -49.5q-1 -26 -2 -95.5t-2 -82.5q-3 -37 -21 -37q-14 0 -14 37q0 51 -20.5 98.5
t-55.5 75.5q-50 42 -144.5 69.5t-209.5 27.5q-276 0 -405 -121q-93 -86 -127.5 -196.5t-34.5 -258.5q0 -125 48 -239.5t131.5 -201.5t206 -138.5t263.5 -51.5q113 0 180 16t117 66q26 26 45 70t25 76q3 15 6 19.5t12 4.5q6 0 11 -7.5t5 -16.5q0 -13 -15.5 -99t-27.5 -125
q-8 -25 -15 -33.5t-30 -17.5q-100 -39 -325 -39zM1026 1675q3 -4 51 -90q6 -13 3 -18.5t-11 -5.5l-9 1q-10 1 -23 1t-29 -2q-68 -7 -160 -33.5t-152 -52.5q-26 -11 -30 -11t-7.5 4t-3.5 9q0 7 15 16q47 33 151 97t127 77q47 27 58 27q6 0 20 -19z" />
    <glyph glyph-name="Ccaron" unicode="&#x10c;" horiz-adv-x="1648" 
d="M1055 -35q-226 0 -389 55t-287 166q-248 222 -248 607q0 57 11 121t35 140t71 154.5t112 143.5q219 219 625 219q158 0 297 -25q146 -26 209 -30q27 -2 27 -23q0 -6 -2 -19t-4.5 -38.5t-4.5 -57.5q-2 -38 -3.5 -118.5t-2.5 -92.5q-3 -43 -18 -43q-17 0 -17 43
q0 61 -23.5 118.5t-62.5 90.5q-58 49 -169.5 83t-239.5 34q-317 0 -471 -150q-105 -100 -145 -230t-40 -304q0 -146 55 -282t150 -239.5t235 -166t300 -62.5q127 0 212.5 22t143.5 81q29 30 49.5 82.5t26.5 89.5q5 31 20 31t15 -31q0 -16 -16 -116t-29 -146
q-9 -29 -17.5 -38.5t-36.5 -21.5q-117 -47 -368 -47zM688 1884l43 45q13 13 19 13q8 0 16 -11q30 -33 90.5 -82.5t81.5 -58.5q16 -8 20 -8q13 0 33 10q54 29 174 129q24 21 37 21q6 0 10.5 -5.5t4.5 -11.5q0 -5 -13 -22q-15 -15 -113.5 -106.5t-115.5 -106.5
q-24 -21 -35 -21q-7 0 -31 21q-180 135 -207 155q-24 16 -24 21q0 3 10 18z" />
    <glyph glyph-name="ccaron" unicode="&#x10d;" horiz-adv-x="1449" 
d="M926 -29q-199 0 -342.5 46.5t-251.5 140.5q-219 189 -219 516q0 67 16 140.5t63.5 167.5t122.5 167q195 186 549 186q136 0 262 -20q145 -26 185 -27q22 0 22 -18q0 -6 -1 -16.5t-3 -33t-4 -49.5q-1 -26 -2 -95.5t-2 -82.5q-3 -37 -21 -37q-14 0 -14 37q0 51 -20.5 98.5
t-55.5 75.5q-50 42 -144.5 69.5t-209.5 27.5q-276 0 -405 -121q-93 -86 -127.5 -196.5t-34.5 -258.5q0 -125 48 -239.5t131.5 -201.5t206 -138.5t263.5 -51.5q113 0 180 16t117 66q26 26 45 70t25 76q3 15 6 19.5t12 4.5q6 0 11 -7.5t5 -16.5q0 -13 -15.5 -99t-27.5 -125
q-8 -25 -15 -33.5t-30 -17.5q-100 -39 -325 -39zM588 1649l43 45q12 12 18 12q9 0 17 -10q30 -33 90.5 -83t81.5 -59q16 -8 20 -8q13 0 33 10q51 27 174 130q23 20 37 20q6 0 10 -5t4 -11q0 -7 -12 -23q-15 -15 -113.5 -106.5t-116.5 -106.5q-23 -20 -34 -20q-8 0 -31 20
q-5 4 -52.5 39.5t-95 71.5t-59.5 45q-24 16 -24 20t10 19z" />
    <glyph glyph-name="Dcaron" unicode="&#x10e;" horiz-adv-x="1878" 
d="M365 588v360q0 360 -5 443q-3 55 -21 80.5t-67 35.5q-24 6 -69 6q-17 0 -17 13q0 16 33 16q41 0 96 -1.5t94.5 -3t41.5 -1.5l101 3q101 3 175 3h40q63 1 98.5 0.5t106.5 -4.5t119.5 -12.5t117.5 -25.5t122 -41t111.5 -62.5t105.5 -87.5q199 -207 199 -521
q0 -180 -62.5 -328t-158.5 -249q-226 -236 -621 -236q-93 0 -284 13q-37 2 -79.5 5.5t-64.5 5t-26 1.5q-39 0 -82 -2q-22 0 -63.5 -2t-55.5 -2q-33 0 -33 16q0 13 16 13q26 0 62 8q28 5 40 32.5t19 79.5q11 95 11 445zM537 981v-254q0 -366 4 -444q5 -132 22 -156
q57 -82 348 -82q142 0 269.5 50t218.5 141q77 76 120.5 210t43.5 279q0 92 -18 176t-49.5 148t-62.5 109t-67 83q-70 73 -149.5 121.5t-168.5 71.5t-169 31t-183 8q-33 0 -77.5 -4.5t-55.5 -10.5q-24 -11 -24 -41q-2 -70 -2 -436zM639 1884l43 45q13 13 18 13q9 0 17 -11
q30 -33 90.5 -82.5t81.5 -58.5q16 -8 20 -8q13 0 33 10q54 29 174 129q24 21 37 21q6 0 10 -5.5t4 -11.5t-12 -22q-15 -15 -113.5 -106.5t-115.5 -106.5q-24 -21 -35 -21q-7 0 -31 21q-180 135 -207 155q-24 16 -24 21q0 3 10 18z" />
    <glyph glyph-name="dcaron" unicode="&#x10f;" horiz-adv-x="1656" 
d="M317 500v307q0 320 -4 375q-3 48 -17 69t-56 27q-28 4 -62 4q-4 0 -9 5t-5 9q0 15 29 15q36 0 85.5 -1t85 -2t37.5 -1q6 0 45 1t94.5 2t102.5 1h35h87t94.5 -3.5t105.5 -10.5t103.5 -21.5t107 -35.5t98 -53.5t92.5 -74.5q176 -176 176 -442q0 -153 -55 -278.5
t-139 -211.5q-195 -200 -547 -200q-57 0 -252 10q-130 10 -148 10q-1 0 -11.5 -0.5t-28 -1t-33.5 -0.5q-74 -4 -109 -4q-29 0 -29 14q0 15 15 15q23 0 55 8q17 4 26.5 18t12.5 27t8 47q10 72 10 377zM481 1200v-582q0 -345 2 -378q5 -104 21 -125q49 -70 299 -70
q253 0 422 158q68 64 104.5 176t36.5 237q0 149 -50 258t-120 179q-61 62 -130.5 102.5t-147 59.5t-146 25.5t-160.5 6.5q-76 0 -108 -12q-23 -9 -23 -35zM569 1649l43 45q12 12 19 12q9 0 16 -10q30 -33 90.5 -83t81.5 -59q16 -8 21 -8q12 0 32 10q54 29 175 130
q23 20 36 20q6 0 10.5 -5t4.5 -11t-13 -23q-15 -15 -113.5 -106.5t-115.5 -106.5q-23 -20 -35 -20q-7 0 -30 20l-95 72l-112 84q-25 17 -25 20q0 4 10 19z" />
    <glyph glyph-name="Dcroat" unicode="&#x110;" horiz-adv-x="1878" 
d="M365 813v135q0 360 -5 443q-3 55 -21 80.5t-67 35.5q-24 6 -69 6q-17 0 -17 13q0 16 33 16q41 0 96 -1.5t94.5 -3t41.5 -1.5l101 3q101 3 175 3h40q63 1 98.5 0.5t106.5 -4.5t119.5 -12.5t117.5 -25.5t122 -41t111.5 -62.5t105.5 -87.5q199 -207 199 -521
q0 -180 -62.5 -328t-158.5 -249q-226 -236 -621 -236q-93 0 -284 13q-37 2 -79.5 5.5t-64.5 5t-26 1.5q-39 0 -82 -2q-22 0 -63.5 -2t-55.5 -2q-33 0 -33 16q0 13 16 13q26 0 62 8q28 5 40 32.5t19 79.5q11 95 11 445v151h-181q-11 0 -13.5 5.5t-0.5 17.5l6 33q5 18 27 18
h162zM537 737v-108q0 -280 4 -346q5 -132 22 -156q57 -82 348 -82q142 0 269.5 50t218.5 141q77 76 120.5 210t43.5 279q0 92 -18 176t-49.5 148t-62.5 109t-67 83q-70 73 -149.5 121.5t-168.5 71.5t-169 31t-185 8q-101 0 -131 -15q-24 -11 -24 -41l-2 -602h419
q18 0 15 -22l-8 -39q-2 -17 -27 -17h-399z" />
    <glyph glyph-name="dcroat" unicode="&#x111;" horiz-adv-x="1656" 
d="M317 692v115q0 320 -4 375q-3 48 -17 69t-56 27q-28 4 -62 4q-4 0 -9 5t-5 9q0 15 29 15q36 0 84.5 -1t83 -2t36.5 -1q6 0 46 1t96.5 2t103.5 1h35h87t94.5 -3.5t105.5 -10.5t103.5 -21.5t107 -35.5t98 -53.5t92.5 -74.5q176 -176 176 -442q0 -153 -55 -278.5
t-139 -211.5q-195 -200 -547 -200q-54 0 -254 10q-133 10 -150 10q-1 0 -11 -0.5t-27 -1t-33 -0.5q-74 -4 -107 -4q-29 0 -29 14q0 15 15 15q23 0 55 8q17 4 26.5 18t12.5 27t8 47q10 72 10 377v125h-155q-10 0 -12 4t0 14l6 35q2 14 22 14h139zM481 623v-93q0 -261 2 -290
q5 -104 21 -125q49 -70 299 -70q124 0 234 41.5t190 118.5q68 64 103.5 174.5t35.5 236.5q0 267 -168 435q-61 62 -130.5 102.5t-148 59.5t-148 25.5t-161.5 6.5q-91 0 -106 -12q-23 -9 -23 -35v-504h365q18 0 12 -18l-6 -39q-2 -14 -25 -14h-346z" />
    <glyph glyph-name="Emacron" unicode="&#x112;" horiz-adv-x="1249" 
d="M365 588v360q0 360 -5 443q-3 55 -21 80.5t-67 35.5q-24 6 -69 6q-17 0 -17 13q0 16 33 16q103 0 148 -2l84 -4q422 0 469 2q60 3 88 10q4 1 13.5 6t14.5 5q8 0 8 -19q0 -5 -2.5 -17t-6.5 -33.5t-7 -45.5q0 -4 -4 -62t-6 -73q-5 -23 -14 -23q-17 0 -17 27q0 43 -12 73
q-12 29 -41 45.5t-105 24.5q-52 6 -280 6q-12 0 -12 -20v-565q0 -21 12 -21q278 0 325 4q77 6 97 29q23 26 30 26q11 0 11 -16q0 -4 -3 -18.5t-7 -41t-7 -55.5q-8 -82 -8 -131q0 -39 -14 -39q-15 0 -15 19q0 40 -8 67q-17 63 -106 72q-92 10 -293 10q-14 0 -14 -14v-180
q0 -18 -0.5 -105.5t-0.5 -156.5t1 -88q3 -75 21 -108t65 -46.5t151 -13.5q146 0 197 22q40 17 60.5 51t31.5 97q5 30 18 30t13 -30q0 -14 -10 -92t-17 -107q-10 -38 -28.5 -45.5t-82.5 -7.5q-106 0 -346 6q-120 6 -159 6t-82 -2q-22 0 -63.5 -2t-55.5 -2q-33 0 -33 16
q0 13 16 13q26 0 62 8q28 5 40 32.5t19 79.5q11 95 11 445zM434 1843h481q11 0 15.5 -6t1.5 -14l-17 -45q-3 -13 -18 -13h-481q-12 0 -17 3.5t-4 11.5l17 51q2 12 22 12z" />
    <glyph glyph-name="emacron" unicode="&#x113;" horiz-adv-x="1128" 
d="M317 500v307q0 320 -4 375q-3 48 -17 69t-56 27q-28 4 -62 4q-4 0 -9 5t-5 9q0 15 29 15q36 0 85.5 -1t85 -2t37.5 -1h430q20 1 82 10q2 1 11 4.5t14 3.5q8 0 8 -16q0 -4 -6 -29t-8 -53q0 -4 -4 -53.5t-6 -61.5q-4 -18 -17 -18q-14 0 -14 22q0 37 -10 62
q-9 23 -33.5 33.5t-95.5 19.5q-47 6 -260 6q-11 0 -11 -18v-474q0 -18 11 -18q260 0 301 4q69 6 88 25q22 22 26 22q11 0 11 -14q0 -3 -3 -15t-6.5 -34t-5.5 -47q-8 -70 -8 -113q0 -33 -16 -33q-13 0 -13 17q0 34 -8 57q-5 21 -24.5 34t-67.5 19q-65 8 -272 8q-13 0 -13 -12
v-145v-297q3 -88 42.5 -114t172.5 -26q131 0 181 19q36 15 55 42.5t26 78.5q5 26 19 26q12 0 12 -26q0 -12 -8.5 -77.5t-15.5 -90.5q-8 -32 -26 -38.5t-75 -6.5q-91 0 -313 6q-76 4 -150 4q-38 0 -77 -2q-70 -4 -105 -4q-29 0 -29 14q0 15 15 15q9 0 30.5 4t24.5 4
q17 3 26.5 17.5t12.5 27.5t8 47q10 72 10 377zM375 1608h481q11 0 15 -6.5t1 -14.5l-16 -45q-3 -12 -18 -12h-482q-12 0 -16.5 3t-3.5 11l16 51q3 13 23 13z" />
    <glyph glyph-name="Edotaccent" unicode="&#x116;" horiz-adv-x="1249" 
d="M365 588v360q0 360 -5 443q-3 55 -21 80.5t-67 35.5q-24 6 -69 6q-17 0 -17 13q0 16 33 16q103 0 148 -2l84 -4q422 0 469 2q60 3 88 10q4 1 13.5 6t14.5 5q8 0 8 -19q0 -5 -2.5 -17t-6.5 -33.5t-7 -45.5q0 -4 -4 -62t-6 -73q-5 -23 -14 -23q-17 0 -17 27q0 43 -12 73
q-12 29 -41 45.5t-105 24.5q-52 6 -280 6q-12 0 -12 -20v-565q0 -21 12 -21q278 0 325 4q77 6 97 29q23 26 30 26q11 0 11 -16q0 -4 -3 -18.5t-7 -41t-7 -55.5q-8 -82 -8 -131q0 -39 -14 -39q-15 0 -15 19q0 40 -8 67q-17 63 -106 72q-92 10 -293 10q-14 0 -14 -14v-180
q0 -18 -0.5 -105.5t-0.5 -156.5t1 -88q3 -75 21 -108t65 -46.5t151 -13.5q146 0 197 22q40 17 60.5 51t31.5 97q5 30 18 30t13 -30q0 -14 -10 -92t-17 -107q-10 -38 -28.5 -45.5t-82.5 -7.5q-106 0 -346 6q-120 6 -159 6t-82 -2q-22 0 -63.5 -2t-55.5 -2q-33 0 -33 16
q0 13 16 13q26 0 62 8q28 5 40 32.5t19 79.5q11 95 11 445zM674 1700q-51 0 -78 32t-27 72t27 73.5t78 33.5q45 0 75.5 -28t30.5 -73q0 -47 -29.5 -78.5t-76.5 -31.5z" />
    <glyph glyph-name="edotaccent" unicode="&#x117;" horiz-adv-x="1128" 
d="M317 500v307q0 320 -4 375q-3 48 -17 69t-56 27q-28 4 -62 4q-4 0 -9 5t-5 9q0 15 29 15q36 0 85.5 -1t85 -2t37.5 -1h430q20 1 82 10q2 1 11 4.5t14 3.5q8 0 8 -16q0 -4 -6 -29t-8 -53q0 -4 -4 -53.5t-6 -61.5q-4 -18 -17 -18q-14 0 -14 22q0 37 -10 62
q-9 23 -33.5 33.5t-95.5 19.5q-47 6 -260 6q-11 0 -11 -18v-474q0 -18 11 -18q260 0 301 4q69 6 88 25q22 22 26 22q11 0 11 -14q0 -3 -3 -15t-6.5 -34t-5.5 -47q-8 -70 -8 -113q0 -33 -16 -33q-13 0 -13 17q0 34 -8 57q-5 21 -24.5 34t-67.5 19q-65 8 -272 8q-13 0 -13 -12
v-145v-297q3 -88 42.5 -114t172.5 -26q131 0 181 19q36 15 55 42.5t26 78.5q5 26 19 26q12 0 12 -26q0 -12 -8.5 -77.5t-15.5 -90.5q-8 -32 -26 -38.5t-75 -6.5q-91 0 -313 6q-76 4 -150 4q-38 0 -77 -2q-70 -4 -105 -4q-29 0 -29 14q0 15 15 15q9 0 30.5 4t24.5 4
q17 3 26.5 17.5t12.5 27.5t8 47q10 72 10 377zM604 1464q-51 0 -77.5 32t-26.5 73q0 40 26.5 73t77.5 33q45 0 76 -27.5t31 -72.5q0 -47 -30 -79t-77 -32z" />
    <glyph glyph-name="Eogonek" unicode="&#x118;" horiz-adv-x="1249" 
d="M801 -264q0 -48 29.5 -75.5t74.5 -27.5q28 0 59.5 18.5t53.5 37t26 18.5q17 0 17 -12q0 -5 -1.5 -9t-3 -6t-6 -6.5t-6.5 -7.5q-17 -20 -45.5 -44.5t-85.5 -53.5t-110 -29q-78 0 -120 40.5t-42 103.5q0 56 30 114t65.5 93.5t70 65.5t35.5 32q-155 3 -232 6q-120 6 -159 6
t-82 -2q-22 0 -63.5 -2t-55.5 -2q-33 0 -33 16q0 13 16 13q26 0 62 8q28 5 40 32.5t19 79.5q11 95 11 445v360q0 360 -5 443q-3 55 -21 80.5t-67 35.5q-24 6 -69 6q-17 0 -17 13q0 16 33 16q103 0 148 -2l84 -4q422 0 469 2q60 3 88 10q4 1 13.5 6t14.5 5q8 0 8 -19
q0 -5 -2.5 -17t-6.5 -33.5t-7 -45.5q0 -4 -4 -62t-6 -73q-5 -23 -14 -23q-17 0 -17 27q0 43 -12 73q-12 29 -41 45.5t-105 24.5q-52 6 -280 6q-12 0 -12 -20v-565q0 -21 12 -21q278 0 325 4q77 6 97 29q23 26 30 26q11 0 11 -16q0 -4 -3 -18.5t-7 -41t-7 -55.5
q-8 -82 -8 -131q0 -39 -14 -39q-15 0 -15 19q0 40 -8 67q-17 63 -106 72q-92 10 -293 10q-14 0 -14 -14v-180q0 -18 -0.5 -105.5t-0.5 -156.5t1 -88q3 -75 21 -108t65 -46.5t151 -13.5q146 0 197 22q40 17 60.5 51t31.5 97q5 30 18 30t13 -30q0 -14 -10 -92t-17 -107
q-6 -23 -35 -31t-68 -12.5t-57 -17.5q-49 -35 -77.5 -111t-28.5 -133z" />
    <glyph glyph-name="eogonek" unicode="&#x119;" horiz-adv-x="1128" 
d="M729 -264q0 -48 30 -75.5t75 -27.5q28 0 59.5 18.5t53.5 37t26 18.5q16 0 16 -12q0 -5 -1.5 -9t-2.5 -6t-5.5 -7t-6.5 -7q-11 -13 -31 -30.5t-52.5 -41t-75 -39.5t-83.5 -16q-78 0 -120 40.5t-42 103.5q0 83 61.5 165.5t143.5 143.5q-109 0 -223 4q-76 4 -150 4
q-38 0 -77 -2q-70 -4 -105 -4q-29 0 -29 14q0 15 15 15q9 0 30.5 4t24.5 4q17 3 26.5 17.5t12.5 27.5t8 47q10 72 10 377v307q0 320 -4 375q-3 48 -17 69t-56 27q-28 4 -62 4q-4 0 -9 5t-5 9q0 15 29 15q36 0 85.5 -1t85 -2t37.5 -1h430q20 1 82 10q2 1 11 4.5t14 3.5
q8 0 8 -16q0 -4 -6 -29t-8 -53q0 -4 -4 -53.5t-6 -61.5q-4 -18 -17 -18q-14 0 -14 22q0 37 -10 62q-9 23 -33.5 33.5t-95.5 19.5q-47 6 -260 6q-11 0 -11 -18v-474q0 -18 11 -18q260 0 301 4q69 6 88 25q22 22 26 22q11 0 11 -14q0 -3 -3 -15t-6.5 -34t-5.5 -47
q-8 -70 -8 -113q0 -33 -16 -33q-13 0 -13 17q0 34 -8 57q-5 21 -24.5 34t-67.5 19q-65 8 -272 8q-13 0 -13 -12v-145v-297q3 -88 42.5 -114t172.5 -26q131 0 181 19q36 15 55 42.5t26 78.5q5 26 19 26q12 0 12 -26q0 -12 -8.5 -77.5t-15.5 -90.5q-5 -20 -25 -27t-53.5 -13
t-55.5 -18q-42 -23 -72 -103t-30 -138z" />
    <glyph glyph-name="Ecaron" unicode="&#x11a;" horiz-adv-x="1249" 
d="M365 588v360q0 360 -5 443q-3 55 -21 80.5t-67 35.5q-24 6 -69 6q-17 0 -17 13q0 16 33 16q103 0 148 -2l84 -4q422 0 469 2q60 3 88 10q4 1 13.5 6t14.5 5q8 0 8 -19q0 -5 -2.5 -17t-6.5 -33.5t-7 -45.5q0 -4 -4 -62t-6 -73q-5 -23 -14 -23q-17 0 -17 27q0 43 -12 73
q-12 29 -41 45.5t-105 24.5q-52 6 -280 6q-12 0 -12 -20v-565q0 -21 12 -21q278 0 325 4q77 6 97 29q23 26 30 26q11 0 11 -16q0 -4 -3 -18.5t-7 -41t-7 -55.5q-8 -82 -8 -131q0 -39 -14 -39q-15 0 -15 19q0 40 -8 67q-17 63 -106 72q-92 10 -293 10q-14 0 -14 -14v-180
q0 -18 -0.5 -105.5t-0.5 -156.5t1 -88q3 -75 21 -108t65 -46.5t151 -13.5q146 0 197 22q40 17 60.5 51t31.5 97q5 30 18 30t13 -30q0 -14 -10 -92t-17 -107q-10 -38 -28.5 -45.5t-82.5 -7.5q-106 0 -346 6q-120 6 -159 6t-82 -2q-22 0 -63.5 -2t-55.5 -2q-33 0 -33 16
q0 13 16 13q26 0 62 8q28 5 40 32.5t19 79.5q11 95 11 445zM426 1884l43 45q13 13 18 13q9 0 17 -11q30 -33 90.5 -82.5t81.5 -58.5q16 -8 20 -8q13 0 33 10q54 29 174 129q24 21 37 21q6 0 10 -5.5t4 -11.5t-12 -22q-15 -15 -113.5 -106.5t-115.5 -106.5q-24 -21 -35 -21
q-7 0 -31 21q-180 135 -207 155q-24 16 -24 21q0 3 10 18z" />
    <glyph glyph-name="ecaron" unicode="&#x11b;" horiz-adv-x="1128" 
d="M317 500v307q0 320 -4 375q-3 48 -17 69t-56 27q-28 4 -62 4q-4 0 -9 5t-5 9q0 15 29 15q36 0 85.5 -1t85 -2t37.5 -1h430q20 1 82 10q2 1 11 4.5t14 3.5q8 0 8 -16q0 -4 -6 -29t-8 -53q0 -4 -4 -53.5t-6 -61.5q-4 -18 -17 -18q-14 0 -14 22q0 37 -10 62
q-9 23 -33.5 33.5t-95.5 19.5q-47 6 -260 6q-11 0 -11 -18v-474q0 -18 11 -18q260 0 301 4q69 6 88 25q22 22 26 22q11 0 11 -14q0 -3 -3 -15t-6.5 -34t-5.5 -47q-8 -70 -8 -113q0 -33 -16 -33q-13 0 -13 17q0 34 -8 57q-5 21 -24.5 34t-67.5 19q-65 8 -272 8q-13 0 -13 -12
v-145v-297q3 -88 42.5 -114t172.5 -26q131 0 181 19q36 15 55 42.5t26 78.5q5 26 19 26q12 0 12 -26q0 -12 -8.5 -77.5t-15.5 -90.5q-8 -32 -26 -38.5t-75 -6.5q-91 0 -313 6q-76 4 -150 4q-38 0 -77 -2q-70 -4 -105 -4q-29 0 -29 14q0 15 15 15q9 0 30.5 4t24.5 4
q17 3 26.5 17.5t12.5 27.5t8 47q10 72 10 377zM367 1649l43 45q12 12 18 12q8 0 16 -10q30 -33 90.5 -83t81.5 -59q16 -8 21 -8q13 0 33 10q51 27 174 130q23 20 37 20q6 0 10 -5t4 -11q0 -7 -12 -23q-15 -15 -113.5 -106.5t-116.5 -106.5q-23 -20 -35 -20q-7 0 -30 20
q-5 4 -52.5 39.5t-95 71.5t-59.5 45q-25 17 -25 20q0 2 11 19z" />
    <glyph glyph-name="Gbreve" unicode="&#x11e;" horiz-adv-x="1765" 
d="M1337 168v348q0 124 -15 159t-77 52q-24 6 -69 6q-17 0 -17 12q0 17 33 17q41 0 96 -1.5t94 -3t41 -1.5q3 0 41 1.5t85.5 3t74.5 1.5q33 0 33 -17q0 -12 -17 -12q-14 0 -51 -6q-40 -7 -56.5 -34t-19.5 -83q-4 -66 -4 -213v-229q0 -69 -3.5 -85t-22.5 -26
q-90 -48 -209.5 -70t-224.5 -22q-424 0 -674 219q-102 89 -173 246t-71 338q0 232 96.5 406t245.5 268q124 77 259 103t286 26q142 0 313 -35q70 -16 166 -20q25 -2 25 -19q0 -7 -4 -38.5t-7.5 -97t-3.5 -155.5q0 -25 -4 -34t-14 -9q-11 0 -14 31q-5 75 -43 135
q-43 66 -170.5 116t-311.5 50q-79 0 -138.5 -7t-143 -38.5t-156.5 -89.5q-92 -73 -147.5 -209t-55.5 -311q0 -102 23 -199t59 -169t70 -121t65 -79q225 -219 537 -219q159 0 233 43q41 21 41 72zM680 1851l65 50q15 10 19 10q5 0 9 -5t9 -14t9 -14q32 -41 76 -64.5t69 -27.5
t47 -4q106 0 180 59q24 18 43.5 35.5t27 24t13.5 6.5q17 0 17 -17t-45 -62.5t-82 -68.5q-95 -59 -207 -59q-108 0 -191 59q-73 54 -73 74q0 9 14 18z" />
    <glyph glyph-name="gbreve" unicode="&#x11f;" horiz-adv-x="1554" 
d="M1165 137v301q0 109 -12 137.5t-66 38.5q-28 4 -61 4q-4 0 -9 5t-5 10q0 14 28 14q36 0 87 -1t87.5 -2t38.5 -1t35 1t75.5 2t66.5 1q28 0 28 -14q0 -5 -5 -10t-9 -5q-25 0 -45 -4q-36 -6 -50.5 -27.5t-17.5 -68.5q-2 -55 -2 -180v-195q0 -60 -3.5 -72.5t-20.5 -21.5
q-79 -40 -185 -59t-198 -19q-373 0 -594 187q-90 75 -152.5 208t-62.5 287q0 197 85 345.5t216 226.5q182 110 479 110q76 0 157 -9.5t119 -18.5q88 -19 146 -19q22 0 22 -16q0 -6 -2.5 -32.5t-5 -81.5t-2.5 -132q0 -37 -20 -37q-13 0 -13 27q-6 64 -41 114
q-38 56 -145.5 96t-269.5 40q-105 0 -195 -21.5t-182 -91.5q-81 -62 -129.5 -176.5t-48.5 -261.5q0 -87 20 -169.5t52 -143t61.5 -102t56.5 -67.5q196 -182 461 -182q137 0 194 33q14 7 20.5 12t11.5 15t5 26zM532 1616l66 49q15 10 18 10q5 0 9 -5t9 -14t9 -14
q32 -41 76.5 -64.5t69.5 -27.5t47 -4q105 0 180 60q24 17 43.5 34.5t27 24t13.5 6.5q16 0 16 -16q0 -17 -45 -62.5t-82 -68.5q-97 -60 -207 -60q-105 0 -190 60q-74 55 -74 73q0 10 14 19z" />
    <glyph glyph-name="Gcommaaccent" unicode="&#x122;" horiz-adv-x="1765" 
d="M1337 168v348q0 124 -15 159t-77 52q-24 6 -69 6q-17 0 -17 12q0 17 33 17q41 0 96 -1.5t94 -3t41 -1.5q3 0 41 1.5t85.5 3t74.5 1.5q33 0 33 -17q0 -12 -17 -12q-14 0 -51 -6q-40 -7 -56.5 -34t-19.5 -83q-4 -66 -4 -213v-229q0 -69 -3.5 -85t-22.5 -26
q-90 -48 -209.5 -70t-224.5 -22q-424 0 -674 219q-102 89 -173 246t-71 338q0 232 96.5 406t245.5 268q124 77 259 103t286 26q142 0 313 -35q70 -16 166 -20q25 -2 25 -19q0 -7 -4 -38.5t-7.5 -97t-3.5 -155.5q0 -25 -4 -34t-14 -9q-11 0 -14 31q-5 75 -43 135
q-43 66 -170.5 116t-311.5 50q-79 0 -138.5 -7t-143 -38.5t-156.5 -89.5q-92 -73 -147.5 -209t-55.5 -311q0 -102 23 -199t59 -169t70 -121t65 -79q225 -219 537 -219q159 0 233 43q41 21 41 72zM967 -344q0 39 -16.5 68t-33 45t-16.5 24q0 40 40.5 73.5t80.5 33.5
q14 0 35 -37q33 -51 33 -84q0 -29 -19 -76q-14 -41 -51 -105t-74 -104q-14 -18 -26 -18q-5 0 -9 4t-4 10q0 4 2 8.5t6 10.5t5 8q47 81 47 139z" />
    <glyph glyph-name="gcommaaccent" unicode="&#x123;" horiz-adv-x="1554" 
d="M1165 137v301q0 109 -12 137.5t-66 38.5q-28 4 -61 4q-4 0 -9 5t-5 10q0 14 28 14q36 0 87 -1t87.5 -2t38.5 -1t35 1t75.5 2t66.5 1q28 0 28 -14q0 -5 -5 -10t-9 -5q-25 0 -45 -4q-36 -6 -50.5 -27.5t-17.5 -68.5q-2 -55 -2 -180v-195q0 -60 -3.5 -72.5t-20.5 -21.5
q-79 -40 -185 -59t-198 -19q-373 0 -594 187q-90 75 -152.5 208t-62.5 287q0 197 85 345.5t216 226.5q182 110 479 110q76 0 157 -9.5t119 -18.5q88 -19 146 -19q22 0 22 -16q0 -6 -2.5 -32.5t-5 -81.5t-2.5 -132q0 -37 -20 -37q-13 0 -13 27q-6 64 -41 114
q-38 56 -145.5 96t-269.5 40q-105 0 -195 -21.5t-182 -91.5q-81 -62 -129.5 -176.5t-48.5 -261.5q0 -87 20 -169.5t52 -143t61.5 -102t56.5 -67.5q196 -182 461 -182q137 0 194 33q14 7 20.5 12t11.5 15t5 26zM831 -344q0 39 -16.5 68t-32.5 45t-16 24q0 40 40.5 73.5
t80.5 33.5q14 0 35 -37q32 -50 32 -84q0 -31 -18 -76q-14 -41 -51 -105t-74 -104q-14 -18 -27 -18q-12 0 -12 14q0 3 12 27q47 81 47 139z" />
    <glyph glyph-name="Imacron" unicode="&#x12a;" horiz-adv-x="901" 
d="M537 948v-360q0 -359 10 -445q5 -51 21.5 -78.5t58.5 -33.5q58 -8 92 -8q16 0 16 -13q0 -16 -33 -16q-50 0 -110 1.5t-100 3t-41 1.5q-3 0 -41 -1.5t-85.5 -3t-74.5 -1.5q-33 0 -33 16q0 13 16 13q26 0 62 8q28 5 40 32.5t19 79.5q11 95 11 445v360q0 360 -5 443
q-3 53 -19 80t-50 34q-31 8 -64 8q-16 0 -16 13q0 16 33 16q30 0 79 -1.5t87 -3t41 -1.5t40.5 1.5t85 3t74.5 1.5q33 0 33 -16q0 -13 -16 -13q-14 0 -52 -6q-40 -7 -56 -33.5t-19 -82.5q-4 -66 -4 -443zM221 1843h481q11 0 15.5 -6t1.5 -14l-17 -45q-3 -13 -18 -13h-481
q-11 0 -16.5 3.5t-4.5 11.5l17 51q2 12 22 12z" />
    <glyph glyph-name="imacron" unicode="&#x12b;" horiz-adv-x="796" 
d="M481 807v-307q0 -305 8 -377q5 -45 17.5 -66t48.5 -26q54 -8 82 -8q14 0 14 -15q0 -14 -28 -14q-44 0 -98.5 1.5t-90.5 3t-37 1.5q-3 0 -36.5 -1.5t-75.5 -3t-66 -1.5q-29 0 -29 14q0 15 15 15q23 0 55 8q24 5 33 26t14 66q10 90 10 377v307q0 320 -4 375
q-3 45 -15.5 66.5t-41.5 27.5q-30 6 -55 6q-6 0 -10.5 4.5t-4.5 9.5q0 15 29 15q26 0 69 -1t76.5 -2t36.5 -1q2 0 36 1t77.5 2t67.5 1q28 0 28 -15q0 -4 -5 -9t-9 -5q-25 0 -45 -4q-35 -7 -48 -27.5t-16 -68.5q-2 -55 -2 -375zM168 1608h481q11 0 15.5 -6.5t1.5 -14.5
l-17 -45q-3 -12 -18 -12h-481q-12 0 -17 3t-4 11l16 51q3 13 23 13z" />
    <glyph glyph-name="Iogonek" unicode="&#x12e;" horiz-adv-x="901" 
d="M543 -18q-109 -101 -109 -246q0 -48 30 -75.5t75 -27.5q28 0 59.5 18.5t53.5 37t26 18.5q16 0 16 -12q0 -5 -1.5 -9t-2.5 -6t-5.5 -7t-6.5 -7q-11 -13 -31 -30.5t-52.5 -41t-75 -39.5t-83.5 -16q-78 0 -120 40.5t-42 103.5q0 43 20 89t46.5 80.5t61 68.5t54.5 50t36 27
q-10 0 -19.5 0.5t-15 1t-6.5 0.5q-39 0 -82 -2q-22 0 -63.5 -2t-55.5 -2q-33 0 -33 16q0 13 16 13q26 0 62 8q28 5 40 32.5t19 79.5q11 95 11 445v360q0 360 -5 443q-3 53 -19 80t-50 34q-31 8 -64 8q-16 0 -16 13q0 16 33 16q30 0 79 -1.5t87 -3t41 -1.5t40.5 1.5t85 3
t74.5 1.5q33 0 33 -16q0 -13 -16 -13q-14 0 -52 -6q-40 -7 -56 -33.5t-19 -82.5q-4 -66 -4 -443v-360q0 -359 10 -445q5 -51 21.5 -78.5t58.5 -33.5q58 -8 92 -8q16 0 16 -13q0 -16 -33 -16q-12 0 -52 4.5t-65.5 1.5t-41.5 -18z" />
    <glyph glyph-name="iogonek" unicode="&#x12f;" horiz-adv-x="796" 
d="M371 -264q0 -48 29.5 -75.5t74.5 -27.5q28 0 59.5 18.5t53.5 37t26 18.5q17 0 17 -12q0 -5 -1.5 -9t-3 -6t-6 -6.5t-6.5 -7.5q-17 -20 -45.5 -44.5t-85.5 -53.5t-110 -29q-78 0 -120 40.5t-42 103.5q0 52 27.5 108t67.5 99t69.5 69.5t50.5 40.5h-29q-1 0 -11 -0.5t-27 -1
t-33 -0.5q-74 -4 -107 -4q-29 0 -29 14q0 15 15 15q23 0 55 8q24 5 33 26t14 66q10 90 10 377v307q0 320 -4 375q-3 45 -15.5 66.5t-41.5 27.5q-30 6 -55 6q-6 0 -10.5 4.5t-4.5 9.5q0 15 29 15q26 0 69 -1t76.5 -2t36.5 -1q2 0 36 1t77.5 2t67.5 1q28 0 28 -15q0 -4 -5 -9
t-9 -5q-25 0 -45 -4q-35 -7 -48 -27.5t-16 -68.5q-2 -55 -2 -375v-307q0 -305 8 -377q5 -45 17.5 -66t48.5 -26q54 -8 82 -8q14 0 14 -15q0 -14 -28 -14q-10 0 -44.5 4t-58.5 0.5t-47 -18.5q-43 -29 -72.5 -107t-29.5 -137z" />
    <glyph glyph-name="Idotaccent" unicode="&#x130;" horiz-adv-x="901" 
d="M537 948v-360q0 -359 10 -445q5 -51 21.5 -78.5t58.5 -33.5q58 -8 92 -8q16 0 16 -13q0 -16 -33 -16q-50 0 -110 1.5t-100 3t-41 1.5q-3 0 -41 -1.5t-85.5 -3t-74.5 -1.5q-33 0 -33 16q0 13 16 13q26 0 62 8q28 5 40 32.5t19 79.5q11 95 11 445v360q0 360 -5 443
q-3 53 -19 80t-50 34q-31 8 -64 8q-16 0 -16 13q0 16 33 16q30 0 79 -1.5t87 -3t41 -1.5t40.5 1.5t85 3t74.5 1.5q33 0 33 -16q0 -13 -16 -13q-14 0 -52 -6q-40 -7 -56 -33.5t-19 -82.5q-4 -66 -4 -443zM451 1700q-51 0 -78 32t-27 72t27 73.5t78 33.5q45 0 75.5 -28
t30.5 -73q0 -47 -29.5 -78.5t-76.5 -31.5z" />
    <glyph glyph-name="dotlessi" unicode="&#x131;" horiz-adv-x="796" 
d="M481 807v-307q0 -305 8 -377q5 -45 17.5 -66t48.5 -26q54 -8 82 -8q14 0 14 -15q0 -14 -28 -14q-44 0 -98.5 1.5t-90.5 3t-37 1.5q-3 0 -36.5 -1.5t-75.5 -3t-66 -1.5q-29 0 -29 14q0 15 15 15q23 0 55 8q24 5 33 26t14 66q10 90 10 377v307q0 320 -4 375
q-3 45 -15.5 66.5t-41.5 27.5q-30 6 -55 6q-6 0 -10.5 4.5t-4.5 9.5q0 15 29 15q26 0 69 -1t76.5 -2t36.5 -1q2 0 36 1t77.5 2t67.5 1q28 0 28 -15q0 -4 -5 -9t-9 -5q-25 0 -45 -4q-35 -7 -48 -27.5t-16 -68.5q-2 -55 -2 -375z" />
    <glyph glyph-name="Kcommaaccent" unicode="&#x136;" horiz-adv-x="1540" 
d="M365 588v360q0 360 -5 443q-3 55 -21 80.5t-67 35.5q-24 6 -69 6q-17 0 -17 13q0 16 33 16q41 0 94 -1.5t90.5 -3t40.5 -1.5q4 0 83.5 3t115.5 3q33 0 33 -16q0 -13 -17 -13q-13 0 -51 -6q-40 -7 -56.5 -33.5t-19.5 -82.5q-4 -66 -4 -443v-123h9q16 18 228 236t251 260
q32 33 43 44.5t31.5 36t28 39t7.5 27.5q0 33 -26 43q-19 8 -19 17q0 14 25 14q20 0 74 -3t80 -3q3 0 41.5 1.5t85.5 3t69 1.5q31 0 31 -14q0 -15 -21 -15q-50 0 -114 -28q-18 -8 -33.5 -16t-32 -20t-27.5 -20.5t-30 -26t-28.5 -26t-34.5 -32.5t-36 -35q-68 -65 -245 -240.5
t-205 -208.5q45 -51 275 -287t288 -290q139 -129 187 -167t118 -67q60 -26 127 -26q27 0 27 -13q0 -16 -45 -16h-105q-96 0 -141 4q-39 4 -69.5 12t-65.5 30t-50 33.5t-63 49.5q-66 54 -306 311t-318 354h-11v-200q0 -350 11 -445q5 -52 21 -79t58 -33q58 -8 80 -8
q17 0 17 -13q0 -16 -33 -16q-44 0 -99 1.5t-94 3t-43 1.5q-2 0 -81 -3t-115 -3q-33 0 -33 16q0 13 16 13q26 0 62 8q28 5 40 32.5t19 79.5q11 95 11 445zM874 -303q0 39 -16 68t-32.5 45t-16.5 24q0 40 40.5 73.5t80.5 33.5q14 0 35 -37q32 -50 32 -84q0 -31 -18 -76
q-14 -41 -51 -105t-74 -104q-14 -18 -27 -18q-12 0 -12 14q0 3 12 27q47 81 47 139z" />
    <glyph glyph-name="kcommaaccent" unicode="&#x137;" horiz-adv-x="1363" 
d="M317 500v307q0 320 -4 375q-3 48 -17 69t-56 27q-28 4 -62 4q-4 0 -9 5t-5 9q0 15 29 15q36 0 84 -1t82 -2t36 -1q3 0 75 2t103 2q29 0 29 -15q0 -5 -4 -9.5t-10 -4.5q-22 0 -45 -4q-34 -7 -47.5 -28t-16.5 -68q-4 -55 -4 -375v-105h8q13 14 101.5 103t189 189.5
l127.5 127.5l9 9q31 31 46 46.5t29 36t14 33.5q0 32 -22 35q-16 3 -16 16t20 13q18 0 65.5 -2t69.5 -2q1 0 74 2t100 2t27 -13q0 -14 -19 -14q-40 0 -100 -24q-18 -8 -35 -18t-28 -17t-29.5 -23.5t-26.5 -23.5t-33.5 -31.5t-35.5 -34.5q-41 -38 -203.5 -194t-188.5 -185
q37 -40 240 -242t256 -251q17 -15 45.5 -40.5t39 -34.5t30.5 -26.5t27.5 -23.5t22.5 -17.5t22.5 -15.5t20.5 -11.5t24 -12.5t26 -11q63 -24 111 -24q9 0 15.5 -4.5t6.5 -10.5q0 -14 -39 -14h-92q-84 0 -125 4q-44 4 -84.5 20.5t-61 31t-73.5 54.5q-57 44 -265 261.5
t-282 304.5h-8v-170q0 -305 8 -377q5 -44 18.5 -65t51.5 -27q50 -8 70 -8q14 0 14 -15q0 -14 -29 -14q-39 0 -88 1.5t-84 3t-39 1.5q-2 0 -73.5 -3t-104.5 -3q-29 0 -29 14q0 15 15 15q23 0 55 8q17 4 26.5 18t12.5 27t8 47q10 72 10 377zM797 -344q0 39 -16.5 68t-33 45
t-16.5 24q0 40 40.5 73.5t80.5 33.5q14 0 35 -37q33 -51 33 -84q0 -29 -19 -76q-14 -41 -51 -105t-74 -104q-14 -18 -26 -18q-5 0 -9 4t-4 10q0 4 2 8.5t6 10.5t5 8q47 81 47 139z" />
    <glyph glyph-name="Lacute" unicode="&#x139;" horiz-adv-x="1212" 
d="M537 948v-364q0 -236 9 -339t36 -130q26 -26 77.5 -36.5t167.5 -10.5q68 0 105 2.5t78.5 16.5t64.5 42q42 51 53 123q3 27 19 27q12 0 12 -31q0 -21 -10 -93t-21 -112q-8 -26 -16.5 -36t-32.5 -14.5t-80 -4.5q-82 0 -340 6q-129 6 -208 6q-2 0 -15 -0.5t-32 -1t-37 -0.5
q-82 -4 -117 -4q-33 0 -33 16q0 13 16 13q26 0 62 8q28 5 40 32.5t19 79.5q11 95 11 445v360q0 360 -5 443q-3 55 -21 80.5t-67 35.5q-24 6 -69 6q-17 0 -17 13q0 16 33 16q41 0 96 -1.5t94.5 -3t41.5 -1.5q3 0 46 1.5t95.5 3t79.5 1.5q33 0 33 -16q0 -13 -17 -13
q-30 0 -67 -6q-43 -7 -60 -33.5t-20 -82.5q-4 -66 -4 -443zM815 1911q3 -4 51 -90q6 -13 3 -19t-11 -6l-10 1q-9 1 -22 1t-29 -2q-68 -7 -160 -33.5t-152 -52.5q-23 -10 -30 -10q-11 0 -11 12q0 8 15 17q47 33 151 97t127 77q45 26 58 26q7 0 20 -18z" />
    <glyph glyph-name="lacute" unicode="&#x13a;" 
d="M481 807v-311q0 -206 7 -288t30 -104q41 -41 240 -41q87 0 137.5 9.5t79.5 44.5q33 39 43 98q4 23 18 23q13 0 13 -27q0 -17 -9 -78.5t-18 -95.5q-9 -32 -27 -39.5t-88 -7.5q-187 0 -313 6q-164 4 -197 4q-38 0 -73 -2q-74 -4 -105 -4q-29 0 -29 14q0 15 15 15q23 0 55 8
q17 4 26.5 18t12.5 27t8 47q10 72 10 377v307q0 320 -4 375q-3 48 -17 69t-56 27q-28 4 -62 4q-4 0 -9 5t-5 9q0 15 29 15q36 0 84.5 -1t83 -2t36.5 -1t40.5 1t86.5 2t72 1q29 0 29 -15q0 -4 -5 -8t-10 -4q-19 0 -59 -4q-38 -7 -51.5 -28.5t-16.5 -69.5q-2 -55 -2 -375z
M788 1675q8 -11 52 -90q6 -13 2.5 -18.5t-11.5 -5.5l-9 1q-10 1 -23 1t-29 -2q-68 -7 -159 -33.5t-152 -52.5q-26 -11 -31 -11q-10 0 -10 13q0 8 14 16q47 33 150.5 96.5t128.5 77.5q47 27 57 27q6 0 20 -19z" />
    <glyph glyph-name="Lcommaaccent" unicode="&#x13b;" horiz-adv-x="1212" 
d="M537 948v-364q0 -236 9 -339t36 -130q26 -26 77.5 -36.5t167.5 -10.5q68 0 105 2.5t78.5 16.5t64.5 42q42 51 53 123q3 27 19 27q12 0 12 -31q0 -21 -10 -93t-21 -112q-8 -26 -16.5 -36t-32.5 -14.5t-80 -4.5q-82 0 -340 6q-129 6 -208 6q-2 0 -15 -0.5t-32 -1t-37 -0.5
q-82 -4 -117 -4q-33 0 -33 16q0 13 16 13q26 0 62 8q28 5 40 32.5t19 79.5q11 95 11 445v360q0 360 -5 443q-3 55 -21 80.5t-67 35.5q-24 6 -69 6q-17 0 -17 13q0 16 33 16q41 0 96 -1.5t94.5 -3t41.5 -1.5q3 0 46 1.5t95.5 3t79.5 1.5q33 0 33 -16q0 -13 -17 -13
q-30 0 -67 -6q-43 -7 -60 -33.5t-20 -82.5q-4 -66 -4 -443zM721 -344q0 39 -16.5 68t-33 45t-16.5 24q0 40 40.5 73.5t80.5 33.5q14 0 35 -37q33 -51 33 -84q0 -29 -19 -76q-14 -41 -51 -105t-74 -104q-14 -18 -26 -18t-12 14q0 3 12 27q47 81 47 139z" />
    <glyph glyph-name="lcommaaccent" unicode="&#x13c;" 
d="M481 807v-311q0 -206 7 -288t30 -104q41 -41 240 -41q87 0 137.5 9.5t79.5 44.5q33 39 43 98q4 23 18 23q13 0 13 -27q0 -17 -9 -78.5t-18 -95.5q-9 -32 -27 -39.5t-88 -7.5q-187 0 -313 6q-164 4 -197 4q-38 0 -73 -2q-74 -4 -105 -4q-29 0 -29 14q0 15 15 15q23 0 55 8
q17 4 26.5 18t12.5 27t8 47q10 72 10 377v307q0 320 -4 375q-3 48 -17 69t-56 27q-28 4 -62 4q-4 0 -9 5t-5 9q0 15 29 15q36 0 84.5 -1t83 -2t36.5 -1t40.5 1t86.5 2t72 1q29 0 29 -15q0 -4 -5 -8t-10 -4q-19 0 -59 -4q-38 -7 -51.5 -28.5t-16.5 -69.5q-2 -55 -2 -375z
M621 -344q0 39 -16.5 68t-33 45t-16.5 24q0 40 40.5 73.5t80.5 33.5q14 0 35 -37q32 -50 32 -84q0 -31 -18 -76q-14 -41 -51 -105t-74 -104q-14 -18 -27 -18q-12 0 -12 14q0 3 12 27q48 83 48 139z" />
    <glyph glyph-name="Lcaron" unicode="&#x13d;" horiz-adv-x="1212" 
d="M537 948v-364q0 -236 9 -339t36 -130q26 -26 77.5 -36.5t167.5 -10.5q68 0 105 2.5t78.5 16.5t64.5 42q42 51 53 123q3 27 19 27q12 0 12 -31q0 -21 -10 -93t-21 -112q-8 -26 -16.5 -36t-32.5 -14.5t-80 -4.5q-82 0 -340 6q-129 6 -208 6q-2 0 -15 -0.5t-32 -1t-37 -0.5
q-82 -4 -117 -4q-33 0 -33 16q0 13 16 13q26 0 62 8q28 5 40 32.5t19 79.5q11 95 11 445v360q0 360 -5 443q-3 55 -21 80.5t-67 35.5q-24 6 -69 6q-17 0 -17 13q0 16 33 16q41 0 96 -1.5t94.5 -3t41.5 -1.5q3 0 46 1.5t95.5 3t79.5 1.5q33 0 33 -16q0 -13 -17 -13
q-30 0 -67 -6q-43 -7 -60 -33.5t-20 -82.5q-4 -66 -4 -443zM977 1305q0 39 -16.5 68t-33 45t-16.5 24q0 40 40.5 73t80.5 33q14 0 35 -37q33 -51 33 -84q0 -27 -19 -75q-14 -41 -51 -105t-74 -104q-15 -19 -26 -19q-5 0 -8.5 4.5t-3.5 10.5q0 2 12 26q47 81 47 140z" />
    <glyph glyph-name="lcaron" unicode="&#x13e;" 
d="M481 807v-311q0 -206 7 -288t30 -104q41 -41 240 -41q87 0 137.5 9.5t79.5 44.5q33 39 43 98q4 23 18 23q13 0 13 -27q0 -17 -9 -78.5t-18 -95.5q-9 -32 -27 -39.5t-88 -7.5q-187 0 -313 6q-164 4 -197 4q-38 0 -73 -2q-74 -4 -105 -4q-29 0 -29 14q0 15 15 15q23 0 55 8
q17 4 26.5 18t12.5 27t8 47q10 72 10 377v307q0 320 -4 375q-3 48 -17 69t-56 27q-28 4 -62 4q-4 0 -9 5t-5 9q0 15 29 15q36 0 84.5 -1t83 -2t36.5 -1t40.5 1t86.5 2t72 1q29 0 29 -15q0 -4 -5 -8t-10 -4q-19 0 -59 -4q-38 -7 -51.5 -28.5t-16.5 -69.5q-2 -55 -2 -375z
M889 1073q0 39 -16.5 68t-33 45t-16.5 24q0 40 40.5 73.5t80.5 33.5q14 0 35 -37q33 -51 33 -84q0 -28 -19 -76q-14 -41 -51 -105t-74 -104q-14 -18 -26 -18q-5 0 -9 4t-4 10q0 4 2 8.5t6 10.5t5 8q47 81 47 139z" />
    <glyph glyph-name="Lslash" unicode="&#x141;" horiz-adv-x="1212" 
d="M537 780v-196q0 -227 9 -334.5t36 -134.5q26 -26 77.5 -36.5t167.5 -10.5q68 0 105 2.5t78.5 16.5t64.5 42q42 51 53 123q3 27 19 27q12 0 12 -31q0 -21 -10 -93t-21 -112q-8 -26 -16.5 -36t-32.5 -14.5t-80 -4.5q-82 0 -340 6q-129 6 -208 6q-2 0 -15 -0.5t-32 -1
t-37 -0.5q-82 -4 -117 -4q-33 0 -33 16q0 13 16 13q26 0 62 8q28 5 40 32.5t19 79.5q11 95 11 445v114l-183 -94q-12 -4 -18 6l-21 45q-5 14 4 17l218 112v160q0 360 -5 443q-3 55 -21 80.5t-67 35.5q-24 6 -69 6q-17 0 -17 13q0 16 33 16q41 0 96 -1.5t94.5 -3t41.5 -1.5
q3 0 46 1.5t95.5 3t79.5 1.5q33 0 33 -16q0 -13 -17 -13q-30 0 -67 -6q-43 -7 -60 -33.5t-20 -82.5q-4 -66 -4 -443v-80l305 148q12 6 16 -6l23 -47q6 -12 -11 -19z" />
    <glyph glyph-name="lslash" unicode="&#x142;" 
d="M481 659v-163q0 -194 7.5 -281.5t31.5 -110.5q41 -41 236 -41q114 0 150 10q40 11 63 38q37 43 47 104q4 23 16 23q15 0 15 -27q0 -17 -9 -78.5t-18 -95.5q-9 -32 -27 -39.5t-88 -7.5q-189 0 -309 6q-160 4 -195 4q-38 0 -77 -2q-20 0 -56 -2t-49 -2q-29 0 -29 14
q0 12 15 12q19 0 55 9q17 4 26.5 19t12.5 28t8 47q10 72 10 377v94l-153 -82q-12 0 -17 6l-20 49q-2 3 -1.5 8.5t3.5 6.5l188 92v133q0 320 -4 375q-3 48 -17 69t-56 27q-28 4 -62 4q-4 0 -9 5t-5 9q0 15 29 15q36 0 85.5 -1t85 -2t37.5 -1t39.5 1t84.5 2t71 1q29 0 29 -15
q0 -4 -5 -9t-10 -5q-19 0 -59 -4q-38 -7 -51.5 -27.5t-16.5 -68.5q-2 -55 -2 -375v-66l262 129q12 4 15 -6l22 -51q5 -10 -8 -16z" />
    <glyph glyph-name="Nacute" unicode="&#x143;" horiz-adv-x="1939" 
d="M393 1253l27 -981q3 -124 20.5 -174.5t59.5 -62.5q47 -12 102 -12q16 0 16 -13q0 -16 -36 -16q-52 0 -101.5 1.5t-80 3t-35.5 1.5t-36 -1.5t-76 -3t-85 -1.5q-33 0 -33 16q0 13 17 13q47 0 84 12q37 10 49 63.5t12 196.5l2 1173q0 58 5.5 80.5t17.5 22.5q7 0 19.5 -11
t29.5 -30.5t22 -24.5q62 -70 651 -702q108 -115 285 -309.5t207 -225.5l-23 1041q-2 102 -17.5 142t-61.5 52q-46 10 -101 10q-16 0 -16 15q0 14 41 14q55 0 132.5 -3t80.5 -3q4 0 64 3t110 3q37 0 37 -14q0 -15 -23 -15q-24 0 -49 -6q-49 -10 -62.5 -47t-13.5 -135
l-4 -1200q0 -51 -0.5 -79.5t-3 -43.5t-5.5 -18.5t-9 -3.5q-12 0 -40 24.5t-110 106.5q-21 18 -203.5 207t-330.5 348q-282 303 -535 587zM1200 1860q6 -9 13.5 -22t18.5 -33.5t19 -35.5q6 -13 3 -18.5t-11 -5.5l-9 1q-10 1 -23 1t-29 -2q-68 -7 -160 -33.5t-152 -52.5
q-23 -10 -30 -10q-11 0 -11 12q0 7 15 16q47 33 151 97t127 77q47 27 58 27q7 0 20 -18z" />
    <glyph glyph-name="nacute" unicode="&#x144;" horiz-adv-x="1705" 
d="M373 1053l20 -822q3 -106 18 -147.5t52 -50.5q41 -10 90 -10q14 0 14 -15q0 -14 -32 -14q-45 0 -89 1.5t-71 3t-31 1.5q-5 0 -32 -1.5t-66.5 -3t-75.5 -1.5q-29 0 -29 14q0 6 4.5 10.5t10.5 4.5q39 0 73 10q33 9 42.5 52t9.5 165v997q0 88 24 88q17 0 70 -53
q9 -9 91.5 -96t219 -230t258.5 -268q105 -109 261 -273.5t165 -174.5l-18 872q-2 88 -15 121.5t-53 40.5q-44 8 -88 8q-14 0 -14 16q0 13 35 13q49 0 117.5 -2t70.5 -2q3 0 56.5 2t97.5 2q32 0 32 -13q0 -5 -6 -10.5t-14 -5.5q-23 0 -43 -4q-42 -9 -53 -38.5t-11 -113.5
l-4 -1020q0 -45 -0.5 -68t-2 -36.5t-4 -16.5t-7.5 -3q-14 0 -38.5 19t-98.5 87q-11 10 -84 81.5t-186 185.5t-199 204q-391 410 -467 494zM1073 1675q3 -4 51 -90q6 -13 3 -18.5t-11 -5.5l-10 1q-9 1 -22 1t-29 -2q-68 -7 -160 -33.5t-152 -52.5q-26 -11 -30 -11q-3 0 -7 4
t-4 9q0 7 15 16q47 33 151 97t127 77q47 27 58 27q6 0 20 -19z" />
    <glyph glyph-name="Ncommaaccent" unicode="&#x145;" horiz-adv-x="1939" 
d="M393 1253l27 -981q3 -124 20.5 -174.5t59.5 -62.5q47 -12 102 -12q16 0 16 -13q0 -16 -36 -16q-52 0 -101.5 1.5t-80 3t-35.5 1.5t-36 -1.5t-76 -3t-85 -1.5q-33 0 -33 16q0 13 17 13q47 0 84 12q37 10 49 63.5t12 196.5l2 1173q0 58 5.5 80.5t17.5 22.5q7 0 19.5 -11
t29.5 -30.5t22 -24.5q62 -70 651 -702q108 -115 285 -309.5t207 -225.5l-23 1041q-2 102 -17.5 142t-61.5 52q-46 10 -101 10q-16 0 -16 15q0 14 41 14q55 0 132.5 -3t80.5 -3q4 0 64 3t110 3q37 0 37 -14q0 -15 -23 -15q-24 0 -49 -6q-49 -10 -62.5 -47t-13.5 -135
l-4 -1200q0 -51 -0.5 -79.5t-3 -43.5t-5.5 -18.5t-9 -3.5q-12 0 -40 24.5t-110 106.5q-21 18 -203.5 207t-330.5 348q-282 303 -535 587zM963 -283q0 39 -16.5 68.5t-33 45.5t-16.5 24q0 40 40.5 73t80.5 33q14 0 35 -37q32 -50 32 -84q0 -31 -18 -76q-14 -40 -50.5 -104
t-74.5 -104q-15 -19 -27 -19t-12 14q0 3 12 27q48 83 48 139z" />
    <glyph glyph-name="ncommaaccent" unicode="&#x146;" horiz-adv-x="1705" 
d="M373 1053l20 -822q3 -106 18 -147.5t52 -50.5q41 -10 90 -10q14 0 14 -15q0 -14 -32 -14q-45 0 -89 1.5t-71 3t-31 1.5q-5 0 -32 -1.5t-66.5 -3t-75.5 -1.5q-29 0 -29 14q0 6 4.5 10.5t10.5 4.5q39 0 73 10q33 9 42.5 52t9.5 165v997q0 88 24 88q17 0 70 -53
q9 -9 91.5 -96t219 -230t258.5 -268q105 -109 261 -273.5t165 -174.5l-18 872q-2 88 -15 121.5t-53 40.5q-44 8 -88 8q-14 0 -14 16q0 13 35 13q49 0 117.5 -2t70.5 -2q3 0 56.5 2t97.5 2q32 0 32 -13q0 -5 -6 -10.5t-14 -5.5q-23 0 -43 -4q-42 -9 -53 -38.5t-11 -113.5
l-4 -1020q0 -45 -0.5 -68t-2 -36.5t-4 -16.5t-7.5 -3q-14 0 -38.5 19t-98.5 87q-11 10 -84 81.5t-186 185.5t-199 204q-391 410 -467 494zM825 -283q0 39 -16.5 68.5t-32.5 45.5t-16 24q0 40 40.5 73t80.5 33q8 0 14.5 -7t19.5 -30q33 -51 33 -84q0 -31 -18 -76
q-14 -40 -50.5 -104t-74.5 -104q-15 -19 -27 -19t-12 14q0 3 12 27q47 81 47 139z" />
    <glyph glyph-name="Ncaron" unicode="&#x147;" horiz-adv-x="1939" 
d="M393 1253l27 -981q3 -124 20.5 -174.5t59.5 -62.5q47 -12 102 -12q16 0 16 -13q0 -16 -36 -16q-52 0 -101.5 1.5t-80 3t-35.5 1.5t-36 -1.5t-76 -3t-85 -1.5q-33 0 -33 16q0 13 17 13q47 0 84 12q37 10 49 63.5t12 196.5l2 1173q0 58 5.5 80.5t17.5 22.5q7 0 19.5 -11
t29.5 -30.5t22 -24.5q62 -70 651 -702q108 -115 285 -309.5t207 -225.5l-23 1041q-2 102 -17.5 142t-61.5 52q-46 10 -101 10q-16 0 -16 15q0 14 41 14q55 0 132.5 -3t80.5 -3q4 0 64 3t110 3q37 0 37 -14q0 -15 -23 -15q-24 0 -49 -6q-49 -10 -62.5 -47t-13.5 -135
l-4 -1200q0 -51 -0.5 -79.5t-3 -43.5t-5.5 -18.5t-9 -3.5q-12 0 -40 24.5t-110 106.5q-21 18 -203.5 207t-330.5 348q-282 303 -535 587zM721 1843l43 45q13 13 18 13q9 0 17 -11q30 -33 90.5 -82.5t81.5 -58.5q16 -8 20 -8q13 0 33 10q54 29 174 129q24 21 37 21
q6 0 10 -5.5t4 -11.5t-12 -22q-15 -15 -113.5 -106.5t-115.5 -106.5q-24 -21 -35 -21q-7 0 -31 21q-180 135 -207 155q-24 16 -24 21q0 3 10 18z" />
    <glyph glyph-name="ncaron" unicode="&#x148;" horiz-adv-x="1705" 
d="M373 1053l20 -822q3 -106 18 -147.5t52 -50.5q41 -10 90 -10q14 0 14 -15q0 -14 -32 -14q-45 0 -89 1.5t-71 3t-31 1.5q-5 0 -32 -1.5t-66.5 -3t-75.5 -1.5q-29 0 -29 14q0 6 4.5 10.5t10.5 4.5q39 0 73 10q33 9 42.5 52t9.5 165v997q0 88 24 88q17 0 70 -53
q9 -9 91.5 -96t219 -230t258.5 -268q105 -109 261 -273.5t165 -174.5l-18 872q-2 88 -15 121.5t-53 40.5q-44 8 -88 8q-14 0 -14 16q0 13 35 13q49 0 117.5 -2t70.5 -2q3 0 56.5 2t97.5 2q32 0 32 -13q0 -5 -6 -10.5t-14 -5.5q-23 0 -43 -4q-42 -9 -53 -38.5t-11 -113.5
l-4 -1020q0 -45 -0.5 -68t-2 -36.5t-4 -16.5t-7.5 -3q-14 0 -38.5 19t-98.5 87q-11 10 -84 81.5t-186 185.5t-199 204q-391 410 -467 494zM594 1649l43 45q12 12 18 12q9 0 17 -10q30 -33 90.5 -83t81.5 -59q16 -8 20 -8q13 0 33 10q51 27 174 130q23 20 37 20q6 0 10 -5
t4 -11q0 -7 -12 -23q-15 -15 -113.5 -106.5t-115.5 -106.5q-23 -20 -35 -20q-8 0 -31 20q-5 4 -52.5 39.5t-95 71.5t-59.5 45q-24 16 -24 20t10 19z" />
    <glyph glyph-name="Omacron" unicode="&#x14c;" horiz-adv-x="1873" 
d="M131 770q0 103 29 211t93.5 214.5t156 189.5t228.5 134.5t300 51.5q231 0 412.5 -91.5t287 -267.5t105.5 -409q0 -171 -59 -324.5t-163.5 -267t-259 -180t-335.5 -66.5q-162 0 -297.5 48.5t-225.5 128.5t-153 185.5t-91 217t-28 225.5zM326 827q0 -233 87 -413
t235.5 -275.5t332.5 -95.5q44 0 89.5 7.5t102.5 28t108 53t100.5 87.5t85 126t57.5 174t22 226q0 179 -51.5 325t-138.5 238.5t-198 142.5t-234 50q-130 0 -238 -43t-189 -125t-126 -211.5t-45 -294.5zM707 1843h481q11 0 15 -6t1 -14l-16 -45q-3 -13 -19 -13h-481
q-11 0 -16 3t-4 12l16 51q2 12 23 12z" />
    <glyph glyph-name="omacron" unicode="&#x14d;" horiz-adv-x="1654" 
d="M113 655q0 87 25.5 178.5t83 182t138.5 161t202.5 114.5t264.5 44q204 0 364.5 -77.5t254.5 -227.5t94 -348q0 -145 -52.5 -275t-145.5 -226.5t-229.5 -153t-295.5 -56.5q-143 0 -262.5 41t-199.5 109.5t-136 158t-81 184t-25 191.5zM299 702q0 -149 43 -273.5
t119 -208.5t180.5 -130.5t226.5 -46.5q38 0 78 6t89.5 23t93 44t86 73.5t73 106t49.5 146.5t19 191q0 152 -44 275t-119 201t-171.5 119.5t-204.5 41.5q-114 0 -208 -36t-163.5 -105.5t-108 -178.5t-38.5 -248zM616 1608h482q11 0 15 -6.5t1 -14.5l-16 -45q-3 -12 -19 -12
h-481q-12 0 -16.5 3t-3.5 11l16 51q3 13 22 13z" />
    <glyph glyph-name="Ohungarumlaut" unicode="&#x150;" horiz-adv-x="1873" 
d="M131 770q0 103 29 211t93.5 214.5t156 189.5t228.5 134.5t300 51.5q231 0 412.5 -91.5t287 -267.5t105.5 -409q0 -171 -59 -324.5t-163.5 -267t-259 -180t-335.5 -66.5q-162 0 -297.5 48.5t-225.5 128.5t-153 185.5t-91 217t-28 225.5zM326 827q0 -233 87 -413
t235.5 -275.5t332.5 -95.5q44 0 89.5 7.5t102.5 28t108 53t100.5 87.5t85 126t57.5 174t22 226q0 179 -51.5 325t-138.5 238.5t-198 142.5t-234 50q-130 0 -238 -43t-189 -125t-126 -211.5t-45 -294.5zM911 1931q5 6 10.5 14t8.5 12l6 8t5.5 5.5t4.5 1.5q12 0 27 -6
q12 -5 76 -45q17 -9 9 -17q-1 0 -3 -1t-12 -4.5t-23.5 -9.5t-26.5 -13q-135 -86 -200 -154q-19 -22 -29 -22q-5 0 -7 5t1 13q4 12 66 96.5t87 116.5zM1178 1935q5 6 12 13.5t10 10.5t6.5 7t6 5t4.5 1q12 0 28 -8q34 -21 72 -51q7 -7 7 -13t-5 -8q-1 0 -12 -2t-25 -6.5
t-27 -11.5q-104 -55 -217 -154q-16 -18 -28 -18t-6 16q4 12 78 103.5t96 115.5z" />
    <glyph glyph-name="ohungarumlaut" unicode="&#x151;" horiz-adv-x="1654" 
d="M113 655q0 87 25.5 178.5t83 182t138.5 161t202.5 114.5t264.5 44q204 0 364.5 -77.5t254.5 -227.5t94 -348q0 -145 -52.5 -275t-145.5 -226.5t-229.5 -153t-295.5 -56.5q-143 0 -262.5 41t-199.5 109.5t-136 158t-81 184t-25 191.5zM299 702q0 -149 43 -273.5
t119 -208.5t180.5 -130.5t226.5 -46.5q38 0 78 6t89.5 23t93 44t86 73.5t73 106t49.5 146.5t19 191q0 152 -44 275t-119 201t-171.5 119.5t-204.5 41.5q-114 0 -208 -36t-163.5 -105.5t-108 -178.5t-38.5 -248zM739 1696q5 6 10.5 14t8.5 12l6 8t5.5 5.5t4.5 1.5q12 0 27 -6
q12 -5 76 -45q4 -2 6.5 -4.5t3.5 -5t0.5 -4.5t-1.5 -3t-3 -2t-12 -4.5t-23.5 -9.5t-26.5 -13q-137 -88 -200 -153q-20 -23 -29 -23q-5 0 -7 6t1 13q4 12 66 96.5t87 116.5zM1006 1700q6 6 12 13t9 11t6.5 7t6 4.5t4.5 1.5q13 0 29 -8q29 -18 72 -52q15 -15 2 -20l-11 -3
q-12 -2 -26 -6.5t-27 -11.5q-107 -57 -217 -153q-17 -19 -28 -19q-5 0 -7.5 5t0.5 12q4 12 78 103t97 116z" />
    <glyph glyph-name="OE" unicode="&#x152;" horiz-adv-x="2430" 
d="M1718 1442v-565q0 -21 13 -21q278 0 325 4q75 6 96 29q23 26 31 26q10 0 10 -16q0 -4 -2.5 -18.5t-6.5 -41t-7 -55.5q-8 -82 -8 -116q0 -33 -15 -33q-13 0 -16 22q0 27 -6 50q-17 61 -121 71q-41 4 -278 4q-9 0 -12 -3.5t-3 -14.5v-92q0 -52 -0.5 -163.5t-0.5 -182
t1 -90.5q3 -73 21 -106t65.5 -46.5t151.5 -13.5q145 0 196 22q40 17 61.5 50t31.5 96q5 30 18 30q12 0 12 -30q0 -15 -9.5 -92t-16.5 -105q-10 -38 -28.5 -45.5t-82.5 -7.5q-106 0 -346 6q-120 6 -160 6q-8 0 -22 -1t-19 -1q-20 -4 -28 -4q-21 0 -21 14q0 6 3 26t3 36l4 180
h-6q-59 -66 -76 -81q-214 -204 -544 -204q-136 0 -253 33.5t-202 92.5t-151.5 136t-107 168t-61 184.5t-20.5 188.5q0 87 21.5 177.5t63 181t110.5 170t156.5 141t208.5 97.5t259 36q116 0 216 -24t171.5 -65t119 -81t83.5 -86h8v133q0 19 -2 45t-2 31q0 8 6 13t15 5
q3 0 10 -1t12 -1q24 -4 41 -4q426 0 473 2q60 3 88 10q4 1 14 6t15 5q8 0 8 -19q0 -6 -6.5 -34t-9.5 -58q0 -4 -4 -62t-6 -73q-5 -23 -15 -23q-16 0 -16 27q0 44 -12 74q-12 29 -41 45t-105 24q-53 6 -280 6q-13 0 -13 -24zM979 43q44 0 90 7.5t103 28t108 53t100.5 87.5
t85.5 126t58 174t22 226q0 144 -33.5 267t-92.5 212t-138 152t-170.5 94t-189.5 31q-129 0 -237 -43t-188.5 -125t-125.5 -211.5t-45 -294.5q0 -233 87 -413t235 -275.5t331 -95.5z" />
    <glyph glyph-name="oe" unicode="&#x153;" horiz-adv-x="2164" 
d="M1524 1219v-471q0 -19 12 -19q254 0 297 4q3 0 9 1q55 5 70 17l5 5q19 22 27 22t8 -14q0 -4 -2.5 -15.5t-6 -33.5t-6.5 -47q-6 -52 -6 -101q0 -26 -14 -26q-16 0 -16 18q0 20 -7 41q-12 49 -102 57q-44 5 -256 5q-12 0 -12 -17v-74v-374q4 -87 43.5 -109t175.5 -22
q3 0 30 -0.5t39.5 0t34.5 2t38.5 5.5t29.5 11q33 16 51 42t27 77q5 24 18 24q14 0 14 -24q0 -14 -8.5 -79.5t-15.5 -88.5q-9 -32 -24.5 -38.5t-71.5 -6.5q-114 0 -324 6q-140 4 -145 4q-16 0 -32 -3t-22 -3q-16 0 -16 12q0 6 2 22.5t2 30.5l4 164h-6q-67 -77 -122 -118
q-178 -134 -433 -134q-142 0 -261 41t-198.5 108.5t-135 156.5t-80.5 184t-25 192q0 90 26 182t83.5 182t139.5 160t204.5 113.5t267.5 44.5q344 0 530 -227h6v123q0 17 -1 38t-1 25q0 17 16 17q3 0 18 -2t32 -2h438q16 0 31 2t30 5t17 3q3 1 11 4.5t13 3.5q8 0 8 -16
q0 -4 -6 -28t-8 -50q0 -3 -4 -54t-6 -63q-4 -18 -14 -18q-17 0 -17 22q0 37 -10 62q-11 23 -36.5 34.5t-88.5 20.5q-46 6 -256 6q-12 0 -12 -22zM864 43q38 0 79 6.5t92 24t96.5 45t90 74t76.5 106t52 146t20 188.5q0 147 -47 270t-125 201.5t-177.5 122t-207.5 43.5
q-232 0 -374 -147t-142 -421q0 -194 74 -345t203 -232.5t290 -81.5z" />
    <glyph glyph-name="Racute" unicode="&#x154;" horiz-adv-x="1544" 
d="M365 588v360q0 360 -5 443q-3 55 -21 80.5t-67 35.5q-24 6 -69 6q-17 0 -17 13q0 16 33 16q41 0 96 -1.5t94.5 -3t41.5 -1.5q7 0 106 3t135 3q116 0 208.5 -18.5t166.5 -71.5q51 -37 96 -110.5t45 -167.5q0 -120 -57.5 -236t-189.5 -238q19 -24 93.5 -119.5t98.5 -126.5
t76 -95.5t87.5 -105t69.5 -77.5q120 -127 250 -147q39 -6 80 -6q7 0 13 -4t6 -9q0 -16 -49 -16h-146q-85 0 -132 8.5t-87 30.5q-39 21 -83.5 64.5t-73 79.5t-97.5 127q-5 6 -8 10t-7 9.5t-8 10.5q-47 62 -126 171t-97 132q-12 12 -26 12l-252 4q-15 0 -15 -16v-49
q0 -350 11 -445q5 -52 21 -79t58 -33q58 -8 93 -8q16 0 16 -13q0 -16 -33 -16q-50 0 -110 1.5t-100.5 3t-41.5 1.5h-14q-15 -1 -37 -2t-47 -2t-51 -1.5t-43 -0.5q-33 0 -33 16q0 13 16 13q26 0 62 8q28 5 40 32.5t19 79.5q11 95 11 445zM528 1440v-670q0 -16 15 -25
q23 -14 85.5 -23t129.5 -9q97 0 153 39q56 38 90.5 120t34.5 195q0 192 -94.5 301t-259.5 109q-94 0 -137 -13q-17 -7 -17 -24zM991 1911q3 -4 51 -90q6 -13 3 -19t-11 -6l-10 1q-9 1 -22 1t-29 -2q-68 -7 -159 -33.5t-152 -52.5q-23 -10 -31 -10q-10 0 -10 12q0 9 14 17
q47 33 151 97t127 77q46 26 58 26q7 0 20 -18z" />
    <glyph glyph-name="racute" unicode="&#x155;" horiz-adv-x="1376" 
d="M317 500v307q0 320 -4 375q-3 48 -17 69t-56 27q-28 4 -62 4q-4 0 -9 5t-5 9q0 15 29 15q36 0 86.5 -1t87.5 -2t39 -1q4 0 98.5 2t126.5 2q228 0 336 -76q46 -34 85.5 -96t39.5 -142q0 -102 -50.5 -198t-171.5 -199q269 -337 377 -450q106 -108 201 -121q35 -6 63 -6
q7 0 12 -5t5 -10q0 -14 -43 -14h-113q-75 0 -116 8t-76 27q-53 28 -103.5 83t-142.5 173q-41 51 -109.5 142t-85.5 112q-10 10 -24 10l-230 4q-12 0 -12 -14v-41q0 -303 8 -375q5 -43 19.5 -64.5t52.5 -27.5q50 -8 80 -8q14 0 14 -15q0 -14 -29 -14q-43 0 -96 1.5t-88.5 3
t-36.5 1.5h-13q-14 -1 -35 -2t-44 -2t-47 -1.5t-39 -0.5q-29 0 -29 14q0 15 15 15q23 0 55 8q17 4 26.5 18t12.5 27t8 47q10 72 10 377zM473 1219v-560q0 -13 12 -22q20 -11 80 -19t119 -8q89 0 135 31q48 33 78.5 102t30.5 164q0 162 -83 252t-229 90q-84 0 -129 -10
q-14 -7 -14 -20zM907 1675q3 -4 51 -90q6 -13 3 -18.5t-11 -5.5l-10 1q-9 1 -22 1t-29 -2q-68 -7 -159 -33.5t-152 -52.5q-26 -11 -31 -11q-10 0 -10 13q0 8 14 16q47 33 151 97t127 77q47 27 58 27q6 0 20 -19z" />
    <glyph glyph-name="Rcommaaccent" unicode="&#x156;" horiz-adv-x="1544" 
d="M365 588v360q0 360 -5 443q-3 55 -21 80.5t-67 35.5q-24 6 -69 6q-17 0 -17 13q0 16 33 16q41 0 96 -1.5t94.5 -3t41.5 -1.5q7 0 106 3t135 3q116 0 208.5 -18.5t166.5 -71.5q51 -37 96 -110.5t45 -167.5q0 -120 -57.5 -236t-189.5 -238q19 -24 93.5 -119.5t98.5 -126.5
t76 -95.5t87.5 -105t69.5 -77.5q120 -127 250 -147q39 -6 80 -6q7 0 13 -4t6 -9q0 -16 -49 -16h-146q-85 0 -132 8.5t-87 30.5q-39 21 -83.5 64.5t-73 79.5t-97.5 127q-5 6 -8 10t-7 9.5t-8 10.5q-47 62 -126 171t-97 132q-12 12 -26 12l-252 4q-15 0 -15 -16v-49
q0 -350 11 -445q5 -52 21 -79t58 -33q58 -8 93 -8q16 0 16 -13q0 -16 -33 -16q-50 0 -110 1.5t-100.5 3t-41.5 1.5h-14q-15 -1 -37 -2t-47 -2t-51 -1.5t-43 -0.5q-33 0 -33 16q0 13 16 13q26 0 62 8q28 5 40 32.5t19 79.5q11 95 11 445zM528 1440v-670q0 -16 15 -25
q23 -14 85.5 -23t129.5 -9q97 0 153 39q56 38 90.5 120t34.5 195q0 192 -94.5 301t-259.5 109q-94 0 -137 -13q-17 -7 -17 -24zM877 -303q0 39 -16.5 68t-33 45t-16.5 24q0 40 40.5 73.5t80.5 33.5q14 0 35 -37q32 -50 32 -84q0 -31 -18 -76q-14 -41 -51 -105t-74 -104
q-14 -18 -27 -18q-12 0 -12 14q0 3 12 27q48 83 48 139z" />
    <glyph glyph-name="rcommaaccent" unicode="&#x157;" horiz-adv-x="1376" 
d="M317 500v307q0 320 -4 375q-3 48 -17 69t-56 27q-28 4 -62 4q-4 0 -9 5t-5 9q0 15 29 15q36 0 86.5 -1t87.5 -2t39 -1q4 0 98.5 2t126.5 2q228 0 336 -76q46 -34 85.5 -96t39.5 -142q0 -102 -50.5 -198t-171.5 -199q269 -337 377 -450q106 -108 201 -121q35 -6 63 -6
q7 0 12 -5t5 -10q0 -14 -43 -14h-113q-75 0 -116 8t-76 27q-53 28 -103.5 83t-142.5 173q-41 51 -109.5 142t-85.5 112q-10 10 -24 10l-230 4q-12 0 -12 -14v-41q0 -303 8 -375q5 -43 19.5 -64.5t52.5 -27.5q50 -8 80 -8q14 0 14 -15q0 -14 -29 -14q-43 0 -96 1.5t-88.5 3
t-36.5 1.5h-13q-14 -1 -35 -2t-44 -2t-47 -1.5t-39 -0.5q-29 0 -29 14q0 15 15 15q23 0 55 8q17 4 26.5 18t12.5 27t8 47q10 72 10 377zM473 1219v-560q0 -13 12 -22q20 -11 80 -19t119 -8q89 0 135 31q48 33 78.5 102t30.5 164q0 162 -83 252t-229 90q-84 0 -129 -10
q-14 -7 -14 -20zM782 -344q0 39 -16 68t-32.5 45t-16.5 24q0 40 40.5 73.5t80.5 33.5q8 0 14.5 -7t19.5 -30q33 -51 33 -84q0 -31 -18 -76q-14 -41 -51 -105t-74 -104q-14 -18 -27 -18q-12 0 -12 14q0 3 12 27q47 81 47 139z" />
    <glyph glyph-name="Rcaron" unicode="&#x158;" horiz-adv-x="1544" 
d="M365 588v360q0 360 -5 443q-3 55 -21 80.5t-67 35.5q-24 6 -69 6q-17 0 -17 13q0 16 33 16q41 0 96 -1.5t94.5 -3t41.5 -1.5q7 0 106 3t135 3q116 0 208.5 -18.5t166.5 -71.5q51 -37 96 -110.5t45 -167.5q0 -120 -57.5 -236t-189.5 -238q19 -24 93.5 -119.5t98.5 -126.5
t76 -95.5t87.5 -105t69.5 -77.5q120 -127 250 -147q39 -6 80 -6q7 0 13 -4t6 -9q0 -16 -49 -16h-146q-85 0 -132 8.5t-87 30.5q-39 21 -83.5 64.5t-73 79.5t-97.5 127q-5 6 -8 10t-7 9.5t-8 10.5q-47 62 -126 171t-97 132q-12 12 -26 12l-252 4q-15 0 -15 -16v-49
q0 -350 11 -445q5 -52 21 -79t58 -33q58 -8 93 -8q16 0 16 -13q0 -16 -33 -16q-50 0 -110 1.5t-100.5 3t-41.5 1.5h-14q-15 -1 -37 -2t-47 -2t-51 -1.5t-43 -0.5q-33 0 -33 16q0 13 16 13q26 0 62 8q28 5 40 32.5t19 79.5q11 95 11 445zM528 1440v-670q0 -16 15 -25
q23 -14 85.5 -23t129.5 -9q97 0 153 39q56 38 90.5 120t34.5 195q0 192 -94.5 301t-259.5 109q-94 0 -137 -13q-17 -7 -17 -24zM471 1884l43 45q13 13 18 13q9 0 17 -11q30 -33 90.5 -82.5t81.5 -58.5q16 -8 20 -8q13 0 33 10q54 29 174 129q24 21 37 21q6 0 10 -5.5
t4 -11.5t-12 -22q-15 -15 -113.5 -106.5t-115.5 -106.5q-24 -21 -35 -21q-7 0 -31 21q-180 135 -207 155q-24 16 -24 21q0 3 10 18z" />
    <glyph glyph-name="rcaron" unicode="&#x159;" horiz-adv-x="1376" 
d="M317 500v307q0 320 -4 375q-3 48 -17 69t-56 27q-28 4 -62 4q-4 0 -9 5t-5 9q0 15 29 15q36 0 86.5 -1t87.5 -2t39 -1q4 0 98.5 2t126.5 2q228 0 336 -76q46 -34 85.5 -96t39.5 -142q0 -102 -50.5 -198t-171.5 -199q269 -337 377 -450q106 -108 201 -121q35 -6 63 -6
q7 0 12 -5t5 -10q0 -14 -43 -14h-113q-75 0 -116 8t-76 27q-53 28 -103.5 83t-142.5 173q-41 51 -109.5 142t-85.5 112q-10 10 -24 10l-230 4q-12 0 -12 -14v-41q0 -303 8 -375q5 -43 19.5 -64.5t52.5 -27.5q50 -8 80 -8q14 0 14 -15q0 -14 -29 -14q-43 0 -96 1.5t-88.5 3
t-36.5 1.5h-13q-14 -1 -35 -2t-44 -2t-47 -1.5t-39 -0.5q-29 0 -29 14q0 15 15 15q23 0 55 8q17 4 26.5 18t12.5 27t8 47q10 72 10 377zM473 1219v-560q0 -13 12 -22q20 -11 80 -19t119 -8q89 0 135 31q48 33 78.5 102t30.5 164q0 162 -83 252t-229 90q-84 0 -129 -10
q-14 -7 -14 -20zM408 1649l43 45q12 12 18 12q9 0 16 -10q30 -33 90.5 -83t81.5 -59q16 -8 21 -8q13 0 33 10q51 27 174 130q23 20 37 20q6 0 10 -5t4 -11q0 -7 -12 -23q-15 -15 -113.5 -106.5t-116.5 -106.5q-23 -20 -35 -20q-7 0 -30 20q-5 4 -52.5 39.5t-95 71.5
t-59.5 45q-25 17 -25 20q0 2 11 19z" />
    <glyph glyph-name="Sacute" unicode="&#x15a;" horiz-adv-x="1167" 
d="M508 -35q-162 0 -275 55q-21 10 -25.5 22.5t-4.5 55.5q0 52 10 217q3 33 16 33q15 0 15 -22q0 -47 6 -76q22 -107 106 -158t197 -51q94 0 162.5 41.5t99.5 102t31 128.5q0 104 -50.5 181t-185.5 188l-92 76q-153 126 -209.5 228t-56.5 216q0 166 115 267.5t309 101.5
q101 0 190 -21q49 -10 72 -10q20 0 20 -14q0 -1 -2 -27t-4 -77t-2 -113q0 -47 -14 -47q-13 0 -16 26q-2 20 -10 53.5t-17 49.5q-5 10 -13 20.5t-28.5 27t-46.5 29t-70.5 22t-97.5 9.5q-109 0 -180.5 -64t-71.5 -173q0 -88 51 -158.5t199 -185.5l57 -46q173 -136 236 -243.5
t63 -237.5q0 -82 -40 -177.5t-134 -162.5q-124 -86 -309 -86zM915 1911q8 -11 52 -90q6 -13 2.5 -19t-11.5 -6l-10 1q-9 1 -22 1t-29 -2q-68 -7 -159 -33.5t-152 -52.5q-23 -10 -31 -10q-10 0 -10 12q0 9 14 17q47 33 150.5 96.5t128.5 77.5q46 26 57 26q7 0 20 -18z" />
    <glyph glyph-name="sacute" unicode="&#x15b;" horiz-adv-x="1073" 
d="M428 -29q-163 0 -262 47q-19 9 -23 19.5t-4 46.5q0 38 2 75t5.5 71.5t3.5 37.5q0 29 14 29q16 0 16 -21q0 -38 6 -63q14 -60 60.5 -100.5t103 -56t121.5 -15.5q129 0 199.5 64.5t70.5 166.5q0 46 -11.5 82t-43.5 73t-68 67t-104 81l-82 62q-142 106 -200 192.5t-58 180.5
q0 152 109 239.5t290 87.5q101 0 187 -20q35 -8 63 -8q19 0 19 -13l-2 -22q-2 -22 -4 -65.5t-2 -96.5q0 -39 -15 -39q-13 0 -16 23q-5 46 -27 86q-6 10 -19.5 22t-39.5 28t-72 26t-102 10q-103 0 -171.5 -50t-68.5 -139q0 -82 49 -142t185 -153l51 -34q161 -110 228 -207.5
t67 -212.5q0 -188 -168 -297q-96 -62 -287 -62zM799 1675q3 -4 51 -90q6 -13 3 -18.5t-11 -5.5l-10 1q-9 1 -22.5 1t-29.5 -2q-68 -7 -159 -33.5t-152 -52.5q-26 -11 -31 -11q-10 0 -10 13q0 8 14 16q47 33 150.5 96.5t128.5 77.5q47 27 57 27q7 0 21 -19z" />
    <glyph glyph-name="Scedilla" unicode="&#x15e;" horiz-adv-x="1167" 
d="M635 918l57 -46q173 -136 236 -243.5t63 -237.5q0 -82 -40 -177.5t-134 -162.5q-53 -37 -125 -59q-32 -18 -145 -131q97 -9 151 -46.5t54 -99.5q0 -55 -43 -99t-103 -69q-79 -36 -160 -36q-26 0 -26 16q0 8 6 13t13.5 6.5t21.5 2.5q60 7 105.5 40t45.5 85
q0 51 -31.5 88.5t-115.5 61.5q-31 8 -31 18q0 8 27 29l121 100q-24 -4 -37 -4q-12 -2 -37 -2q-162 0 -275 55q-21 10 -25.5 22.5t-4.5 55.5q0 52 10 217q3 33 16 33q15 0 15 -22q0 -47 6 -76q22 -107 106 -158t197 -51q94 0 162.5 41.5t99.5 102t31 128.5q0 104 -50.5 181
t-185.5 188l-92 76q-153 126 -209.5 228t-56.5 216q0 166 115 267.5t309 101.5q101 0 190 -21q49 -10 72 -10q20 0 20 -14q0 -1 -2 -27t-4 -77t-2 -113q0 -47 -14 -47q-13 0 -16 26q-2 20 -10 53.5t-17 49.5q-5 10 -13 20.5t-28.5 27t-46.5 29t-70.5 22t-97.5 9.5
q-109 0 -180.5 -64t-71.5 -173q0 -88 51 -158.5t199 -185.5z" />
    <glyph glyph-name="scedilla" unicode="&#x15f;" horiz-adv-x="1073" 
d="M580 -16q-104 -89 -134 -123q97 -9 151 -46.5t54 -99.5q0 -55 -42.5 -99t-102.5 -69q-79 -36 -160 -36q-27 0 -27 16q0 8 6 13t13.5 6.5t21.5 2.5q60 7 106 40t46 85q0 51 -31.5 88.5t-115.5 61.5q-31 8 -31 18q0 9 26 29l123 102q-18 -2 -55 -2q-163 0 -262 47
q-19 9 -23 19.5t-4 46.5q0 38 2 75t5.5 71.5t3.5 37.5q0 29 14 29q16 0 16 -21q0 -38 6 -63q14 -60 60.5 -100.5t103 -56t121.5 -15.5q129 0 199.5 64.5t70.5 166.5q0 46 -11.5 82t-43.5 73t-68 67t-104 81l-82 62q-142 106 -200 192.5t-58 180.5q0 152 109 239.5t290 87.5
q101 0 187 -20q35 -8 63 -8q19 0 19 -13l-2 -22q-2 -22 -4 -65.5t-2 -96.5q0 -39 -15 -39q-13 0 -16 23q-5 46 -27 86q-6 10 -19.5 22t-39.5 28t-72 26t-102 10q-103 0 -171.5 -50t-68.5 -139q0 -82 49 -142t185 -153l51 -34q161 -110 228 -207.5t67 -212.5
q0 -188 -168 -297q-56 -36 -135 -49z" />
    <glyph glyph-name="Scaron" unicode="&#x160;" horiz-adv-x="1167" 
d="M508 -35q-162 0 -275 55q-21 10 -25.5 22.5t-4.5 55.5q0 52 10 217q3 33 16 33q15 0 15 -22q0 -47 6 -76q22 -107 106 -158t197 -51q94 0 162.5 41.5t99.5 102t31 128.5q0 104 -50.5 181t-185.5 188l-92 76q-153 126 -209.5 228t-56.5 216q0 166 115 267.5t309 101.5
q101 0 190 -21q49 -10 72 -10q20 0 20 -14q0 -1 -2 -27t-4 -77t-2 -113q0 -47 -14 -47q-13 0 -16 26q-2 20 -10 53.5t-17 49.5q-5 10 -13 20.5t-28.5 27t-46.5 29t-70.5 22t-97.5 9.5q-109 0 -180.5 -64t-71.5 -173q0 -88 51 -158.5t199 -185.5l57 -46q173 -136 236 -243.5
t63 -237.5q0 -82 -40 -177.5t-134 -162.5q-124 -86 -309 -86zM365 1884l43 45q13 13 18 13q8 0 16 -11q30 -33 90.5 -82.5t81.5 -58.5q16 -8 21 -8q13 0 33 10q54 29 174 129q24 21 37 21q6 0 10 -5.5t4 -11.5t-12 -22q-15 -15 -113.5 -106.5t-116.5 -106.5q-24 -21 -35 -21
q-6 0 -30 21q-180 135 -207 155q-25 17 -25 21q0 2 11 18z" />
    <glyph glyph-name="scaron" unicode="&#x161;" horiz-adv-x="1073" 
d="M428 -29q-163 0 -262 47q-19 9 -23 19.5t-4 46.5q0 38 2 75t5.5 71.5t3.5 37.5q0 29 14 29q16 0 16 -21q0 -38 6 -63q14 -60 60.5 -100.5t103 -56t121.5 -15.5q129 0 199.5 64.5t70.5 166.5q0 46 -11.5 82t-43.5 73t-68 67t-104 81l-82 62q-142 106 -200 192.5t-58 180.5
q0 152 109 239.5t290 87.5q101 0 187 -20q35 -8 63 -8q19 0 19 -13l-2 -22q-2 -22 -4 -65.5t-2 -96.5q0 -39 -15 -39q-13 0 -16 23q-5 46 -27 86q-6 10 -19.5 22t-39.5 28t-72 26t-102 10q-103 0 -171.5 -50t-68.5 -139q0 -82 49 -142t185 -153l51 -34q161 -110 228 -207.5
t67 -212.5q0 -188 -168 -297q-96 -62 -287 -62zM297 1649l43 45q12 12 18 12q10 0 17 -10q30 -33 90.5 -83t81.5 -59q16 -8 20 -8q13 0 33 10q51 27 174 130q23 20 37 20q6 0 10 -5t4 -11q0 -7 -12 -23q-15 -15 -113.5 -106.5t-115.5 -106.5q-23 -20 -35 -20q-8 0 -31 20
q-5 4 -52.5 39.5t-95 71.5t-59.5 45q-24 16 -24 20t10 19z" />
    <glyph glyph-name="uni0162" unicode="&#x162;" horiz-adv-x="1415" 
d="M719 0h-4q-3 0 -41 -1.5t-85.5 -3t-74.5 -1.5q-33 0 -33 16q0 13 17 13q25 0 61 8q28 5 40 32.5t19 79.5q11 95 11 445v866l-303 -4q-96 -2 -140 -15.5t-69 -50.5q-23 -35 -35 -63q-8 -21 -21 -21q-10 0 -10 19q0 33 45 213q13 39 21 39q3 0 30.5 -11.5t59.5 -13.5
q98 -10 162 -10h768q90 0 145 10q13 2 26 4.5t20.5 4t10.5 1.5q11 0 11 -24q0 -35 -3.5 -126.5t-3.5 -98.5q0 -27 -14 -27t-16 35l-2 22q-5 52 -60 81t-192 32l-258 4v-866q0 -359 10 -445q5 -51 21.5 -78.5t58.5 -33.5q58 -8 92 -8q16 0 16 -13q0 -16 -32 -16q-74 0 -172 4
q-23 -18 -80 -70.5t-68 -66.5q97 -9 151 -46.5t54 -99.5q0 -55 -42.5 -99t-102.5 -69q-79 -36 -160 -36q-27 0 -27 16q0 8 6 13t13.5 6.5t21.5 2.5q60 7 106 40t46 85q0 50 -32 88t-116 62q-30 8 -30 18q0 9 26 29z" />
    <glyph glyph-name="uni0163" unicode="&#x163;" horiz-adv-x="1249" 
d="M639 0h-6q-2 0 -38 -1.5t-81 -3t-68 -1.5q-28 0 -28 14q0 12 14 12q17 0 53 9q26 6 37.5 28.5t16.5 65.5q8 72 8 377v731l-260 -4q-85 -2 -124 -13.5t-59 -42.5q-9 -14 -14.5 -24.5t-8.5 -19t-5 -11.5q-5 -16 -19 -16q-4 0 -8 3.5t-4 10.5q0 11 19.5 99t19.5 90
q13 32 18 32q4 0 28 -8.5t52 -11.5q68 -8 142 -8h680q71 0 129 8q11 2 23 4t18.5 3t9.5 1q8 0 8 -20q0 -31 -3 -112t-3 -87q0 -10 -5.5 -16.5t-11.5 -6.5q-12 0 -14 31l-2 18q-5 45 -51 69.5t-166 27.5l-225 4v-731q0 -305 8 -377q5 -44 18 -65t51 -27q50 -8 82 -8
q15 0 15 -15q0 -14 -29 -14q-59 0 -141 4q-23 -17 -79.5 -69.5t-68.5 -67.5q97 -9 151 -46.5t54 -99.5q0 -55 -42.5 -99t-102.5 -69q-79 -36 -160 -36q-27 0 -27 16q0 8 6 13t13.5 6.5t21.5 2.5q60 7 106 40t46 85q0 50 -32 88t-116 62q-30 8 -30 18q0 9 26 29z" />
    <glyph glyph-name="Tcaron" unicode="&#x164;" horiz-adv-x="1415" 
d="M801 1454v-866q0 -359 10 -445q5 -51 21.5 -78.5t58.5 -33.5q58 -8 92 -8q16 0 16 -13q0 -16 -32 -16q-50 0 -110 1.5t-100.5 3t-41.5 1.5q-3 0 -41 -1.5t-85.5 -3t-74.5 -1.5q-33 0 -33 16q0 13 17 13q25 0 61 8q28 5 40 32.5t19 79.5q11 95 11 445v866l-303 -4
q-96 -2 -140 -15.5t-69 -50.5q-23 -35 -35 -63q-8 -21 -21 -21q-10 0 -10 19q0 33 45 213q13 39 21 39q3 0 30.5 -11.5t59.5 -13.5q98 -10 162 -10h768q90 0 145 10q13 2 26 4.5t20.5 4t10.5 1.5q11 0 11 -24q0 -35 -3.5 -126.5t-3.5 -98.5q0 -27 -14 -27t-16 35l-2 22
q-5 52 -60 81t-192 32zM459 1884l43 45q13 13 18 13q9 0 17 -11q30 -33 90.5 -82.5t81.5 -58.5q16 -8 20 -8q13 0 33 10q54 29 174 129q24 21 37 21q6 0 10 -5.5t4 -11.5t-12 -22q-15 -15 -113.5 -106.5t-116.5 -106.5q-24 -21 -34 -21q-7 0 -31 21q-180 135 -207 155
q-24 16 -24 21q0 3 10 18z" />
    <glyph glyph-name="tcaron" unicode="&#x165;" horiz-adv-x="1249" 
d="M711 1231v-731q0 -305 8 -377q5 -44 18 -65t51 -27q50 -8 82 -8q15 0 15 -15q0 -14 -29 -14q-43 0 -96 1.5t-89 3t-38 1.5t-38 -1.5t-81 -3t-68 -1.5q-28 0 -28 14q0 12 14 12q17 0 53 9q26 6 37.5 28.5t16.5 65.5q8 72 8 377v731l-260 -4q-85 -2 -124 -13.5t-59 -42.5
q-9 -14 -14.5 -24.5t-8.5 -19t-5 -11.5q-5 -16 -19 -16q-4 0 -8 3.5t-4 10.5q0 11 19.5 99t19.5 90q13 32 18 32q4 0 28 -8.5t52 -11.5q68 -8 142 -8h680q71 0 129 8q11 2 23 4t18.5 3t9.5 1q8 0 8 -20q0 -31 -3 -112t-3 -87q0 -10 -5.5 -16.5t-11.5 -6.5q-12 0 -14 31
l-2 18q-5 45 -51 69.5t-166 27.5zM385 1649l43 45q12 12 18 12q9 0 17 -10q30 -33 90.5 -83t81.5 -59q16 -8 20 -8q13 0 33 10q51 27 174 130q23 20 37 20q6 0 10 -5t4 -11q0 -7 -12 -23q-15 -15 -113.5 -106.5t-115.5 -106.5q-23 -20 -35 -20q-8 0 -31 20q-5 4 -52.5 39.5
t-95 71.5t-59.5 45q-24 16 -24 20t10 19z" />
    <glyph glyph-name="Umacron" unicode="&#x16a;" horiz-adv-x="1699" 
d="M246 649v299q0 377 -4 443q-3 55 -21 80.5t-67 35.5q-24 6 -70 6q-16 0 -16 13q0 16 32 16q40 0 95 -1.5t95.5 -3t45.5 -1.5q4 0 85.5 3t117.5 3q32 0 32 -16q0 -13 -16 -13q-13 0 -51 -6q-40 -6 -56.5 -33t-19.5 -83q-4 -66 -4 -443v-286q0 -206 40 -320.5t114 -185.5
q70 -66 141.5 -89.5t167.5 -23.5q93 0 179 40t142 107q66 83 92.5 206.5t26.5 295.5v256q0 377 -4 443q-3 55 -21 80.5t-67 35.5q-24 6 -70 6q-16 0 -16 13q0 16 33 16q41 0 92 -1.5t86.5 -3t38.5 -1.5q1 0 68.5 3t103.5 3q33 0 33 -16q0 -13 -17 -13q-13 0 -51 -6
q-40 -9 -56.5 -35t-19.5 -81q-4 -66 -4 -443v-219q0 -94 -7 -170.5t-25.5 -161.5t-57.5 -156.5t-98 -123.5q-171 -152 -422 -152q-38 0 -78 4t-102.5 17t-126.5 45t-115 80q-84 81 -131 205.5t-47 332.5zM659 1843h482q11 0 15 -6t1 -14l-16 -45q-3 -13 -19 -13h-481
q-11 0 -16 3t-4 12l16 51q2 12 22 12z" />
    <glyph glyph-name="umacron" unicode="&#x16b;" horiz-adv-x="1499" 
d="M225 551v256q0 320 -4 375q-3 46 -18 68t-56 28q-28 4 -61 4q-4 0 -9 5t-5 9q0 15 28 15q36 0 84 -1t83 -2t40 -1q3 0 77 2t105 2t31 -15q0 -5 -5 -9.5t-11 -4.5q-22 0 -45 -4q-33 -6 -46 -28t-16 -68q-4 -55 -4 -375v-244q0 -176 34 -272t99 -154q62 -56 123 -75
t146 -19q82 0 157 33.5t121 89.5q59 70 81 172.5t22 249.5v219q0 237 -5 375q-2 46 -16 68t-55 28q-28 4 -62 4q-6 0 -10 4.5t-4 9.5q0 15 29 15q35 0 81 -1t78.5 -2t34.5 -1q1 0 60.5 2t91.5 2q28 0 28 -15q0 -5 -4 -9.5t-10 -4.5q-22 0 -45 -4q-35 -7 -47.5 -28.5
t-15.5 -67.5q-2 -27 -2 -375v-186q0 -170 -35.5 -304.5t-132.5 -218.5q-147 -127 -377 -127q-244 0 -375 123q-75 70 -116.5 175.5t-41.5 281.5zM559 1608h481q11 0 15.5 -6.5t1.5 -14.5l-17 -45q-3 -12 -18 -12h-481q-12 0 -17 3t-4 11l17 51q3 13 22 13z" />
    <glyph glyph-name="Uring" unicode="&#x16e;" horiz-adv-x="1699" 
d="M246 649v299q0 377 -4 443q-3 55 -21 80.5t-67 35.5q-24 6 -70 6q-16 0 -16 13q0 16 32 16q40 0 95 -1.5t95.5 -3t45.5 -1.5q4 0 85.5 3t117.5 3q32 0 32 -16q0 -13 -16 -13q-13 0 -51 -6q-40 -6 -56.5 -33t-19.5 -83q-4 -66 -4 -443v-286q0 -206 40 -320.5t114 -185.5
q70 -66 141.5 -89.5t167.5 -23.5q93 0 179 40t142 107q66 83 92.5 206.5t26.5 295.5v256q0 377 -4 443q-3 55 -21 80.5t-67 35.5q-24 6 -70 6q-16 0 -16 13q0 16 33 16q41 0 92 -1.5t86.5 -3t38.5 -1.5q1 0 68.5 3t103.5 3q33 0 33 -16q0 -13 -17 -13q-13 0 -51 -6
q-40 -9 -56.5 -35t-19.5 -81q-4 -66 -4 -443v-219q0 -94 -7 -170.5t-25.5 -161.5t-57.5 -156.5t-98 -123.5q-171 -152 -422 -152q-38 0 -78 4t-102.5 17t-126.5 45t-115 80q-84 81 -131 205.5t-47 332.5zM846 1679q-75 0 -117.5 33.5t-42.5 87.5q0 71 69.5 123.5t172.5 52.5
q78 0 123 -31.5t45 -84.5q1 -80 -76.5 -130.5t-173.5 -50.5zM879 1729q51 0 85.5 30.5t34.5 73.5q0 40 -27 67t-79 27q-42 0 -79.5 -26t-37.5 -74q0 -43 32 -70.5t71 -27.5z" />
    <glyph glyph-name="uring" unicode="&#x16f;" horiz-adv-x="1499" 
d="M225 551v256q0 320 -4 375q-3 46 -18 68t-56 28q-28 4 -61 4q-4 0 -9 5t-5 9q0 15 28 15q36 0 84 -1t83 -2t40 -1q3 0 77 2t105 2t31 -15q0 -5 -5 -9.5t-11 -4.5q-22 0 -45 -4q-33 -6 -46 -28t-16 -68q-4 -55 -4 -375v-244q0 -176 34 -272t99 -154q62 -56 123 -75
t146 -19q82 0 157 33.5t121 89.5q59 70 81 172.5t22 249.5v219q0 237 -5 375q-2 46 -16 68t-55 28q-28 4 -62 4q-6 0 -10 4.5t-4 9.5q0 15 29 15q35 0 81 -1t78.5 -2t34.5 -1q1 0 60.5 2t91.5 2q28 0 28 -15q0 -5 -4 -9.5t-10 -4.5q-22 0 -45 -4q-35 -7 -47.5 -28.5
t-15.5 -67.5q-2 -27 -2 -375v-186q0 -170 -35.5 -304.5t-132.5 -218.5q-147 -127 -377 -127q-244 0 -375 123q-75 70 -116.5 175.5t-41.5 281.5zM745 1444q-75 0 -117 33.5t-42 87.5q0 71 69 123.5t172 52.5q77 0 122.5 -32t45.5 -85q1 -80 -76 -130t-174 -50zM778 1493
q51 0 86 30.5t35 73.5q0 40 -27 67.5t-79 27.5q-42 0 -79.5 -26.5t-37.5 -74.5q0 -43 31.5 -70.5t70.5 -27.5z" />
    <glyph glyph-name="Uhungarumlaut" unicode="&#x170;" horiz-adv-x="1699" 
d="M246 649v299q0 377 -4 443q-3 55 -21 80.5t-67 35.5q-24 6 -70 6q-16 0 -16 13q0 16 32 16q40 0 95 -1.5t95.5 -3t45.5 -1.5q4 0 85.5 3t117.5 3q32 0 32 -16q0 -13 -16 -13q-13 0 -51 -6q-40 -6 -56.5 -33t-19.5 -83q-4 -66 -4 -443v-286q0 -206 40 -320.5t114 -185.5
q70 -66 141.5 -89.5t167.5 -23.5q93 0 179 40t142 107q66 83 92.5 206.5t26.5 295.5v256q0 377 -4 443q-3 55 -21 80.5t-67 35.5q-24 6 -70 6q-16 0 -16 13q0 16 33 16q41 0 92 -1.5t86.5 -3t38.5 -1.5q1 0 68.5 3t103.5 3q33 0 33 -16q0 -13 -17 -13q-13 0 -51 -6
q-40 -9 -56.5 -35t-19.5 -81q-4 -66 -4 -443v-219q0 -94 -7 -170.5t-25.5 -161.5t-57.5 -156.5t-98 -123.5q-171 -152 -422 -152q-38 0 -78 4t-102.5 17t-126.5 45t-115 80q-84 81 -131 205.5t-47 332.5zM866 1931q5 6 10.5 14t8.5 12l6 8t5.5 5.5t4.5 1.5q12 0 27 -6
q12 -5 76 -45q4 -2 6.5 -4.5t3.5 -4.5t0.5 -4t-1.5 -3t-3 -2t-12 -4.5t-23.5 -9.5t-26.5 -13q-135 -86 -200 -154q-19 -22 -29 -22q-5 0 -7 5t1 13q4 12 66 96.5t87 116.5zM1133 1935q6 6 12 13t9 11t6.5 7t6 4.5t4.5 1.5q13 0 29 -8q34 -21 72 -51q7 -7 7 -13t-5 -8
q-1 0 -12 -2t-25 -6.5t-27 -11.5q-104 -55 -217 -154q-16 -18 -28 -18q-13 0 -7 16q4 12 78 103t97 116z" />
    <glyph glyph-name="uhungarumlaut" unicode="&#x171;" horiz-adv-x="1499" 
d="M225 551v256q0 320 -4 375q-3 46 -18 68t-56 28q-28 4 -61 4q-4 0 -9 5t-5 9q0 15 28 15q36 0 84 -1t83 -2t40 -1q3 0 77 2t105 2t31 -15q0 -5 -5 -9.5t-11 -4.5q-22 0 -45 -4q-33 -6 -46 -28t-16 -68q-4 -55 -4 -375v-244q0 -176 34 -272t99 -154q62 -56 123 -75
t146 -19q82 0 157 33.5t121 89.5q59 70 81 172.5t22 249.5v219q0 237 -5 375q-2 46 -16 68t-55 28q-28 4 -62 4q-6 0 -10 4.5t-4 9.5q0 15 29 15q35 0 81 -1t78.5 -2t34.5 -1q1 0 60.5 2t91.5 2q28 0 28 -15q0 -5 -4 -9.5t-10 -4.5q-22 0 -45 -4q-35 -7 -47.5 -28.5
t-15.5 -67.5q-2 -27 -2 -375v-186q0 -170 -35.5 -304.5t-132.5 -218.5q-147 -127 -377 -127q-244 0 -375 123q-75 70 -116.5 175.5t-41.5 281.5zM723 1696q5 6 10.5 14t8.5 12l6 8t5.5 5.5t4.5 1.5q11 0 26 -6q12 -5 76 -45q4 -2 6.5 -4.5t3.5 -5t0.5 -4.5t-1.5 -3t-3 -2
t-12 -4.5t-23 -9.5t-26 -13q-140 -90 -201 -153q-20 -23 -29 -23q-5 0 -7 6t1 13q4 12 65.5 95t88.5 118zM989 1700q5 6 12 13.5t10 10.5t6.5 7t6 5t4.5 1q13 0 29 -8q25 -15 71 -52q7 -7 7 -12.5t-5 -7.5l-11 -3q-11 -2 -25 -6.5t-27 -11.5q-107 -57 -217 -153
q-17 -19 -29 -19q-5 0 -7 5t1 12q4 12 78 103.5t96 115.5z" />
    <glyph glyph-name="Uogonek" unicode="&#x172;" horiz-adv-x="1699" 
d="M918 -264q0 -48 29.5 -75.5t74.5 -27.5q28 0 59.5 18.5t53.5 37t26 18.5q17 0 17 -12q0 -5 -1.5 -9t-3 -6t-6 -6.5t-6.5 -7.5q-17 -20 -45.5 -44.5t-85.5 -53.5t-110 -29q-78 0 -120 40.5t-42 103.5q0 21 4.5 42.5t11.5 40.5t18 38.5t21.5 35t25 32.5t24.5 28t25 25
t21.5 20t18.5 16l12 10q-28 -4 -47 -4q-16 -2 -47 -2q-38 0 -78 4t-102.5 17t-126.5 45t-115 80q-84 81 -131 205.5t-47 332.5v299q0 377 -4 443q-3 55 -21 80.5t-67 35.5q-24 6 -70 6q-16 0 -16 13q0 16 32 16q40 0 95 -1.5t95.5 -3t45.5 -1.5q4 0 85.5 3t117.5 3
q32 0 32 -16q0 -13 -16 -13q-13 0 -51 -6q-40 -6 -56.5 -33t-19.5 -83q-4 -66 -4 -443v-286q0 -206 40 -320.5t114 -185.5q70 -66 141.5 -89.5t167.5 -23.5q93 0 179 40t142 107q66 83 92.5 206.5t26.5 295.5v256q0 377 -4 443q-3 55 -21 80.5t-67 35.5q-24 6 -70 6
q-16 0 -16 13q0 16 33 16q41 0 92 -1.5t86.5 -3t38.5 -1.5q1 0 68.5 3t103.5 3q33 0 33 -16q0 -13 -17 -13q-13 0 -51 -6q-40 -9 -56.5 -35t-19.5 -81q-4 -66 -4 -443v-219q0 -94 -7 -170.5t-25.5 -161.5t-57.5 -156.5t-98 -123.5q-34 -30 -72 -51t-82.5 -39.5t-66.5 -30.5
q-59 -32 -94 -108.5t-35 -151.5z" />
    <glyph glyph-name="uogonek" unicode="&#x173;" horiz-adv-x="1499" 
d="M834 -264q0 -48 29.5 -75.5t74.5 -27.5q28 0 59.5 18.5t53.5 37t26 18.5q17 0 17 -12q0 -5 -1.5 -9t-3 -6t-6 -6.5t-6.5 -7.5q-17 -20 -45.5 -44.5t-85.5 -53.5t-110 -29q-78 0 -120 40.5t-42 103.5q0 58 39.5 125.5t79.5 108.5t73 65q-96 -11 -108 -11q-244 0 -375 123
q-75 70 -116.5 175.5t-41.5 281.5v256q0 320 -4 375q-3 46 -18 68t-56 28q-28 4 -61 4q-4 0 -9 5t-5 9q0 15 28 15q36 0 84 -1t83 -2t40 -1q3 0 77 2t105 2t31 -15q0 -5 -5 -9.5t-11 -4.5q-22 0 -45 -4q-33 -6 -46 -28t-16 -68q-4 -55 -4 -375v-244q0 -176 34 -272t99 -154
q62 -56 123 -75t146 -19q82 0 157 33.5t121 89.5q59 70 81 172.5t22 249.5v219q0 237 -5 375q-2 46 -16 68t-55 28q-28 4 -62 4q-6 0 -10 4.5t-4 9.5q0 15 29 15q35 0 81 -1t78.5 -2t34.5 -1q1 0 60.5 2t91.5 2q28 0 28 -15q0 -5 -4 -9.5t-10 -4.5q-22 0 -45 -4
q-35 -7 -47.5 -28.5t-15.5 -67.5q-2 -27 -2 -375v-186q0 -170 -35.5 -304.5t-132.5 -218.5q-36 -31 -102 -62t-77 -38q-49 -29 -85.5 -109t-36.5 -153z" />
    <glyph glyph-name="Ydieresis" unicode="&#x178;" horiz-adv-x="1339" 
d="M592 348v176q0 52 -7 93t-15 63t-25 59q-11 25 -159.5 268.5t-201.5 321.5q-71 106 -139 152q-50 32 -88 32q-20 0 -20 15q0 14 26 14q23 0 112.5 -3t90.5 -3q4 0 31 1.5t66.5 3t74.5 1.5q27 0 27 -14q0 -2 -1.5 -4t-4.5 -4t-6 -3t-9 -3.5t-10 -4.5q-27 -13 -27 -36
q0 -28 27 -80q30 -53 191 -330.5t186 -317.5q25 56 158 289t182 314q34 54 34 104q0 49 -32 57q-31 10 -31 21q0 12 33 12q31 0 81.5 -3t53.5 -3t89.5 3t109.5 3q26 0 26 -12q0 -17 -26 -17q-49 0 -95 -28q-29 -18 -50 -39t-58 -66q-50 -60 -206 -321.5t-185 -329.5
q-15 -35 -22 -73.5t-8 -62.5t-1 -69v-176q0 -119 6 -205q7 -102 84 -112q58 -8 92 -8q17 0 17 -13q0 -16 -33 -16q-50 0 -110 1.5t-100.5 3t-41.5 1.5q-3 0 -41 -1.5t-85.5 -3t-74.5 -1.5q-33 0 -33 16q0 13 17 13q25 0 61 8q57 11 64 112q6 86 6 205zM924 1700
q-42 0 -64 27t-22 61q0 33 22.5 60.5t65.5 27.5q38 0 63 -22.5t25 -59.5q0 -41 -24.5 -67.5t-65.5 -26.5zM512 1700q-42 0 -64 27t-22 61q0 33 22.5 60.5t65.5 27.5q38 0 63 -22.5t25 -59.5q0 -41 -24.5 -67.5t-65.5 -26.5z" />
    </font>
</defs>
</svg>
