<?xml version="1.0" encoding="UTF-8"?><svg width="304" height="1043" viewBox="0 0 304 1043" xmlns="http://www.w3.org/2000/svg" xmlns:xlink="http://www.w3.org/1999/xlink"><svg width="26" height="26" viewBox="0 0 26 26" id="brand-favicon" xmlns="http://www.w3.org/2000/svg"><path d="M0 0h26l-.008 21.492V26h-.156L13.43 16.473l-.012-9.352h.164l2.723 3.559v4.523l5.27 2.055V4.363l-17.2.008v12.887l5.309-2.031.007-4.543 2.668-3.559h.16v9.36L.18 26H.024L0 0zm0 0" fill-rule="evenodd" fill="#d2ac67"/></svg><svg data-name="Component 26 – 2" width="304" height="16" viewBox="0 0 304 16" id="design-element-hr" y="26" xmlns="http://www.w3.org/2000/svg"><defs><linearGradient id="ba" x1=".5" x2=".5" y2="1" gradientUnits="objectBoundingBox"><stop offset="0" stop-color="#d2ac67"/><stop offset="1" stop-color="#d2ac67" stop-opacity="0"/></linearGradient><linearGradient id="bb" x1=".5" x2=".5" y2="1" gradientUnits="objectBoundingBox"><stop offset="0" stop-color="#d2ac67" stop-opacity="0"/><stop offset="1" stop-color="#d2ac67"/></linearGradient></defs><path data-name="Path 11863" d="M0 0h1v120H0z" transform="rotate(-90 96.373 -87.627)" fill="url(#ba)"/><g data-name="Group 6325" fill="#1d1d1b"><path data-name="Path 11864" d="M139.367 5.99a1.673 1.673 0 001.46 1.562 1.609 1.609 0 001.687-1.093c.243-.915-.623-1.723-1.6-1.989a3.488 3.488 0 00-4.111 4.6c.638 1.951 2.949 3.194 5.28 3.066a8.087 8.087 0 003.2-.89c4-2 6.256-6.3 10.2-8.566a9.427 9.427 0 0112.531 2.553l-.07.046a9.39 9.39 0 00-8.958-3.042c-5.734 1.149-8.147 7.122-13.5 9.4a7.851 7.851 0 01-6.781-.006c-3.327-1.711-3.389-5.526-1.182-7.153a4.242 4.242 0 013.6-.662 2.763 2.763 0 011.982 1.854 1.967 1.967 0 01-3.185 1.821 1.688 1.688 0 01-.647-1.512z"/><path data-name="Path 11865" d="M147.351 3.026c-.834 1.834-3.12 1.488-3.193-.541a2.327 2.327 0 011.678-2.334 3.741 3.741 0 012.766.267 2.906 2.906 0 011.544 2.341 5.26 5.26 0 01-1.234 4.062 7.5 7.5 0 01-4.97 2.365l-.02-.078a16.5 16.5 0 002.4-1.174 6.428 6.428 0 003.055-3.873 4.438 4.438 0 00-.093-2.473 2.3 2.3 0 00-2.045-1.312c-2.844-.1-3.059 3.891-1.009 3.391a2.344 2.344 0 001.056-.688z"/><path data-name="Path 11866" d="M155.834 12.948c.927-1.788 3.192-1.326 3.161.7a2.327 2.327 0 01-1.795 2.245 3.741 3.741 0 01-2.749-.409 2.908 2.908 0 01-1.422-2.418 5.261 5.261 0 011.441-3.994 7.5 7.5 0 015.084-2.107l.015.079a16.493 16.493 0 00-2.457 1.049 6.427 6.427 0 00-3.249 3.711 4.438 4.438 0 00-.034 2.474 2.305 2.305 0 001.975 1.415c2.835.241 3.254-3.729 1.181-3.335a2.342 2.342 0 00-1.09.633z"/><path data-name="Path 11867" d="M137.272 13.057a6.688 6.688 0 002.851 1.291 12.467 12.467 0 006.208-.421c4.864-1.841 6.507-8.1 12.115-10.047 3.005-1.019 6.552-.1 8.1 2.41a3.486 3.486 0 01.258 3.484 5.824 5.824 0 01-4.3 2.872 3.4 3.4 0 01-3.24-1.413 2.1 2.1 0 01.793-3.052 1.764 1.764 0 012.644 1.28h-.086a1.423 1.423 0 00-.89-1.139 1.759 1.759 0 00-2.075 2.684 2.9 2.9 0 002.789 1.117 5.166 5.166 0 003.7-2.626c.548-1.108.285-2.69-1.307-3.984a6.579 6.579 0 00-6.1-.886c-5.239 1.771-7.023 8.016-12.212 9.787a12.247 12.247 0 01-6.484.185 6.459 6.459 0 01-2.835-1.49z"/></g><path data-name="Path 11868" d="M0 0h1v120H0z" transform="rotate(-90 4.373 4.373)" fill="url(#bb)"/></svg><svg width="48" height="853.288" viewBox="0 0 48 853.288" id="meetwidthsuccess-vh" y="42" xmlns="http://www.w3.org/2000/svg"><defs><linearGradient id="ca" x1=".5" x2=".5" y2="1" gradientUnits="objectBoundingBox"><stop offset="0" stop-color="#d2ac67"/><stop offset="1" stop-color="#fff" stop-opacity="0"/></linearGradient></defs><g data-name="Group 7020"><path data-name="Rectangle 260" transform="translate(23.999 463.939)" fill="url(#ca)" d="M0 0h1.895v389.349H0z"/><path data-name="Rectangle 261" transform="rotate(180 12.947 180.674)" fill="url(#ca)" d="M0 0h1.895v361.349H0z"/><path data-name="Path 11864" d="M5.017 406.885a2.51 2.51 0 002.19 2.343 2.413 2.413 0 002.531-1.639c.365-1.372-.934-2.585-2.4-2.983a5.231 5.231 0 00-6.167 6.9c.957 2.927 4.423 4.791 7.921 4.6a12.131 12.131 0 004.807-1.334c6-3.005 9.383-9.445 15.3-12.848 7.076-3.984 15.175-1.658 18.8 3.829l-.106.069a14.085 14.085 0 00-13.438-4.563c-8.6 1.723-12.221 10.682-20.246 14.1a11.776 11.776 0 01-10.172-.008c-4.99-2.566-5.083-8.289-1.772-10.729a6.364 6.364 0 015.4-.994 4.144 4.144 0 012.973 2.781 2.95 2.95 0 01-4.778 2.731 2.531 2.531 0 01-.97-2.268z" fill="#1d1d1b"/><path data-name="Path 11865" d="M16.993 402.44c-1.251 2.75-4.68 2.232-4.79-.812a3.491 3.491 0 012.517-3.5 5.611 5.611 0 014.148.4 4.359 4.359 0 012.316 3.512 7.889 7.889 0 01-1.852 6.094 11.246 11.246 0 01-7.454 3.547l-.029-.116a24.744 24.744 0 003.6-1.76 9.641 9.641 0 004.582-5.809 6.657 6.657 0 00-.14-3.71 3.457 3.457 0 00-3.068-1.968c-4.266-.143-4.588 5.837-1.513 5.087a3.516 3.516 0 001.584-1.032z" fill="#1d1d1b"/><path data-name="Path 11866" d="M29.716 417.321c1.39-2.682 4.788-1.989 4.742 1.056a3.49 3.49 0 01-2.692 3.368 5.611 5.611 0 01-4.123-.613 4.361 4.361 0 01-2.133-3.626 7.892 7.892 0 012.162-5.991 11.249 11.249 0 017.626-3.16l.023.118a24.739 24.739 0 00-3.685 1.574 9.641 9.641 0 00-4.874 5.567 6.657 6.657 0 00-.05 3.712 3.458 3.458 0 002.963 2.122c4.253.361 4.882-5.594 1.772-5a3.513 3.513 0 00-1.634.949z" fill="#1d1d1b"/><path data-name="Path 11867" d="M1.876 417.486a10.032 10.032 0 004.276 1.937 18.7 18.7 0 009.312-.631c7.3-2.761 9.761-12.155 18.173-15.071 4.508-1.528 9.829-.145 12.148 3.616a5.229 5.229 0 01.388 5.226 8.736 8.736 0 01-6.446 4.308 5.092 5.092 0 01-4.859-2.119 3.157 3.157 0 011.19-4.578c1.86-.978 3.963.323 3.966 1.92l-.129.006a2.135 2.135 0 00-1.337-1.709 2.639 2.639 0 00-3.113 4.026 4.351 4.351 0 004.183 1.675 7.749 7.749 0 005.555-3.94c.822-1.662.428-4.035-1.96-5.976a9.868 9.868 0 00-9.144-1.33c-7.858 2.657-10.535 12.024-18.318 14.681a18.37 18.37 0 01-9.725.277 9.688 9.688 0 01-4.253-2.236z" fill="#1d1d1b"/></g></svg><svg width="27.42" height="23.503" viewBox="0 0 27.42 23.503" id="quote-bottom" y="896" xmlns="http://www.w3.org/2000/svg"><defs><style>.da{fill:#2f2f2f}</style></defs><path class="da" d="M15.669 0v11.752h7.834a7.843 7.843 0 01-7.834 7.834v3.917a11.764 11.764 0 0011.752-11.752V0zM0 11.752h7.834A7.843 7.843 0 010 19.586v3.917a11.764 11.764 0 0011.752-11.751V0H0z"/></svg><svg width="27.42" height="23.503" viewBox="0 0 27.42 23.503" id="quote-top" y="920" xmlns="http://www.w3.org/2000/svg"><defs><style>.ea{fill:#2f2f2f}</style></defs><path class="ea" d="M11.752 23.503V11.752H3.918a7.843 7.843 0 017.834-7.834V0A11.764 11.764 0 000 11.752v11.751zM27.421 11.752h-7.835a7.843 7.843 0 017.834-7.834V0a11.764 11.764 0 00-11.751 11.752v11.751h11.752z"/></svg><svg width="17.143" height="24" viewBox="0 0 17.143 24" id="rupee-icon" y="944" xmlns="http://www.w3.org/2000/svg"><path data-name="Icon awesome-rupee-sign" d="M16.5 3.429a.643.643 0 00.643-.643V.643A.643.643 0 0016.5 0H.643A.643.643 0 000 .643v2.4a.643.643 0 00.643.643h4.568a3.865 3.865 0 013.266 1.46H.643a.643.643 0 00-.643.64v2.143a.643.643 0 00.643.643h8.5a3.7 3.7 0 01-4 3.141h-4.5a.643.643 0 00-.643.642v2.84a.643.643 0 00.207.472l8.842 8.163a.643.643 0 00.436.17h4.423a.643.643 0 00.436-1.115l-8.083-7.461a7.339 7.339 0 007.41-6.852H16.5a.643.643 0 00.643-.643V5.786a.643.643 0 00-.643-.643h-3.144a7.338 7.338 0 00-.764-1.714z" fill="#d2ac67"/></svg><svg width="24" height="24" viewBox="0 0 24 24" id="spcial-offer-icon" y="968" xmlns="http://www.w3.org/2000/svg"><path data-name="Icon material-local-offer" d="M23.292 11.5L12.492.7A2.385 2.385 0 0010.8 0H2.4A2.407 2.407 0 000 2.4v8.4a2.4 2.4 0 00.708 1.7l10.8 10.8a2.385 2.385 0 001.692.7 2.346 2.346 0 001.692-.708l8.4-8.4A2.346 2.346 0 0024 13.2a2.424 2.424 0 00-.708-1.7zM4.2 6A1.8 1.8 0 116 4.2 1.8 1.8 0 014.2 6z" fill="#d2ac67"/></svg><svg width="32.955" height="27" viewBox="0 0 32.955 27" id="user-check-icon" y="992" xmlns="http://www.w3.org/2000/svg"><g data-name="Icon feather-user-check" fill="none" stroke="#d2ac67" stroke-linecap="round" stroke-linejoin="round" stroke-width="3"><path data-name="Path 12023" d="M21.5 25.5v-2.667a5.333 5.333 0 00-5.333-5.333H6.833A5.333 5.333 0 001.5 22.833V25.5"/><path data-name="Path 12024" d="M16.834 6.833A5.333 5.333 0 1111.5 1.5a5.333 5.333 0 015.333 5.333z"/><path data-name="Path 12025" d="M22.833 12.167l2.667 2.667L30.833 9.5"/></g></svg><svg width="32" height="24" viewBox="0 0 32 24" id="wifi-icon" y="1019" xmlns="http://www.w3.org/2000/svg"><path data-name="Icon awesome-wifi" d="M31.746 6.583a22.122 22.122 0 00-31.491 0 .894.894 0 00-.018 1.231l1.712 1.82a.773.773 0 001.12.02 18.251 18.251 0 0125.863 0 .774.774 0 001.12-.02l1.712-1.82a.9.9 0 00-.018-1.231zM16 17.143A3.437 3.437 0 0016 24a3.437 3.437 0 000-6.857zm10.134-4.478a14.59 14.59 0 00-20.267 0 .889.889 0 00-.029 1.24l1.722 1.821a.777.777 0 001.1.043 10.7 10.7 0 0114.675 0 .776.776 0 001.1-.043l1.722-1.821a.889.889 0 00-.023-1.24z" fill="#d2ac67"/></svg></svg>