<?xml version="1.0" encoding="utf-8"?><svg width="304" height="1073" viewBox="0 0 304 1073" xmlns="http://www.w3.org/2000/svg" xmlns:xlink="http://www.w3.org/1999/xlink"><svg width="101.137" height="47.648" viewBox="0 0 101.137 47.648" id="brand-favicon" xmlns="http://www.w3.org/2000/svg"><defs><clipPath id="aa"><path data-name="Rectangle 6552" fill="#58595b" d="M0 0h101.137v47.648H0z"/></clipPath><clipPath id="ab"><path data-name="Rectangle 6558" fill="none" d="M0 0h36.442v22.332H0z"/></clipPath></defs><g data-name="Group 7704"><g data-name="Group 7794" clip-path="url(#aa)"><g data-name="Group 7793" transform="translate(.758 12.472)" clip-path="url(#ab)"><path data-name="Path 12239" d="M32.621 6.074c-.037 0-.072.006-.108.008a3.129 3.129 0 00-2.56-1.609 2.524 2.524 0 00-.943.19 4.8 4.8 0 00-2.692-1.962 4.7 4.7 0 00-8.09-.578 4.7 4.7 0 00-8.091.578 4.8 4.8 0 00-2.693 1.962 2.523 2.523 0 00-.943-.19 3.129 3.129 0 00-2.56 1.609c-.036 0-.072-.008-.108-.008-1.925 0-3.485 2.228-3.485 4.976s1.56 4.976 3.485 4.976h.013A3.194 3.194 0 006.5 17.789a2.516 2.516 0 00.927-.184 4.792 4.792 0 002.457 1.742 4.708 4.708 0 008.342.787 4.708 4.708 0 008.342-.787 4.792 4.792 0 002.457-1.742 2.516 2.516 0 00.928.184 3.2 3.2 0 002.656-1.759h.012c1.925 0 3.485-2.228 3.485-4.976s-1.56-4.976-3.485-4.976" fill="#840c16" fill-rule="evenodd"/><path data-name="Path 12240" d="M32.178 13.149c-.338.067-.779.034-.7-.545.294-.424.648.254.7.545m-27.913 0c.338.067.779.034.7-.545-.294-.424-.648.254-.7.545m0-3.965c.338-.067.779-.034.7.545-.294.424-.648-.254-.7-.545M.481 11.166a5.677 5.677 0 01.161-1.136 3.8 3.8 0 013.054-3 4.048 4.048 0 00-.012 1.462 2.9 2.9 0 000 5.349A4.042 4.042 0 003.7 15.3a3.8 3.8 0 01-3.054-3 5.68 5.68 0 01-.161-1.136M13.135.418a4 4 0 011.83-.275 3.268 3.268 0 00-2 .023c-.937.227-2.811 1.781-3.726 2.581a4.375 4.375 0 01-3.129 1.44 2.489 2.489 0 01-2.086-1.3 2.68 2.68 0 00.991 1.7 3.1 3.1 0 00-1.122 1.5C1.551 6.07.085 8.357 0 11.166c.085 2.809 1.551 5.1 3.893 5.077a3.1 3.1 0 001.122 1.5 2.68 2.68 0 00-.991 1.7 2.489 2.489 0 012.086-1.3 4.375 4.375 0 013.129 1.439c.915.8 2.789 2.354 3.726 2.581a3.268 3.268 0 002 .023 4 4 0 01-1.831-.274 12.749 12.749 0 01-3.576-2.982c-1.34-1.418-2.213-1.644-3.342-1.621a1.952 1.952 0 00-.376.044 1.769 1.769 0 01-1.44-1.224 4.055 4.055 0 001.206-.74 1.261 1.261 0 00.44-.954v-.012a2.652 2.652 0 01-1.959.9 3.229 3.229 0 01-.106-1.423A1.2 1.2 0 005.4 12.35c-.107-.263-.223-.228-.355-.276-.684-.109-.922.525-1.173.982-.279.06-.952-.49-1.171-.847a2.517 2.517 0 01-.346-1.042 2.516 2.516 0 01.345-1.043c.22-.356.893-.907 1.171-.847.251.457.489 1.091 1.173.982.132-.049.248-.013.355-.276a1.2 1.2 0 00-1.42-1.55 3.233 3.233 0 01.108-1.419 2.651 2.651 0 011.959.9V7.9a1.262 1.262 0 00-.44-.955A4.057 4.057 0 004.4 6.2a1.769 1.769 0 011.44-1.223 1.934 1.934 0 00.376.044c1.129.023 2-.2 3.342-1.621A12.747 12.747 0 0113.135.418m19.043 8.766c-.338-.067-.779-.034-.7.545.294.424.648-.254.7-.545m3.784 1.983a5.639 5.639 0 00-.162-1.137 3.8 3.8 0 00-3.054-3 4.03 4.03 0 01.012 1.462 2.9 2.9 0 010 5.349 4.018 4.018 0 01-.012 1.462 3.8 3.8 0 003.054-3 5.641 5.641 0 00.161-1.136M23.308.418a4 4 0 00-1.831-.275 3.269 3.269 0 012 .023c.938.227 2.811 1.781 3.726 2.581a4.378 4.378 0 003.129 1.439 2.488 2.488 0 002.086-1.3 2.676 2.676 0 01-.99 1.7 3.1 3.1 0 011.122 1.5c2.342-.02 3.808 2.268 3.893 5.077-.085 2.809-1.551 5.1-3.893 5.077a3.1 3.1 0 01-1.122 1.5 2.678 2.678 0 01.99 1.7 2.489 2.489 0 00-2.086-1.3 4.378 4.378 0 00-3.132 1.445c-.914.8-2.788 2.354-3.726 2.581a3.268 3.268 0 01-2 .023 4 4 0 001.831-.274 12.744 12.744 0 003.576-2.982c1.34-1.418 2.214-1.644 3.342-1.621a1.952 1.952 0 01.376.044 1.769 1.769 0 001.439-1.226 4 4 0 01-1.134-.679 1.253 1.253 0 01-.451-.964 2.635 2.635 0 001.9.833 3.221 3.221 0 00.108-1.419 1.2 1.2 0 01-1.42-1.55c.108-.263.223-.228.355-.276.684-.109.922.525 1.173.982.279.06.951-.49 1.171-.847a2.514 2.514 0 00.346-1.042 2.513 2.513 0 00-.346-1.042c-.22-.356-.893-.907-1.171-.847-.251.457-.489 1.091-1.173.982-.132-.049-.248-.013-.355-.276a1.2 1.2 0 011.42-1.55 3.221 3.221 0 00-.108-1.419 2.635 2.635 0 00-1.9.833 1.253 1.253 0 01.451-.964 4 4 0 011.137-.685A1.768 1.768 0 0030.6 4.977a1.934 1.934 0 01-.376.044c-1.128.023-2-.2-3.342-1.621A12.748 12.748 0 0023.308.418m-.681 3.908a.937.937 0 01.7-.961 1.836 1.836 0 00-.327.913c0 .457.461.572.761.572a1.028 1.028 0 00.893-1.142 3.247 3.247 0 00-3.177-2.72 4.917 4.917 0 00-3.256 1.188A4.314 4.314 0 0014.858.484a3.574 3.574 0 00-3.74 2.972c0 1.229.729 1.978 1.547 1.952a1.158 1.158 0 001.15-1.084.937.937 0 00-.7-.961 1.837 1.837 0 01.334.914c0 .457-.461.572-.761.572a1.028 1.028 0 01-.893-1.142 3.248 3.248 0 013.17-2.719 4.917 4.917 0 013.256 1.188A4.314 4.314 0 0121.584.484a3.574 3.574 0 013.739 2.972c0 1.229-.729 1.978-1.547 1.952a1.158 1.158 0 01-1.15-1.084m0 13.682a.937.937 0 00.7.961 1.836 1.836 0 01-.326-.913c0-.457.461-.572.761-.572a1.028 1.028 0 01.893 1.142 3.247 3.247 0 01-3.172 2.721 4.917 4.917 0 01-3.256-1.188 4.314 4.314 0 01-3.363 1.691 3.574 3.574 0 01-3.74-2.972c0-1.229.729-1.979 1.547-1.952a1.158 1.158 0 011.15 1.084.937.937 0 01-.7.961 1.836 1.836 0 00.334-.914c0-.457-.461-.572-.761-.572a1.028 1.028 0 00-.893 1.142 3.248 3.248 0 003.172 2.721 4.917 4.917 0 003.256-1.188 4.314 4.314 0 003.363 1.691 3.574 3.574 0 003.739-2.972c0-1.229-.729-1.979-1.547-1.952a1.157 1.157 0 00-1.15 1.084" fill="#fac55c" fill-rule="evenodd"/><path data-name="Path 12241" d="M21.001 11.173v1.317q0 .339.024.8c.019.427.034.664.046.71a.277.277 0 00.137.139.78.78 0 00.382.071h.324v.3q-.614-.033-1.185-.034-.55 0-1.58.034v-.3h.291c.332 0 .527-.056.586-.167a6.375 6.375 0 00.089-1.536V9.659a5.281 5.281 0 00-.092-1.4c-.061-.111-.237-.168-.525-.168h-.349v-.3q.777.031 1.447.032c.451 0 .889-.011 1.317-.032v.3h-.2a1.223 1.223 0 00-.543.071.316.316 0 00-.128.232 11.876 11.876 0 00-.039 1.259v1.073c.56.024 1.562.037 2.427.037.732 0 1.33-.013 1.789-.037v-.92c0-.538-.021-.991-.056-1.354a.387.387 0 00-.129-.278.789.789 0 00-.443-.086h-.34v-.3q.722.031 1.369.032.7 0 1.453-.032v.3h-.359a.863.863 0 00-.465.081.41.41 0 00-.122.295c-.012.143-.023.6-.023 1.351v2.611a7.547 7.547 0 00.084 1.615c.054.11.227.167.517.167h.367v.3a29.509 29.509 0 00-2.822 0v-.3h.326a.837.837 0 00.462-.082.438.438 0 00.127-.309c.033-.323.053-.8.053-1.415v-1.229q-.666-.036-1.7-.037c-.981 0-2.013.013-2.517.037" fill="#fac55c"/><path data-name="Path 12242" d="M12.032 13.07l1.1-2.7q.277-.693 1.01-2.643h.3q.278.875.751 2.21l1.137 3.2.863-2.988q.123-.428.425-1.651a.775.775 0 00.027-.179.135.135 0 00-.071-.127 1.008 1.008 0 00-.348-.071l-.43-.034v-.3q.664.031 1.042.032.406 0 1-.032v.3h-.245a.339.339 0 00-.24.076 10.382 10.382 0 00-.718 1.981q-.749 2.435-1.245 4.435h-.491a4.773 4.773 0 00-.142-.472q-.207-.609-.961-2.68l-.775-2.123-.886 2.133q-.792 1.916-1.174 3.137h-.477l-.249-1.159q-.1-.515-.242-1.1l-.82-3.529a1.642 1.642 0 00-.212-.613.571.571 0 00-.391-.1h-.2v-.3q.674.031 1.164.032t1.289-.032v.3h-.3a.991.991 0 00-.418.056.2.2 0 00-.1.185.776.776 0 00.024.174l.325 1.567z" fill="#fac55c"/></g></g></g></svg><svg width="304" height="23.082" viewBox="0 0 304 23.082" id="design-element-hr" y="48" xmlns="http://www.w3.org/2000/svg"><defs><linearGradient id="ba" x1=".5" x2=".5" y2="1" gradientUnits="objectBoundingBox"><stop offset="0" stop-color="#2f2f2f"/><stop offset="1" stop-color="#fff" stop-opacity="0"/></linearGradient><linearGradient id="bb" x1=".5" x2=".5" y2="1" gradientUnits="objectBoundingBox"><stop offset="0" stop-color="#fff" stop-opacity="0"/><stop offset="1" stop-color="#2f2f2f"/></linearGradient><clipPath id="bc"><path data-name="Rectangle 6557" fill="#2f2f2f" d="M0 0h35.807v23.082H0z"/></clipPath></defs><g data-name="Group 7775"><g data-name="Group 7774"><g data-name="Component 26 – 182"><path data-name="Path 11863" d="M0 0h1v120H0z" transform="rotate(-90 98.144 -85.856)" fill="url(#ba)"/><path data-name="Path 11868" d="M0 0h1v120H0z" transform="rotate(-90 6.144 6.144)" fill="url(#bb)"/></g><g data-name="Group 7773"><g data-name="Group 7772" transform="translate(135.118 -.001)" clip-path="url(#bc)" fill="#2f2f2f"><path data-name="Path 12237" d="M35.401 11.189a3.013 3.013 0 00-2.048-1.85 2.257 2.257 0 00-2.2.862 1.915 1.915 0 00.114 2.444 1.881 1.881 0 001.671.218 1.537 1.537 0 01-1.677-.767 1.308 1.308 0 01.215-1.027 1.945 1.945 0 011.381-.963c.912-.045 1.593.935 1.844 1.543a3.781 3.781 0 01-1.061 3.935c-1.808 1.674-4.827 1.2-6.554-.455-.246-.4-.513-.781-.781-1.164a4.749 4.749 0 002.035-4.459 2.363 2.363 0 00-4.557-.661c-.7 1.691.134 3.32 1.116 4.8a2.978 2.978 0 01-.363.145 4.138 4.138 0 01-4.64-1.71c-.07-.117-.142-.234-.215-.349-.031-.053-.061-.1-.089-.159a.466.466 0 00-.109-.14A25.904 25.904 0 0018.367 9.9c1.295-1.523 2.416-3.237 2.274-5.324a6.482 6.482 0 00-.335-1.61 4.713 4.713 0 00-2.1-2.838 3.051 3.051 0 00-.3-.134v.068a6.655 6.655 0 011.764 4.785 6.588 6.588 0 01-1.763 4.085v1.98c.287.382.572.77.837 1.169a4.892 4.892 0 00.449.731 8.577 8.577 0 011 3.457 9.408 9.408 0 01-2 6.217c-.116.148-.215.269-.287.353v.251c.084-.081.206-.2.349-.344a9.846 9.846 0 002.924-6.476 6.738 6.738 0 00-.279-1.956 4.779 4.779 0 004.5.2 5.73 5.73 0 00.837 1.122l.053.084c.879 1.445 1.42 3.493-.064 4.777a2.357 2.357 0 01-2.681.176c-.4-.262-1.01-.89-.823-1.563a1.347 1.347 0 011.66-.848c.46.273.3 1.242.343 1.242s.391-1.244-.254-1.724c-.516-.382-1.32-.028-1.724.293a2.04 2.04 0 00-.712 1.284 2.785 2.785 0 002.042 2.634c3.03.656 4.551-2.648 3.831-5.129a6.343 6.343 0 005.394.028 4.566 4.566 0 002.238-2.397 4.322 4.322 0 00-.14-3.3m-9.668 1.939a12.421 12.421 0 01-.34-.536 5.082 5.082 0 01-.854-2.458c-.011-1.253 1.264-2.676 2.411-1.387 1.233 1.39.142 3.323-1.217 4.381"/><path data-name="Path 12238" d="M.405 11.189a3.013 3.013 0 012.048-1.85 2.257 2.257 0 012.2.862 1.915 1.915 0 01-.114 2.444 1.881 1.881 0 01-1.671.218 1.537 1.537 0 001.675-.763 1.308 1.308 0 00-.215-1.027 1.945 1.945 0 00-1.381-.963c-.912-.045-1.593.935-1.844 1.543a3.781 3.781 0 001.063 3.934c1.808 1.674 4.827 1.2 6.554-.455.246-.4.513-.781.781-1.164a4.749 4.749 0 01-2.034-4.462 2.363 2.363 0 014.557-.661c.7 1.691-.134 3.32-1.116 4.8a2.978 2.978 0 00.363.145 4.138 4.138 0 004.64-1.71c.07-.117.142-.234.215-.349.031-.053.061-.1.089-.159a.466.466 0 01.109-.14c.349-.525.728-1.032 1.116-1.532-1.295-1.523-2.416-3.237-2.274-5.324a6.482 6.482 0 01.335-1.61A4.713 4.713 0 0117.6.134 3.051 3.051 0 0117.9 0v.062a6.655 6.655 0 00-1.766 4.785A6.588 6.588 0 0017.9 8.932v1.98c-.287.382-.572.77-.837 1.169a4.892 4.892 0 01-.449.731 8.577 8.577 0 00-1 3.457 9.408 9.408 0 002 6.217c.116.148.215.269.287.353v.251c-.084-.081-.206-.2-.349-.344a9.846 9.846 0 01-2.924-6.476 6.738 6.738 0 01.279-1.956 4.779 4.779 0 01-4.5.2 5.73 5.73 0 01-.837 1.122l-.053.084c-.879 1.445-1.42 3.493.064 4.777a2.357 2.357 0 002.681.176c.4-.262 1.01-.89.823-1.563a1.347 1.347 0 00-1.66-.848c-.46.273-.3 1.242-.343 1.242s-.391-1.244.254-1.724c.516-.382 1.32-.028 1.724.293a2.04 2.04 0 01.712 1.284 2.785 2.785 0 01-2.042 2.634c-3.03.656-4.551-2.648-3.831-5.129a6.343 6.343 0 01-5.394.028 4.566 4.566 0 01-2.239-2.397 4.322 4.322 0 01.14-3.3m9.668 1.939c.117-.176.232-.354.34-.536a5.082 5.082 0 00.854-2.458c.011-1.257-1.268-2.68-2.411-1.39-1.233 1.39-.142 3.323 1.217 4.381"/></g></g></g></g></svg><svg width="48" height="853.288" viewBox="0 0 48 853.288" id="meetwidthsuccess-vh" y="72" xmlns="http://www.w3.org/2000/svg"><defs><linearGradient id="ca" x1=".5" x2=".5" y2="1" gradientUnits="objectBoundingBox"><stop offset="0" stop-color="#d2ac67"/><stop offset="1" stop-color="#fff" stop-opacity="0"/></linearGradient></defs><g data-name="Group 7020"><path data-name="Rectangle 260" transform="translate(23.999 463.939)" fill="url(#ca)" d="M0 0h1.895v389.349H0z"/><path data-name="Rectangle 261" transform="rotate(180 12.947 180.674)" fill="url(#ca)" d="M0 0h1.895v361.349H0z"/><path data-name="Path 11864" d="M5.017 406.885a2.51 2.51 0 002.19 2.343 2.413 2.413 0 002.531-1.639c.365-1.372-.934-2.585-2.4-2.983a5.231 5.231 0 00-6.167 6.9c.957 2.927 4.423 4.791 7.921 4.6a12.131 12.131 0 004.807-1.334c6-3.005 9.383-9.445 15.3-12.848 7.076-3.984 15.175-1.658 18.8 3.829l-.106.069a14.085 14.085 0 00-13.438-4.563c-8.6 1.723-12.221 10.682-20.246 14.1a11.776 11.776 0 01-10.172-.008c-4.99-2.566-5.083-8.289-1.772-10.729a6.364 6.364 0 015.4-.994 4.144 4.144 0 012.973 2.781 2.95 2.95 0 01-4.778 2.731 2.531 2.531 0 01-.97-2.268z" fill="#1d1d1b"/><path data-name="Path 11865" d="M16.993 402.44c-1.251 2.75-4.68 2.232-4.79-.812a3.491 3.491 0 012.517-3.5 5.611 5.611 0 014.148.4 4.359 4.359 0 012.316 3.512 7.889 7.889 0 01-1.852 6.094 11.246 11.246 0 01-7.454 3.547l-.029-.116a24.744 24.744 0 003.6-1.76 9.641 9.641 0 004.582-5.809 6.657 6.657 0 00-.14-3.71 3.457 3.457 0 00-3.068-1.968c-4.266-.143-4.588 5.837-1.513 5.087a3.516 3.516 0 001.584-1.032z" fill="#1d1d1b"/><path data-name="Path 11866" d="M29.716 417.321c1.39-2.682 4.788-1.989 4.742 1.056a3.49 3.49 0 01-2.692 3.368 5.611 5.611 0 01-4.123-.613 4.361 4.361 0 01-2.133-3.626 7.892 7.892 0 012.162-5.991 11.249 11.249 0 017.626-3.16l.023.118a24.739 24.739 0 00-3.685 1.574 9.641 9.641 0 00-4.874 5.567 6.657 6.657 0 00-.05 3.712 3.458 3.458 0 002.963 2.122c4.253.361 4.882-5.594 1.772-5a3.513 3.513 0 00-1.634.949z" fill="#1d1d1b"/><path data-name="Path 11867" d="M1.876 417.486a10.032 10.032 0 004.276 1.937 18.7 18.7 0 009.312-.631c7.3-2.761 9.761-12.155 18.173-15.071 4.508-1.528 9.829-.145 12.148 3.616a5.229 5.229 0 01.388 5.226 8.736 8.736 0 01-6.446 4.308 5.092 5.092 0 01-4.859-2.119 3.157 3.157 0 011.19-4.578c1.86-.978 3.963.323 3.966 1.92l-.129.006a2.135 2.135 0 00-1.337-1.709 2.639 2.639 0 00-3.113 4.026 4.351 4.351 0 004.183 1.675 7.749 7.749 0 005.555-3.94c.822-1.662.428-4.035-1.96-5.976a9.868 9.868 0 00-9.144-1.33c-7.858 2.657-10.535 12.024-18.318 14.681a18.37 18.37 0 01-9.725.277 9.688 9.688 0 01-4.253-2.236z" fill="#1d1d1b"/></g></svg><svg width="27.42" height="23.503" viewBox="0 0 27.42 23.503" id="quote-bottom" y="926" xmlns="http://www.w3.org/2000/svg"><defs><style>.da{fill:#2f2f2f}</style></defs><path class="da" d="M15.669 0v11.752h7.834a7.843 7.843 0 01-7.834 7.834v3.917a11.764 11.764 0 0011.752-11.752V0zM0 11.752h7.834A7.843 7.843 0 010 19.586v3.917a11.764 11.764 0 0011.752-11.751V0H0z"/></svg><svg width="27.42" height="23.503" viewBox="0 0 27.42 23.503" id="quote-top" y="950" xmlns="http://www.w3.org/2000/svg"><defs><style>.ea{fill:#2f2f2f}</style></defs><path class="ea" d="M11.752 23.503V11.752H3.918a7.843 7.843 0 017.834-7.834V0A11.764 11.764 0 000 11.752v11.751zM27.421 11.752h-7.835a7.843 7.843 0 017.834-7.834V0a11.764 11.764 0 00-11.751 11.752v11.751h11.752z"/></svg><svg width="17.143" height="24" viewBox="0 0 17.143 24" id="rupee-icon" y="974" xmlns="http://www.w3.org/2000/svg"><path data-name="Icon awesome-rupee-sign" d="M16.5 3.429a.643.643 0 00.643-.643V.643A.643.643 0 0016.5 0H.643A.643.643 0 000 .643v2.4a.643.643 0 00.643.643h4.568a3.865 3.865 0 013.266 1.46H.643a.643.643 0 00-.643.64v2.143a.643.643 0 00.643.643h8.5a3.7 3.7 0 01-4 3.141h-4.5a.643.643 0 00-.643.642v2.84a.643.643 0 00.207.472l8.842 8.163a.643.643 0 00.436.17h4.423a.643.643 0 00.436-1.115l-8.083-7.461a7.339 7.339 0 007.41-6.852H16.5a.643.643 0 00.643-.643V5.786a.643.643 0 00-.643-.643h-3.144a7.338 7.338 0 00-.764-1.714z" fill="#901a1e"/></svg><svg width="24" height="24" viewBox="0 0 24 24" id="spcial-offer-icon" y="998" xmlns="http://www.w3.org/2000/svg"><path data-name="Icon material-local-offer" d="M23.292 11.5L12.492.7A2.385 2.385 0 0010.8 0H2.4A2.407 2.407 0 000 2.4v8.4a2.4 2.4 0 00.708 1.7l10.8 10.8a2.385 2.385 0 001.692.7 2.346 2.346 0 001.692-.708l8.4-8.4A2.346 2.346 0 0024 13.2a2.424 2.424 0 00-.708-1.7zM4.2 6A1.8 1.8 0 116 4.2 1.8 1.8 0 014.2 6z" fill="#901a1e"/></svg><svg width="32.955" height="27" viewBox="0 0 32.955 27" id="user-check-icon" y="1022" xmlns="http://www.w3.org/2000/svg"><g data-name="Icon feather-user-check" fill="none" stroke="#901a1e" stroke-linecap="round" stroke-linejoin="round" stroke-width="3"><path data-name="Path 12023" d="M21.5 25.5v-2.667a5.333 5.333 0 00-5.333-5.333H6.833A5.333 5.333 0 001.5 22.833V25.5"/><path data-name="Path 12024" d="M16.834 6.833A5.333 5.333 0 1111.5 1.5a5.333 5.333 0 015.333 5.333z"/><path data-name="Path 12025" d="M22.833 12.167l2.667 2.667L30.833 9.5"/></g></svg><svg width="32" height="24" viewBox="0 0 32 24" id="wifi-icon" y="1049" xmlns="http://www.w3.org/2000/svg"><path data-name="Icon awesome-wifi" d="M31.746 6.583a22.122 22.122 0 00-31.491 0 .894.894 0 00-.018 1.231l1.712 1.82a.773.773 0 001.12.02 18.251 18.251 0 0125.863 0 .774.774 0 001.12-.02l1.712-1.82a.9.9 0 00-.018-1.231zM16 17.143A3.437 3.437 0 0016 24a3.437 3.437 0 000-6.857zm10.134-4.478a14.59 14.59 0 00-20.267 0 .889.889 0 00-.029 1.24l1.722 1.821a.777.777 0 001.1.043 10.7 10.7 0 0114.675 0 .776.776 0 001.1-.043l1.722-1.821a.889.889 0 00-.023-1.24z" fill="#901a1e"/></svg></svg>